<svg width="1440" height="1024" viewBox="0 0 1440 1024" fill="none" xmlns="http://www.w3.org/2000/svg">
<g clip-path="url(#clip0_219_6570)">
<rect width="1440" height="1024" fill="white"/>
<path d="M11.8108 533.847C15.8496 485.229 27.0747 437.478 45.1198 392.152C74.8226 318.912 131.671 245.343 197.174 231.574C262.678 217.804 290.348 261.736 276.578 305.011C264.645 342.254 215.992 373.203 179.012 405.725C142.031 438.247 73.0522 517.192 53.906 592.793L16.9252 596.858L11.8108 533.847Z" fill="#F7F2EC"/>
<g opacity="0.15">
<path opacity="0.15" d="M11.8108 533.847C15.8496 485.229 27.0747 437.478 45.1198 392.152C74.8226 318.912 131.671 245.343 197.174 231.574C262.678 217.804 290.348 261.736 276.578 305.011C264.645 342.254 215.992 373.203 179.012 405.725C142.031 438.247 73.0522 517.192 53.906 592.793L16.9252 596.858L11.8108 533.847Z" fill="black"/>
</g>
<path d="M37.1855 567.811C38.2414 567.812 39.256 567.402 40.0147 566.667C40.7734 565.933 41.2167 564.933 41.2508 563.877C48.1355 372.94 234.745 266.194 236.777 265.014C237.667 264.45 238.308 263.567 238.568 262.546C238.828 261.525 238.688 260.444 238.177 259.522C237.667 258.601 236.823 257.91 235.819 257.59C234.816 257.27 233.728 257.346 232.778 257.801C230.811 258.916 40.0705 367.957 33.0547 563.418C33.019 564.503 33.4117 565.558 34.1479 566.356C34.8841 567.153 35.9046 567.629 36.9888 567.68L37.1855 567.811Z" fill="white"/>
<path d="M-17.6298 869.953C-17.6298 869.953 20.5313 894.082 80.1991 883.788C99.4936 881.221 117.473 872.587 131.54 859.134C146.948 843.267 149.374 827.268 153.702 806.024C154.894 797.144 157.931 788.611 162.619 780.976C175.733 763.404 200.912 763.731 222.156 759.142C252.318 752.585 280.053 730.947 288.774 701.375C297.495 671.804 283.332 635.806 254.744 624.135L289.823 601.645C300.728 595.244 310.813 587.537 319.854 578.696C328.878 569.682 334.27 557.662 335 544.928C335 526.306 321.165 509.652 304.117 502.046C286.654 495.304 267.705 493.357 249.236 496.407C230.528 498.696 212.139 503.095 194.42 509.521C189.592 511.7 184.373 512.882 179.077 512.996C172.184 511.776 165.724 508.795 160.324 504.341C120.196 478.113 54.8239 479.884 33.3173 529.847C30.1699 537.191 28.2684 545.059 24.8589 552.272C12.4008 579.22 -22.6786 571.09 -45.3655 583.679C-52.4855 588.188 -58.5262 594.209 -63.0588 601.313C-67.5915 608.418 -70.5051 616.434 -71.5931 624.791C-76.1173 651.412 -68.708 681.77 -63.7903 708.063C-58.8727 734.357 -52.6436 758.814 -45.4966 783.73C-39.661 804.319 -33.2352 824.711 -26.4161 844.971C-24.9735 849.168 -21.8262 867.33 -17.6298 869.953Z" fill="#F7F2EC"/>
<path d="M-41.6286 808.449C-21.6306 753.427 11.2115 703.973 54.1677 664.198C54.6146 663.239 55.4126 662.487 56.397 662.099C68.7737 650.497 81.7525 639.553 95.2794 629.315C100.391 593.909 95.8605 557.78 82.1656 524.732C81.7048 523.75 81.6532 522.625 82.0221 521.604C82.391 520.583 83.1502 519.751 84.1327 519.29C85.1152 518.829 86.2406 518.778 87.2612 519.146C88.2818 519.515 89.1141 520.275 89.5749 521.257C103.155 553.119 108.369 587.922 104.721 622.365C159.68 582.728 220.649 552.178 285.298 531.879C286.35 531.615 287.462 531.768 288.403 532.306C289.345 532.843 290.041 533.725 290.347 534.765C290.496 535.285 290.539 535.831 290.473 536.369C290.408 536.906 290.236 537.426 289.967 537.896C289.699 538.366 289.338 538.778 288.908 539.108C288.478 539.437 287.986 539.677 287.462 539.813C285.757 540.272 169.438 573.319 73.1827 657.837C132.195 647.543 202.55 676 205.763 677.508C206.666 677.847 207.419 678.496 207.887 679.34C208.356 680.183 208.509 681.165 208.32 682.111C208.131 683.057 207.611 683.904 206.855 684.503C206.098 685.101 205.153 685.41 204.189 685.376C203.669 685.471 203.136 685.471 202.616 685.376C201.829 684.983 119.147 651.543 60.7246 669.705C18.294 708.614 -14.2147 757.107 -34.0881 811.138C-34.363 811.944 -34.8843 812.644 -35.5785 813.138C-36.2727 813.632 -37.1046 813.896 -37.9567 813.892H-39.3337C-39.8513 813.698 -40.3239 813.4 -40.7227 813.017C-41.1214 812.634 -41.4379 812.174 -41.6527 811.664C-41.8675 811.155 -41.9761 810.607 -41.972 810.054C-41.9678 809.502 -41.851 808.956 -41.6286 808.449Z" fill="white"/>
<path d="M1131.6 1023.88H859.313C855.939 1019.11 853.335 1013.79 851.607 1008.13C849.243 999.409 851.441 987.834 860.117 983.86C865.672 981.376 871.677 983.438 877.445 983.587C878.327 983.769 879.24 983.684 880.077 983.341C880.915 982.998 881.642 982.411 882.173 981.649C882.797 980.405 882.949 978.958 882.599 977.6C881.866 974.496 879.029 972.508 876.665 970.819C876.572 970.762 876.493 970.682 876.433 970.587C876.374 970.493 876.336 970.385 876.322 970.272C876.308 970.159 876.319 970.045 876.354 969.938C876.389 969.83 876.447 969.732 876.523 969.652C878.961 967.518 882.015 966.314 885.188 966.238C888.36 966.161 891.464 967.216 893.993 969.23C896.972 965.901 895.671 960.884 893.733 957.257C891.794 953.631 888.272 950.426 885.884 946.75C883.791 943.934 882.839 940.364 883.237 936.815C884.048 933.197 886.102 930.021 889.005 927.897C893.733 923.997 901.723 919.576 907.231 924.221C913.212 929.189 909.383 938.777 913.307 944.962C913.79 945.88 914.467 946.669 915.287 947.268C916.107 947.867 917.047 948.259 918.035 948.414C918.922 948.357 919.781 948.059 920.526 947.55C921.272 947.041 921.88 946.337 922.29 945.508C923.685 943.447 924.819 940.938 927.183 940.044C926.545 933.71 924.985 927.624 924.394 921.166C923.567 912 925.529 900.127 934.654 896.327C936.419 895.527 938.325 895.126 940.248 895.152C942.17 895.178 944.066 895.629 945.812 896.476C947.581 897.504 949.052 899.017 950.068 900.854C951.083 902.692 951.606 904.784 951.58 906.908C951.793 912.348 950.043 917.663 950.658 923.103C951.036 926.407 952.573 929.909 956.355 929.139C958.913 928.344 961.281 926.99 963.305 925.165C966.095 923.128 970.894 920.893 973.825 923.898C975.551 925.662 975.314 928.469 976.804 930.356C977.636 931.189 978.627 931.828 979.71 932.23C980.794 932.632 981.946 932.79 983.092 932.691C987.654 932.691 992.052 931.573 996.638 931.996C1000.99 932.31 1005.21 933.624 1009.02 935.846C1012.67 938.027 1015.57 941.342 1017.35 945.334C1018.88 948.812 1021.55 956.909 1026.52 953.333C1028.46 951.541 1030.02 949.341 1031.1 946.874C1032.4 944.614 1033.68 942.354 1035.1 940.168C1037.56 935.997 1040.94 932.512 1044.96 930.009C1049.04 927.758 1053.75 927.09 1058.25 928.121C1062.75 929.152 1066.77 931.816 1069.59 935.647C1072.35 939.572 1073.73 944.384 1073.49 949.259C1073.18 954.897 1069.54 959.667 1069.33 965.255C1069.16 966.596 1069.33 967.96 1069.84 969.203C1070.35 970.446 1071.17 971.52 1072.21 972.31C1075 974.048 1078.48 972.484 1081.34 971.788C1084.2 971.093 1089.26 971.44 1090.56 975.141C1090.8 975.953 1090.83 976.816 1090.66 977.646C1090.49 978.477 1090.12 979.248 1089.59 979.886C1088.98 980.755 1088.24 981.525 1087.7 982.37C1087.15 983.214 1087.11 984.233 1088.27 985.027C1091.62 987.511 1096.21 986.567 1100.09 986.965C1122.57 989.25 1130.56 1017.24 1131.6 1023.88Z" fill="#F7F2EC"/>
<path opacity="0.2" d="M1131.6 1023.88H859.313C855.939 1019.11 853.335 1013.79 851.607 1008.13C849.243 999.409 851.441 987.834 860.117 983.86C865.672 981.376 871.677 983.438 877.445 983.587C878.327 983.769 879.24 983.684 880.077 983.341C880.915 982.998 881.642 982.411 882.173 981.649C882.797 980.405 882.949 978.958 882.599 977.6C881.866 974.496 879.029 972.508 876.665 970.819C876.572 970.762 876.493 970.682 876.433 970.587C876.374 970.493 876.336 970.385 876.322 970.272C876.308 970.159 876.319 970.045 876.354 969.938C876.389 969.83 876.447 969.732 876.523 969.652C878.961 967.518 882.015 966.314 885.188 966.238C888.36 966.161 891.464 967.216 893.993 969.23C896.972 965.901 895.671 960.884 893.733 957.257C891.794 953.631 888.272 950.426 885.884 946.75C883.791 943.934 882.839 940.364 883.237 936.815C884.048 933.197 886.102 930.021 889.005 927.897C893.733 923.997 901.723 919.576 907.231 924.221C913.212 929.189 909.383 938.777 913.307 944.962C913.79 945.88 914.467 946.669 915.287 947.268C916.107 947.867 917.047 948.259 918.035 948.414C918.922 948.357 919.781 948.059 920.526 947.55C921.272 947.041 921.88 946.337 922.29 945.508C923.685 943.447 924.819 940.938 927.183 940.044C926.545 933.71 924.985 927.624 924.394 921.166C923.567 912 925.529 900.127 934.654 896.327C936.419 895.527 938.325 895.126 940.248 895.152C942.17 895.178 944.066 895.629 945.812 896.476C947.581 897.504 949.052 899.017 950.068 900.854C951.083 902.692 951.606 904.784 951.58 906.908C951.793 912.348 950.043 917.663 950.658 923.103C951.036 926.407 952.573 929.909 956.355 929.139C958.913 928.344 961.281 926.99 963.305 925.165C966.095 923.128 970.894 920.893 973.825 923.898C975.551 925.662 975.314 928.469 976.804 930.356C977.636 931.189 978.627 931.828 979.71 932.23C980.794 932.632 981.946 932.79 983.092 932.691C987.654 932.691 992.052 931.573 996.638 931.996C1000.99 932.31 1005.21 933.624 1009.02 935.846C1012.67 938.027 1015.57 941.342 1017.35 945.334C1018.88 948.812 1021.55 956.909 1026.52 953.333C1028.46 951.541 1030.02 949.341 1031.1 946.874C1032.4 944.614 1033.68 942.354 1035.1 940.168C1037.56 935.997 1040.94 932.512 1044.96 930.009C1049.04 927.758 1053.75 927.09 1058.25 928.121C1062.75 929.152 1066.77 931.816 1069.59 935.647C1072.35 939.572 1073.73 944.384 1073.49 949.259C1073.18 954.897 1069.54 959.667 1069.33 965.255C1069.16 966.596 1069.33 967.96 1069.84 969.203C1070.35 970.446 1071.17 971.52 1072.21 972.31C1075 974.048 1078.48 972.484 1081.34 971.788C1084.2 971.093 1089.26 971.44 1090.56 975.141C1090.8 975.953 1090.83 976.816 1090.66 977.646C1090.49 978.477 1090.12 979.248 1089.59 979.886C1088.98 980.755 1088.24 981.525 1087.7 982.37C1087.15 983.214 1087.11 984.233 1088.27 985.027C1091.62 987.511 1096.21 986.567 1100.09 986.965C1122.57 989.25 1130.56 1017.24 1131.6 1023.88Z" fill="#C2B5A4"/>
<g opacity="0.2">
<path opacity="0.2" d="M939.098 977.203C935.789 993.001 932.479 1008.53 936.38 1023.9H933.259C932.101 1020.85 930.895 1017.79 929.855 1014.71C918.673 1009.22 906.617 1013.64 894.797 1012.23C885.135 1011.14 876.224 1006.25 869.857 998.54C869.773 998.435 869.729 998.301 869.735 998.164C869.74 998.028 869.795 997.898 869.887 997.801C869.979 997.704 870.102 997.647 870.232 997.642C870.362 997.636 870.49 997.682 870.59 997.77C875.518 1002.06 881.117 1005.42 887.138 1007.71C885.885 1006.17 884.774 1004.55 883.332 1003.09C881.346 1000.97 879.124 999.161 876.996 997.223C876.979 997.197 876.971 997.166 876.972 997.135C876.973 997.104 876.983 997.073 877.002 997.049C877.02 997.024 877.045 997.006 877.074 996.997C877.103 996.988 877.133 996.989 877.162 997C879.559 998.612 881.8 1000.47 883.852 1002.54C885.783 1004.28 887.534 1006.23 889.076 1008.35C892.988 1009.53 897.039 1010.13 901.109 1010.11C910.399 1010.11 920.777 1007.9 929.193 1012.87C928.484 1011.01 927.751 1009.17 926.971 1007.33C923.676 999.671 919.835 992.281 915.482 985.226C910.976 978.355 907.022 971.102 903.662 963.541C900.789 956.113 898.896 948.308 898.036 940.341C898.036 939.919 898.579 939.72 898.65 940.168C901.014 954.152 907.492 966.224 914.513 978.047C912.361 971.192 910.588 964.237 907.87 957.555C907.657 957.083 908.319 956.661 908.555 957.133C912.338 965.156 916.404 974.098 917.539 983.065C918.035 983.86 918.508 984.655 918.981 985.549C924.028 993.911 928.302 1002.76 931.746 1011.98C931.672 1002.13 932.824 992.322 935.174 982.792C937.597 972.649 939.085 962.285 939.618 951.842C939.618 950.923 939.618 950.004 939.618 949.085C934.137 937.144 931.856 923.859 933.023 910.659C933.051 910.506 933.129 910.368 933.243 910.269C933.358 910.171 933.501 910.116 933.649 910.116C933.797 910.116 933.941 910.171 934.055 910.269C934.169 910.368 934.247 910.506 934.276 910.659C934.163 917.813 934.67 924.963 935.789 932.02C936.704 936.731 937.977 941.358 939.595 945.856C939.277 937.543 938.559 929.253 937.443 921.017C937.443 920.321 938.413 920.222 938.578 920.843C943.217 939.291 943.396 958.664 939.098 977.203V977.203Z" fill="black"/>
<path opacity="0.2" d="M999.617 955.891C997.539 960.229 995.218 964.435 992.667 968.484C992.034 971.878 991.109 975.203 989.901 978.42C988.223 982.814 985.769 986.834 982.667 990.268C978.932 994.441 975.173 998.043 974.086 1003.61C977.289 1009.84 979.131 1016.75 979.475 1023.83H977.112C975.197 1011.01 969.003 1000.55 963.424 988.877C958.53 978.644 954.441 965.305 959.311 954.102C959.594 953.481 960.493 953.953 960.351 954.574C957.018 969.478 962.951 981.897 969.523 994.565C970.54 996.553 971.603 998.565 972.62 1000.63C973.242 998.061 974.405 995.675 976.024 993.646C979.357 989.225 983.282 985.623 985.835 980.556C991.414 969.378 990.563 957.282 992.099 945.185C992.099 944.514 993.021 944.813 993.092 945.334C993.931 951.837 993.931 958.429 993.092 964.932C994.674 961.522 996.499 958.242 998.553 955.121C998.601 955.047 998.662 954.985 998.734 954.936C998.805 954.888 998.884 954.854 998.968 954.838C999.051 954.822 999.137 954.824 999.22 954.842C999.303 954.861 999.381 954.896 999.451 954.947C999.521 954.997 999.581 955.062 999.627 955.137C999.673 955.212 999.705 955.295 999.72 955.383C999.735 955.47 999.734 955.56 999.716 955.648C999.699 955.735 999.665 955.817 999.617 955.891Z" fill="black"/>
<path opacity="0.2" d="M1057.82 948.017C1056.74 954.294 1054.25 960.206 1050.54 965.255C1047.65 969.23 1043.28 971.713 1040.56 975.564C1038.2 980.78 1035.5 985.797 1032.81 990.79C1030.11 995.783 1024.7 1003.21 1027.2 1009.64C1027.35 1009.97 1027.09 1010.16 1026.83 1010.19C1029.86 1014.05 1031.54 1018.89 1031.55 1023.9H1030.23C1028.76 1005.37 1003.68 1000.48 1003.45 981.351C1003.45 980.457 1004.77 980.258 1004.94 981.128C1006.78 991.51 1014.51 997.348 1021.48 1004.1C1022.95 1005.51 1024.33 1007.01 1025.62 1008.6C1023.89 1004.75 1025.15 1000.53 1026.9 996.702C1029.66 990.641 1033.09 984.903 1036.05 978.967C1039.27 972.816 1041.96 966.373 1044.08 959.716C1045.9 952.904 1046.78 945.851 1046.68 938.777C1046.68 938.678 1046.72 938.583 1046.79 938.513C1046.85 938.443 1046.94 938.404 1047.04 938.404C1047.13 938.404 1047.22 938.443 1047.29 938.513C1047.36 938.583 1047.39 938.678 1047.39 938.777C1049.76 949.085 1046.57 960.908 1042.67 970.621C1044.11 969.18 1045.67 967.839 1046.97 966.323C1051.7 960.958 1054.06 954.351 1056.42 947.744C1056.44 947.647 1056.48 947.556 1056.53 947.474C1056.58 947.392 1056.64 947.321 1056.72 947.265C1056.8 947.21 1056.88 947.171 1056.97 947.151C1057.07 947.131 1057.16 947.129 1057.25 947.147C1057.34 947.165 1057.43 947.202 1057.51 947.256C1057.59 947.309 1057.65 947.378 1057.71 947.459C1057.76 947.539 1057.8 947.63 1057.81 947.726C1057.83 947.822 1057.84 947.921 1057.82 948.017Z" fill="black"/>
<path opacity="0.2" d="M1108.36 1003.68C1102.38 1004.58 1096.54 1006.04 1090.58 1006.41C1084.4 1006.75 1078.21 1006.4 1072.1 1005.4C1064.56 1004.18 1056.97 1002.34 1049.5 1003.16C1051.76 1002.11 1053.96 1000.91 1056.09 999.583C1063.53 994.852 1069.33 987.739 1072.64 979.289C1072.95 978.445 1071.84 978.147 1071.39 978.743C1068.27 983.644 1064.72 988.219 1060.77 992.404C1055.91 996.509 1050.54 999.909 1044.82 1002.51C1040.52 1004.51 1036.72 1007.52 1033.71 1011.31C1032.92 1012.38 1029.19 1017.84 1031.48 1019.01C1031.54 1019.04 1031.61 1019.06 1031.67 1019.06C1031.74 1019.06 1031.8 1019.04 1031.86 1019.01L1032 1018.83C1032.03 1018.81 1032.06 1018.79 1032.07 1018.75C1032.09 1018.72 1032.1 1018.68 1032.1 1018.65C1032.1 1018.61 1032.09 1018.57 1032.07 1018.54C1032.06 1018.51 1032.03 1018.48 1032 1018.46C1033.15 1016.12 1034.5 1013.9 1036.05 1011.83C1037.73 1010.08 1039.62 1008.56 1041.67 1007.31C1042.69 1006.66 1043.75 1006.09 1044.84 1005.52C1055.03 1003.46 1065.45 1007.36 1075.57 1008.65C1086.19 1009.99 1098.79 1009.87 1108.81 1005.47C1108.92 1005.44 1109.03 1005.39 1109.12 1005.31C1109.21 1005.24 1109.29 1005.15 1109.35 1005.04C1109.4 1004.94 1109.44 1004.82 1109.46 1004.7C1109.47 1004.58 1109.47 1004.46 1109.44 1004.34C1109.41 1004.22 1109.35 1004.11 1109.28 1004.02C1109.21 1003.92 1109.13 1003.84 1109.03 1003.78C1108.93 1003.72 1108.82 1003.68 1108.7 1003.66C1108.59 1003.64 1108.47 1003.65 1108.36 1003.68V1003.68Z" fill="black"/>
<path opacity="0.2" d="M975.764 1018.21C972.761 1013.62 967.868 1011.03 963.471 1008.15C957.427 1004.6 952.847 998.82 950.611 991.932C950.398 991.312 949.334 991.336 949.429 992.106C951.131 1006.69 965.48 1010.86 974.889 1018.93C975.338 1019.33 976.166 1018.91 975.764 1018.21Z" fill="black"/>
<path opacity="0.2" d="M913.473 1008.97C911.345 1003.41 906.215 999.484 902.078 995.659C899.662 993.551 897.467 991.177 895.53 988.579C893.167 984.738 891.351 980.554 890.14 976.16C890.112 976.058 890.046 975.971 889.958 975.92C889.869 975.869 889.764 975.857 889.667 975.887C889.57 975.916 889.488 975.985 889.439 976.078C889.391 976.172 889.379 976.281 889.407 976.383C890.613 983.305 893.71 989.709 898.319 994.814C903.047 999.782 908.343 1004 912.858 1009.3C913.094 1009.64 913.615 1009.37 913.473 1008.97Z" fill="black"/>
</g>
<g opacity="0.1">
<path opacity="0.1" d="M1099.28 998.167C1099.11 998.511 1098.84 998.791 1098.51 998.969C1098.18 999.147 1097.8 999.215 1097.44 999.164C1097.07 999.112 1096.72 998.944 1096.45 998.682C1096.18 998.419 1095.98 998.075 1095.9 997.695C1095.89 997.555 1095.89 997.414 1095.9 997.273V997.273C1095.82 996.74 1095.93 996.195 1096.2 995.738C1096.48 995.282 1096.9 994.945 1097.39 994.789C1099 994.367 1100.16 996.553 1099.28 998.167Z" fill="black"/>
<path opacity="0.1" d="M930.989 956.487V956.338C931.035 956.136 931.031 955.925 930.977 955.725C930.923 955.525 930.822 955.343 930.682 955.196C930.617 955.119 930.536 955.059 930.445 955.022C930.338 954.924 930.21 954.854 930.072 954.818C929.934 954.782 929.79 954.781 929.652 954.814C929.513 954.848 929.384 954.916 929.276 955.013C929.167 955.109 929.082 955.232 929.027 955.369C928.531 956.462 929.736 957.853 930.634 956.984C930.741 956.886 930.829 956.768 930.894 956.636V956.512L930.989 956.487Z" fill="black"/>
<path opacity="0.1" d="M1038.36 947.669V947.52C1038.26 947.334 1038.12 947.179 1037.94 947.07C1037.77 946.961 1037.57 946.902 1037.37 946.899H1037.09C1036.94 946.911 1036.8 946.958 1036.68 947.036C1036.56 947.115 1036.46 947.224 1036.38 947.352C1036.31 947.481 1036.27 947.627 1036.26 947.777C1036.25 947.927 1036.27 948.078 1036.33 948.216C1036.71 949.358 1038.53 949.482 1038.55 948.216C1038.58 948.076 1038.58 947.933 1038.55 947.793V947.793C1038.55 947.793 1038.36 947.694 1038.36 947.669Z" fill="black"/>
<path opacity="0.1" d="M931.509 949.557C931.339 949.478 931.146 949.47 930.971 949.535C930.795 949.599 930.65 949.732 930.563 949.905C930.504 950.056 930.504 950.226 930.563 950.377C930.567 950.549 930.628 950.715 930.736 950.845C930.843 950.976 930.99 951.063 931.152 951.093C931.314 951.122 931.48 951.091 931.623 951.006C931.766 950.921 931.876 950.786 931.934 950.625C931.996 950.423 931.986 950.205 931.908 950.009C931.831 949.813 931.689 949.653 931.509 949.557V949.557Z" fill="black"/>
<path opacity="0.1" d="M969.428 927.997C969.346 927.955 969.257 927.931 969.166 927.926C969.075 927.92 968.984 927.935 968.898 927.967C968.812 927.999 968.733 928.049 968.666 928.114C968.599 928.179 968.544 928.257 968.506 928.344C968.478 928.415 968.463 928.491 968.463 928.568C968.463 928.645 968.478 928.721 968.506 928.791C968.472 928.979 968.51 929.174 968.612 929.332C968.714 929.49 968.871 929.6 969.05 929.636C969.229 929.672 969.414 929.632 969.564 929.525C969.715 929.418 969.819 929.252 969.854 929.065C969.932 928.864 969.931 928.638 969.851 928.438C969.771 928.238 969.619 928.079 969.428 927.997V927.997Z" fill="black"/>
<path opacity="0.1" d="M1041.86 941.161C1041.77 941.192 1041.7 941.24 1041.63 941.303C1041.56 941.366 1041.51 941.442 1041.47 941.528C1041.43 941.613 1041.4 941.706 1041.4 941.801C1041.39 941.896 1041.41 941.991 1041.43 942.08C1041.44 942.161 1041.47 942.237 1041.52 942.302C1041.56 942.368 1041.62 942.419 1041.69 942.453C1041.8 942.611 1041.96 942.719 1042.14 942.754C1042.32 942.789 1042.5 942.748 1042.65 942.639C1042.8 942.531 1042.91 942.363 1042.94 942.175C1042.97 941.986 1042.93 941.791 1042.83 941.633C1042.76 941.44 1042.61 941.283 1042.43 941.196C1042.25 941.108 1042.05 941.096 1041.86 941.161V941.161Z" fill="black"/>
</g>
<path d="M780.19 1023.88H489.159C485.547 1018.78 482.767 1013.09 480.932 1007.03C478.45 997.72 480.743 985.35 490.01 981.103C495.967 978.37 502.374 980.631 508.52 980.805C509.445 980.977 510.396 980.875 511.269 980.511C512.141 980.147 512.9 979.535 513.461 978.743C514.133 977.417 514.302 975.873 513.934 974.421C513.13 971.093 510.104 968.981 507.574 967.168C507.476 967.105 507.393 967.02 507.331 966.919C507.269 966.818 507.23 966.703 507.216 966.583C507.202 966.464 507.215 966.342 507.252 966.228C507.29 966.115 507.351 966.011 507.433 965.926C510.044 963.617 513.327 962.312 516.739 962.226C520.151 962.14 523.489 963.279 526.203 965.454C529.37 961.902 527.999 956.537 525.919 952.662C523.839 948.787 520.104 945.359 517.527 941.435C515.307 938.43 514.297 934.631 514.714 930.853C515.59 927.001 517.776 923.617 520.86 921.34C525.848 917.167 534.453 912.447 540.339 917.415C546.746 922.83 542.703 932.964 546.84 939.572C547.346 940.544 548.056 941.382 548.916 942.024C549.777 942.665 550.764 943.092 551.805 943.273C552.755 943.209 553.673 942.89 554.472 942.347C555.271 941.803 555.924 941.053 556.367 940.168C557.857 937.932 559.062 935.2 561.615 934.331C560.906 927.549 559.251 920.917 558.637 914.136C557.738 904.35 559.819 891.657 569.582 887.484C571.456 886.652 573.473 886.236 575.507 886.262C577.541 886.288 579.548 886.754 581.402 887.633C583.291 888.74 584.86 890.363 585.942 892.331C587.024 894.299 587.579 896.538 587.548 898.81C587.808 904.598 585.917 910.311 586.579 916.198C586.981 919.75 588.636 923.476 592.678 922.656C595.408 921.802 597.937 920.355 600.101 918.409C603.08 916.223 608.21 913.838 611.354 917.042C613.198 918.93 612.938 922.01 614.545 923.973C615.429 924.869 616.486 925.554 617.645 925.983C618.803 926.411 620.036 926.573 621.259 926.456C626.129 926.456 630.715 925.289 635.727 925.736C640.375 926.065 644.897 927.473 648.965 929.859C652.859 932.184 655.966 935.727 657.854 939.994C659.508 943.72 662.345 952.414 667.664 948.539C669.735 946.59 671.401 944.214 672.558 941.559C673.929 939.075 675.3 936.715 676.813 934.38C679.443 929.93 683.051 926.208 687.333 923.525C691.703 921.082 696.755 920.341 701.595 921.431C706.435 922.522 710.753 925.375 713.786 929.487C716.745 933.682 718.225 938.828 717.97 944.043C717.663 950.079 713.762 955.146 713.502 961.132C713.361 962.549 713.573 963.981 714.116 965.287C714.658 966.593 715.514 967.729 716.599 968.584C719.577 970.447 723.289 968.758 726.362 968.013C729.435 967.267 734.825 967.64 736.22 971.589C736.449 972.443 736.474 973.344 736.293 974.21C736.111 975.077 735.729 975.883 735.18 976.557C734.518 977.501 733.714 978.321 733.147 979.314C732.367 980.73 732.509 981.326 733.738 982.196C737.355 984.68 742.248 983.835 746.362 984.233C770.545 986.865 779.103 1016.77 780.19 1023.88Z" fill="#F7F2EC"/>
<g opacity="0.2">
<path opacity="0.2" d="M574.451 973.854C570.905 990.744 567.359 1007.34 571.544 1023.78H568.21C566.958 1020.53 565.846 1017.25 564.57 1013.97C552.608 1008.11 539.724 1012.83 527.077 1011.19C516.748 1010.03 507.22 1004.8 500.411 996.557C500.36 996.503 500.319 996.439 500.291 996.369C500.264 996.298 500.25 996.223 500.25 996.147C500.25 996.071 500.264 995.995 500.291 995.925C500.319 995.855 500.36 995.791 500.411 995.737C500.462 995.683 500.523 995.641 500.59 995.611C500.657 995.582 500.729 995.567 500.801 995.567C500.874 995.567 500.945 995.582 501.012 995.611C501.079 995.641 501.14 995.683 501.191 995.737C506.445 1000.32 512.411 1003.91 518.827 1006.37C517.479 1004.7 516.203 1002.99 514.737 1001.4C512.609 999.14 510.269 997.203 507.976 995.116C507.834 995.116 507.976 994.793 508.165 994.893C510.706 996.626 513.081 998.614 515.257 1000.83C517.331 1002.68 519.209 1004.76 520.86 1007.04C525.039 1008.31 529.37 1008.93 533.72 1008.9C543.649 1008.9 554.736 1006.57 563.719 1011.86C562.962 1009.87 562.182 1007.88 561.355 1005.95C557.833 997.761 553.732 989.864 549.086 982.324C544.269 974.992 540.046 967.248 536.462 959.174C533.393 951.218 531.365 942.863 530.434 934.335C530.434 933.912 531.025 933.689 531.096 934.161C533.649 949.064 540.552 962.005 548.069 974.649C545.705 967.346 543.861 959.894 540.977 952.765C540.764 952.244 541.45 951.796 541.71 952.318C545.753 960.888 550.102 970.451 551.332 980.039C551.828 980.883 552.348 981.728 552.868 982.523C558.254 991.471 562.821 1000.94 566.508 1010.79C566.413 1000.27 567.629 989.781 570.125 979.592C572.692 968.812 574.275 957.8 574.853 946.705C574.853 945.711 574.853 944.742 574.853 943.749C568.996 930.989 566.545 916.798 567.761 902.689C567.761 901.795 569.109 901.746 569.109 902.689C568.99 910.335 569.536 917.976 570.74 925.517C571.704 930.593 573.064 935.578 574.806 940.42C574.452 931.549 573.663 922.703 572.442 913.917C572.442 913.147 573.482 913.047 573.671 913.718C578.675 933.385 578.943 954.051 574.451 973.854V973.854Z" fill="black"/>
<path opacity="0.2" d="M639.13 951.196C636.915 955.841 634.429 960.338 631.684 964.659C631.029 968.319 630.039 971.905 628.729 975.365C626.954 980.072 624.329 984.374 620.999 988.033C617.003 992.479 613.008 996.329 611.85 1002.27C615.263 1008.94 617.224 1016.33 617.594 1023.9H615.23C613.174 1010.21 606.555 999.062 600.597 986.642C595.349 975.688 591 961.455 596.2 949.582C596.508 948.911 597.453 949.408 597.311 950.079C593.742 965.901 600.101 979.19 607.122 992.827C608.209 994.938 609.321 997.099 610.408 999.31C611.083 996.574 612.327 994.029 614.048 991.858C617.618 987.139 621.826 983.313 624.545 977.874C630.502 965.926 629.556 953.034 631.235 940.068C631.235 939.373 632.228 939.671 632.299 940.217C633.185 947.174 633.185 954.225 632.299 961.182C633.989 957.529 635.941 954.016 638.138 950.675C638.229 950.6 638.339 950.553 638.455 950.541C638.57 950.529 638.687 950.551 638.791 950.606C638.895 950.661 638.982 950.745 639.042 950.85C639.102 950.954 639.133 951.074 639.13 951.196Z" fill="black"/>
<path opacity="0.2" d="M701.35 942.801C700.19 949.504 697.515 955.816 693.549 961.206C690.523 965.404 685.795 968.087 682.84 972.235C680.311 977.799 677.45 983.164 674.566 988.505C671.682 993.845 665.867 1001.84 668.562 1008.65C668.704 1009 668.562 1009.22 668.16 1009.25C671.422 1013.36 673.219 1018.54 673.243 1023.9H671.777C670.193 1004.03 643.409 998.863 643.149 978.395C643.149 977.476 644.567 977.228 644.733 978.172C646.719 989.275 654.969 995.559 662.392 1002.74C663.974 1004.24 665.458 1005.85 666.836 1007.56C664.969 1003.43 666.316 998.912 668.184 994.814C671.139 988.356 674.803 982.22 677.971 975.862C681.408 969.288 684.28 962.405 686.552 955.295C688.502 948.023 689.442 940.494 689.341 932.939C689.341 932.492 690.003 932.368 690.098 932.815C692.604 943.869 689.223 956.487 685.086 966.87C686.623 965.33 688.301 963.889 689.696 962.275C694.637 956.537 697.166 949.482 699.885 942.403C699.935 942.199 700.06 942.024 700.233 941.917C700.406 941.81 700.612 941.779 700.807 941.832C701.001 941.885 701.168 942.016 701.27 942.198C701.372 942.38 701.401 942.596 701.35 942.801V942.801Z" fill="black"/>
<path opacity="0.2" d="M755.367 1002.29C748.985 1003.26 742.815 1004.77 736.456 1005.2C729.85 1005.56 723.227 1005.2 716.693 1004.13C708.631 1002.84 700.523 1000.85 692.533 1001.64C694.967 1000.52 697.335 999.242 699.624 997.819C707.61 992.77 713.841 985.16 717.402 976.11C717.733 975.216 716.527 974.893 716.078 975.514C712.739 980.76 708.932 985.659 704.707 990.144C699.516 994.537 693.782 998.172 687.663 1000.95C683.098 1003.1 679.057 1006.31 675.843 1010.34C675.015 1011.48 671.115 1017.32 673.479 1018.56C673.536 1018.61 673.607 1018.63 673.68 1018.63C673.752 1018.63 673.823 1018.61 673.881 1018.56L674.022 1018.39C674.057 1018.37 674.086 1018.34 674.107 1018.3C674.127 1018.27 674.138 1018.23 674.138 1018.19C674.138 1018.15 674.127 1018.11 674.107 1018.07C674.086 1018.04 674.057 1018.01 674.022 1017.99C673.502 1017.99 678.278 1010.96 678.349 1010.88C680.147 1009.02 682.165 1007.4 684.353 1006.07C685.464 1005.37 686.717 1004.75 687.734 1004.15C698.632 1001.94 709.766 1006.12 720.593 1007.48C731.94 1008.92 745.415 1008.77 756.053 1004.1C756.282 1004.01 756.465 1003.82 756.563 1003.58C756.66 1003.35 756.664 1003.08 756.573 1002.84C756.482 1002.6 756.304 1002.4 756.078 1002.3C755.852 1002.2 755.596 1002.19 755.367 1002.29V1002.29Z" fill="black"/>
<path opacity="0.2" d="M613.647 1017.81C610.432 1012.85 605.183 1010.14 600.479 1007.06C594.016 1003.24 589.124 997.05 586.744 989.672C586.532 989.001 585.397 989.051 585.491 989.846C587.312 1005.45 602.63 1009.92 612.677 1018.54C613.174 1018.91 614.048 1018.46 613.647 1017.81Z" fill="black"/>
<path opacity="0.2" d="M547.052 1007.98C544.688 1002.04 539.299 997.844 534.854 993.721C532.242 991.512 529.864 989.014 527.762 986.269C525.23 982.187 523.286 977.734 521.994 973.055C521.95 972.964 521.877 972.892 521.789 972.85C521.7 972.809 521.6 972.801 521.507 972.827C521.413 972.853 521.33 972.912 521.273 972.994C521.215 973.076 521.186 973.177 521.19 973.278C522.48 980.661 525.762 987.498 530.646 992.976C535.776 998.316 541.355 1002.91 546.201 1008.48C546.651 1008.67 547.218 1008.38 547.052 1007.98Z" fill="black"/>
</g>
<g opacity="0.1">
<path opacity="0.1" d="M560.836 948.811C560.648 949.175 560.358 949.47 560.007 949.657C559.655 949.843 559.258 949.913 558.867 949.856C558.477 949.799 558.113 949.619 557.822 949.339C557.532 949.06 557.33 948.693 557.242 948.29C557.22 948.142 557.22 947.991 557.242 947.843C557.132 947.454 557.132 947.039 557.242 946.65C557.346 946.29 557.538 945.965 557.799 945.707C558.061 945.45 558.383 945.27 558.732 945.185C560.67 944.738 561.781 947.098 560.836 948.811Z" fill="black"/>
<path opacity="0.1" d="M565.776 951.842V951.668C565.828 951.451 565.827 951.223 565.773 951.006C565.719 950.789 565.615 950.59 565.469 950.426L565.209 950.228C565.092 950.126 564.954 950.055 564.806 950.02C564.658 949.985 564.504 949.986 564.357 950.025C564.21 950.064 564.073 950.138 563.958 950.242C563.844 950.346 563.754 950.478 563.696 950.625C563.152 951.792 564.452 953.332 565.398 952.364C565.506 952.248 565.594 952.113 565.658 951.966V951.966L565.776 951.842Z" fill="black"/>
<path opacity="0.1" d="M680.548 942.428V942.254C680.437 942.064 680.285 941.904 680.104 941.788C679.924 941.671 679.719 941.601 679.508 941.583C679.407 941.56 679.302 941.56 679.201 941.583C679.047 941.59 678.897 941.636 678.764 941.717C678.631 941.798 678.519 941.912 678.438 942.049C678.356 942.186 678.308 942.342 678.296 942.503C678.285 942.665 678.312 942.826 678.373 942.974C678.799 944.191 680.737 944.34 680.737 942.974C680.76 942.826 680.76 942.675 680.737 942.527C680.737 942.527 680.548 942.453 680.548 942.428Z" fill="black"/>
<path opacity="0.1" d="M566.32 944.39C566.141 944.304 565.937 944.295 565.751 944.365C565.566 944.434 565.414 944.577 565.327 944.763C565.293 944.837 565.276 944.917 565.276 944.999C565.276 945.081 565.293 945.161 565.327 945.235C565.308 945.334 565.308 945.437 565.327 945.536C565.346 945.635 565.384 945.73 565.438 945.814C565.492 945.898 565.561 945.971 565.641 946.027C565.721 946.083 565.811 946.122 565.906 946.141C566.001 946.161 566.098 946.161 566.193 946.141C566.287 946.121 566.377 946.081 566.457 946.025C566.538 945.968 566.606 945.896 566.66 945.811C566.713 945.727 566.75 945.632 566.769 945.533C566.848 945.318 566.846 945.08 566.763 944.867C566.679 944.654 566.52 944.483 566.32 944.39V944.39Z" fill="black"/>
<path opacity="0.1" d="M606.863 921.389C606.684 921.303 606.48 921.294 606.294 921.364C606.109 921.433 605.957 921.576 605.87 921.762C605.836 921.835 605.819 921.916 605.819 921.998C605.819 922.079 605.836 922.16 605.87 922.234C605.84 922.432 605.886 922.635 605.997 922.799C606.108 922.963 606.275 923.075 606.464 923.111C606.652 923.146 606.846 923.103 607.005 922.99C607.163 922.878 607.274 922.704 607.312 922.507C607.39 922.296 607.387 922.061 607.304 921.852C607.22 921.643 607.061 921.477 606.863 921.389V921.389Z" fill="black"/>
<path opacity="0.1" d="M684.284 935.448C684.104 935.526 683.957 935.669 683.87 935.852C683.783 936.034 683.762 936.244 683.811 936.442C683.858 936.605 683.958 936.746 684.095 936.839C684.219 936.967 684.382 937.046 684.555 937.063C684.728 937.079 684.902 937.033 685.046 936.931C685.191 936.829 685.297 936.677 685.348 936.502C685.398 936.327 685.39 936.139 685.324 935.97C685.24 935.765 685.089 935.599 684.897 935.503C684.706 935.407 684.488 935.388 684.284 935.448V935.448Z" fill="black"/>
</g>
<path d="M1030.63 1023.88H1427.78C1432.73 1016.93 1436.53 1009.17 1439.04 1000.9C1442.39 988.182 1439.27 971.316 1426.65 965.479C1418.52 961.753 1409.77 964.858 1401.35 965.081C1400.09 965.316 1398.8 965.177 1397.61 964.682C1396.42 964.186 1395.38 963.353 1394.62 962.275C1393.71 960.456 1393.49 958.344 1394 956.363C1395.07 951.842 1399.23 948.911 1402.68 946.427C1402.81 946.34 1402.92 946.224 1403 946.086C1403.09 945.948 1403.14 945.792 1403.16 945.63C1403.17 945.468 1403.16 945.304 1403.11 945.15C1403.06 944.995 1402.98 944.855 1402.87 944.738C1399.3 941.584 1394.81 939.801 1390.15 939.684C1385.49 939.566 1380.93 941.121 1377.22 944.092C1372.91 939.124 1374.85 931.921 1377.62 926.705C1380.67 921.017 1385.56 916.769 1389.08 911.379C1392.11 907.281 1393.5 902.102 1392.94 896.947C1391.74 891.675 1388.75 887.045 1384.52 883.932C1377.71 878.244 1365.99 871.785 1357.93 878.591C1349.2 886.043 1354.78 899.804 1349.06 908.821C1348.36 910.135 1347.39 911.265 1346.21 912.125C1345.04 912.986 1343.69 913.554 1342.28 913.788C1340.99 913.711 1339.74 913.286 1338.65 912.555C1337.56 911.825 1336.67 910.812 1336.06 909.615C1334 906.585 1332.37 902.934 1328.97 901.642C1329.91 892.402 1332.18 883.36 1333.03 874.095C1334.24 860.732 1331.4 843.394 1318.07 837.706C1315.5 836.544 1312.72 835.963 1309.92 836.002C1307.11 836.04 1304.35 836.697 1301.81 837.929C1299.22 839.426 1297.07 841.634 1295.59 844.316C1294.11 846.999 1293.35 850.054 1293.39 853.156C1293.06 861.08 1295.61 868.854 1294.71 876.778C1294.15 881.622 1291.9 886.714 1286.39 885.596C1282.67 884.414 1279.21 882.435 1276.25 879.783C1272.18 876.828 1265.19 873.549 1260.91 877.921C1258.4 880.404 1258.73 884.602 1256.56 887.36C1255.35 888.578 1253.9 889.512 1252.32 890.098C1250.74 890.685 1249.06 890.911 1247.39 890.762C1240.74 890.762 1234.31 889.148 1227.62 889.744C1221.28 890.215 1215.12 892.139 1209.56 895.383C1204.25 898.559 1200 903.394 1197.41 909.218C1195.19 914.186 1191.29 926.109 1184.06 920.892C1181.01 918.707 1179.33 914.608 1177.37 911.354C1175.4 908.1 1173.63 904.747 1171.57 901.568C1167.99 895.46 1163.06 890.348 1157.2 886.664C1151.24 883.388 1144.37 882.419 1137.8 883.927C1131.22 885.434 1125.36 889.322 1121.24 894.911C1117.21 900.643 1115.19 907.663 1115.52 914.782C1115.97 923.029 1121.29 929.959 1121.62 938.106C1121.79 941.882 1120.75 946.377 1117.41 948.414C1113.35 950.898 1108.29 948.663 1104.08 947.644C1099.87 946.626 1092.52 947.147 1090.63 952.612C1090.3 953.802 1090.26 955.059 1090.52 956.269C1090.77 957.479 1091.3 958.604 1092.07 959.542C1092.95 960.809 1094.03 962.026 1094.81 963.293C1095.9 965.206 1095.69 966.025 1094.01 967.193C1089.07 970.695 1082.4 969.428 1076.78 970C1043.8 973.328 1032.12 1014.19 1030.63 1023.88Z" fill="#F7F2EC"/>
<g opacity="0.2">
<path opacity="0.2" d="M1311.47 955.767C1316.2 978.818 1321.12 1001.47 1315.42 1023.9H1319.98C1321.66 1019.45 1323.27 1014.96 1324.95 1010.51C1341.26 1002.49 1358.87 1008.95 1376.11 1006.71C1389.58 1004.97 1403.93 998.093 1412.49 986.841C1412.63 986.696 1412.71 986.498 1412.71 986.291C1412.71 986.083 1412.64 985.883 1412.5 985.735C1412.36 985.587 1412.17 985.502 1411.98 985.5C1411.78 985.498 1411.59 985.578 1411.45 985.723C1404.28 991.967 1396.14 996.866 1387.38 1000.2C1389.2 997.944 1390.95 995.584 1392.94 993.448C1395.85 990.343 1399.06 987.735 1402.18 984.878C1402.37 984.729 1402.18 984.431 1401.94 984.555C1398.45 986.914 1395.18 989.626 1392.18 992.653C1389.36 995.191 1386.8 998.03 1384.55 1001.12C1378.84 1002.84 1372.94 1003.68 1367 1003.61C1353.44 1003.61 1338.28 1000.4 1326.01 1007.66C1327.05 1004.95 1328.12 1002.24 1329.25 999.583C1334.07 988.397 1339.67 977.603 1346.01 967.292C1352.61 957.26 1358.4 946.667 1363.32 935.622C1367.5 924.787 1370.26 913.406 1371.52 901.791C1371.52 901.195 1370.74 900.922 1370.65 901.543C1367.15 921.961 1357.71 939.572 1347.48 956.81C1350.62 946.874 1353.2 936.665 1357.19 927.003C1357.48 926.307 1356.53 925.686 1356.18 926.407C1350.65 938.081 1344.74 951.246 1343.06 964.237L1340.95 967.69C1333.61 979.906 1327.37 992.821 1322.33 1006.26C1323.01 991.908 1320.1 976.83 1317.34 963.666C1314.19 948.762 1311.14 934.082 1310.72 918.781C1310.72 917.44 1310.72 916.099 1310.72 914.757C1318.7 897.332 1322.03 877.953 1320.34 858.695C1320.34 858.438 1320.24 858.192 1320.07 858.01C1319.9 857.828 1319.66 857.726 1319.42 857.726C1319.17 857.726 1318.94 857.828 1318.77 858.01C1318.59 858.192 1318.5 858.438 1318.5 858.695C1318.66 869.135 1317.93 879.569 1316.3 889.868C1314.95 896.742 1313.09 903.494 1310.74 910.063C1311.2 897.951 1312.25 885.871 1313.89 873.872C1314 872.853 1312.47 872.704 1312.23 873.623C1304.93 900.748 1305.73 928.444 1311.47 955.767Z" fill="black"/>
<path opacity="0.2" d="M1223.18 924.668C1226.2 931.009 1229.6 937.147 1233.34 943.049C1234.23 948.051 1235.58 952.95 1237.36 957.679C1239.79 964.129 1243.37 970.032 1247.91 975.067C1253.37 981.128 1258.83 986.369 1260.41 994.491C1256.11 1003.86 1252.61 1013.79 1252.56 1024H1255.83C1258.62 1005.32 1267.65 990.045 1275.8 973.005C1282.89 958.102 1288.9 938.628 1281.81 922.432C1281.4 921.489 1280.08 922.184 1280.29 923.103C1285.02 944.713 1276.49 962.846 1266.89 981.475C1265.42 984.332 1263.89 987.288 1262.4 990.318C1261.5 986.565 1259.8 983.074 1257.43 980.109C1252.56 973.651 1246.82 968.435 1243.13 961.033C1234.98 944.713 1236.28 927.053 1233.98 909.417C1233.86 908.448 1232.61 908.87 1232.52 909.64C1231.3 919.127 1231.3 928.743 1232.52 938.23C1230.2 933.252 1227.54 928.462 1224.55 923.898C1224.42 923.779 1224.27 923.704 1224.1 923.682C1223.93 923.661 1223.76 923.695 1223.61 923.779C1223.46 923.863 1223.34 923.993 1223.26 924.152C1223.18 924.311 1223.16 924.491 1223.18 924.668V924.668Z" fill="black"/>
<path opacity="0.2" d="M1138.26 913.192C1139.83 922.349 1143.48 930.972 1148.9 938.33C1153.04 944.067 1159.47 947.719 1163.51 953.382C1166.96 960.983 1170.89 968.286 1174.81 975.588C1179 983.338 1186.63 993.796 1182.99 1003.09C1182.96 1003.18 1182.94 1003.28 1182.95 1003.38C1182.96 1003.47 1183 1003.57 1183.05 1003.65C1183.11 1003.73 1183.18 1003.8 1183.26 1003.84C1183.35 1003.89 1183.44 1003.91 1183.54 1003.91C1179.1 1009.53 1176.65 1016.6 1176.61 1023.9H1178.55C1180.7 996.876 1217.29 989.722 1217.6 961.803C1217.6 960.536 1215.69 960.213 1215.45 961.505C1212.75 976.657 1201.48 985.152 1191.34 995.013C1189.2 997.071 1187.18 999.269 1185.31 1001.6C1187.84 995.957 1185.99 989.796 1183.46 984.208C1179.42 975.39 1174.43 966.994 1170.08 958.325C1165.36 949.353 1161.41 939.961 1158.26 930.257C1155.6 920.32 1154.31 910.028 1154.46 899.705C1154.46 899.108 1153.56 898.935 1153.42 899.556C1150.01 914.608 1154.62 931.847 1160.27 946.005C1158.15 943.918 1155.88 941.956 1153.99 939.77C1147.22 931.921 1143.77 922.383 1140.08 912.646C1139.97 912.461 1139.8 912.32 1139.6 912.243C1139.4 912.166 1139.19 912.158 1138.98 912.219C1138.78 912.28 1138.6 912.407 1138.47 912.582C1138.34 912.757 1138.27 912.971 1138.26 913.192V913.192Z" fill="black"/>
<path opacity="0.2" d="M1064.53 994.392C1073.23 995.708 1081.65 997.869 1090.54 998.366C1099.55 998.868 1108.59 998.385 1117.51 996.925C1128.52 995.137 1139.59 992.429 1150.6 993.647C1147.3 992.107 1144.07 990.365 1140.96 988.43C1130.72 981.823 1120.87 970.819 1116.68 958.822C1116.26 957.605 1117.89 957.133 1118.5 958.002C1123.56 964.957 1127.72 972.037 1134.01 977.874C1140.96 984.431 1149.04 988.257 1157.27 992.628C1163.54 995.559 1169.09 999.941 1173.51 1005.45C1174.62 1007.03 1180.08 1014.96 1176.75 1016.67C1176.67 1016.74 1176.57 1016.77 1176.47 1016.77C1176.36 1016.77 1176.26 1016.74 1176.18 1016.67L1175.99 1016.42C1175.96 1016.39 1175.93 1016.34 1175.92 1016.29C1175.91 1016.24 1175.91 1016.18 1175.92 1016.13C1175.93 1016.08 1175.96 1016.03 1175.99 1015.99C1176.02 1015.95 1176.06 1015.92 1176.11 1015.9C1176.84 1015.78 1170.32 1006.31 1170.2 1006.19C1167.75 1003.65 1165 1001.45 1162.02 999.633C1160.51 998.689 1158.97 997.844 1157.29 997.025C1142.45 994.019 1127.22 999.707 1112.38 1001.57C1096.92 1003.53 1078.53 1003.33 1063.89 996.95C1063.57 996.861 1063.29 996.641 1063.13 996.338C1062.96 996.036 1062.91 995.675 1062.99 995.336C1063.08 994.996 1063.29 994.706 1063.58 994.529C1063.87 994.352 1064.21 994.303 1064.53 994.392Z" fill="black"/>
<path opacity="0.2" d="M1258.05 1015.6C1262.42 1008.9 1269.58 1005.12 1275.99 1000.92C1285.09 994.938 1291.21 988.058 1294.74 977.253C1295.04 976.334 1296.58 976.408 1296.46 977.501C1293.98 998.763 1273.06 1004.82 1259.35 1016.65C1258.59 1017.22 1257.39 1016.42 1258.05 1015.6Z" fill="black"/>
<path opacity="0.2" d="M1348.85 1002.17C1351.97 994.044 1359.44 988.331 1365.4 982.717C1368.89 979.633 1372.06 976.169 1374.85 972.384C1378.31 966.816 1380.97 960.739 1382.73 954.351C1382.78 954.212 1382.87 954.098 1383 954.031C1383.13 953.965 1383.27 953.95 1383.41 953.991C1383.55 954.031 1383.66 954.124 1383.74 954.25C1383.81 954.376 1383.84 954.528 1383.81 954.674C1381.45 964.883 1378 974.073 1370.81 981.55C1363.62 989.026 1356.18 994.988 1349.53 1002.71C1349.39 1003.11 1348.64 1002.69 1348.85 1002.17Z" fill="black"/>
</g>
<g opacity="0.1">
<path opacity="0.1" d="M1330.03 921.414C1330.29 921.914 1330.68 922.32 1331.17 922.577C1331.65 922.833 1332.19 922.929 1332.73 922.851C1333.26 922.772 1333.76 922.524 1334.16 922.138C1334.56 921.752 1334.83 921.248 1334.95 920.694C1334.96 920.495 1334.96 920.296 1334.95 920.097C1335.05 919.554 1334.99 918.993 1334.78 918.483C1334.65 917.985 1334.4 917.534 1334.04 917.176C1333.69 916.817 1333.25 916.565 1332.77 916.446C1330.43 915.85 1328.76 919.079 1330.03 921.414Z" fill="black"/>
<path opacity="0.1" d="M1323.29 925.562C1323.28 925.48 1323.28 925.396 1323.29 925.314C1323.23 925.013 1323.23 924.7 1323.3 924.401C1323.38 924.102 1323.52 923.827 1323.72 923.6C1323.82 923.498 1323.94 923.414 1324.07 923.352C1324.23 923.209 1324.42 923.108 1324.62 923.057C1324.82 923.006 1325.03 923.005 1325.23 923.056C1325.43 923.107 1325.62 923.208 1325.77 923.35C1325.93 923.492 1326.05 923.672 1326.13 923.873C1326.86 925.488 1325.11 927.599 1323.77 926.357C1323.63 926.191 1323.51 926.008 1323.41 925.811C1323.41 925.811 1323.41 925.811 1323.41 925.811C1323.37 925.794 1323.33 925.758 1323.31 925.712C1323.28 925.665 1323.28 925.612 1323.29 925.562Z" fill="black"/>
<path opacity="0.1" d="M1166.66 912.695C1166.65 912.621 1166.65 912.546 1166.66 912.472V912.472C1166.8 912.21 1167.01 911.991 1167.26 911.835C1167.5 911.678 1167.79 911.59 1168.07 911.578H1168.5C1168.71 911.596 1168.91 911.666 1169.08 911.781C1169.26 911.896 1169.41 912.053 1169.52 912.239C1169.62 912.425 1169.69 912.635 1169.71 912.853C1169.72 913.07 1169.69 913.288 1169.61 913.49C1169.07 915.154 1166.4 915.378 1166.37 913.49C1166.33 913.278 1166.33 913.057 1166.37 912.844L1166.66 912.695Z" fill="black"/>
<path opacity="0.1" d="M1322.56 915.453C1322.81 915.338 1323.09 915.325 1323.34 915.418C1323.59 915.51 1323.81 915.7 1323.93 915.949C1323.98 916.054 1324 916.169 1324 916.285C1324 916.401 1323.98 916.515 1323.93 916.62C1323.93 916.867 1323.84 917.105 1323.69 917.293C1323.54 917.481 1323.33 917.608 1323.1 917.652C1322.87 917.696 1322.63 917.654 1322.42 917.534C1322.22 917.414 1322.06 917.223 1321.97 916.993C1321.87 916.705 1321.87 916.386 1321.98 916.1C1322.09 915.815 1322.3 915.583 1322.56 915.453Z" fill="black"/>
<path opacity="0.1" d="M1267.22 883.981C1267.46 883.868 1267.74 883.856 1267.99 883.948C1268.24 884.041 1268.45 884.23 1268.57 884.478C1268.61 884.583 1268.64 884.698 1268.64 884.813C1268.64 884.929 1268.61 885.044 1268.57 885.149C1268.56 885.396 1268.48 885.634 1268.33 885.822C1268.17 886.01 1267.96 886.137 1267.73 886.181C1267.5 886.225 1267.26 886.183 1267.06 886.063C1266.85 885.943 1266.69 885.751 1266.61 885.521C1266.5 885.231 1266.51 884.909 1266.62 884.623C1266.74 884.337 1266.95 884.107 1267.22 883.981V883.981Z" fill="black"/>
<path opacity="0.1" d="M1161.55 903.157C1161.8 903.263 1162 903.461 1162.12 903.712C1162.23 903.964 1162.26 904.253 1162.19 904.524C1162.16 904.639 1162.11 904.748 1162.04 904.842C1161.97 904.936 1161.89 905.014 1161.79 905.07C1161.62 905.253 1161.4 905.368 1161.16 905.394C1160.92 905.42 1160.68 905.356 1160.48 905.213C1160.28 905.069 1160.13 904.856 1160.07 904.612C1160.01 904.367 1160.03 904.107 1160.13 903.878C1160.25 903.602 1160.46 903.379 1160.72 903.247C1160.98 903.116 1161.27 903.084 1161.55 903.157V903.157Z" fill="black"/>
</g>
</g>
<defs>
<clipPath id="clip0_219_6570">
<rect width="1440" height="1024" fill="white"/>
</clipPath>
</defs>
</svg>
