<svg width="1920" height="1024" viewBox="0 0 1920 1024" fill="none" xmlns="http://www.w3.org/2000/svg">
<g clip-path="url(#clip0_476_6803)">
<rect width="1920" height="1024" fill="#FCFBF9"/>
<path d="M1934.08 495.62C1927.64 437.469 1909.74 380.356 1880.96 326.143C1833.59 238.541 1742.93 150.548 1638.47 134.078C1534.01 117.609 1489.88 170.154 1511.84 221.915C1530.87 266.461 1608.46 303.478 1667.43 342.377C1726.41 381.276 1836.41 475.7 1866.95 566.125L1925.92 570.987L1934.08 495.62Z" fill="#F7F2EC"/>
<g opacity="0.15">
<path opacity="0.15" d="M1934.08 495.62C1927.64 437.469 1909.74 380.356 1880.96 326.143C1833.59 238.541 1742.93 150.548 1638.47 134.078C1534.01 117.609 1489.88 170.154 1511.84 221.915C1530.87 266.461 1608.46 303.478 1667.43 342.377C1726.41 381.276 1836.41 475.7 1866.95 566.125L1925.92 570.987L1934.08 495.62Z" fill="black"/>
</g>
<path d="M1893.61 536.245C1891.93 536.246 1890.31 535.755 1889.1 534.877C1887.89 533.999 1887.18 532.802 1887.13 531.54C1876.15 303.164 1578.55 175.487 1575.31 174.076C1573.89 173.401 1572.87 172.345 1572.45 171.124C1572.04 169.903 1572.26 168.609 1573.08 167.507C1573.89 166.405 1575.24 165.578 1576.84 165.196C1578.44 164.813 1580.17 164.904 1581.69 165.449C1584.83 166.782 1889.01 297.204 1900.2 530.991C1900.26 532.288 1899.63 533.55 1898.46 534.504C1897.28 535.458 1895.66 536.027 1893.93 536.088L1893.61 536.245Z" fill="#FCFBF9"/>
<path d="M1981.03 897.63C1981.03 897.63 1920.17 926.491 1825.02 914.178C1794.25 911.108 1765.57 900.781 1743.14 884.69C1718.57 865.711 1714.7 846.575 1707.8 821.165C1705.9 810.544 1701.05 800.339 1693.57 791.207C1672.66 770.189 1632.51 770.581 1598.63 765.091C1550.53 757.248 1506.29 731.368 1492.39 695.998C1478.48 660.628 1501.07 617.572 1546.66 603.613L1490.71 576.713C1473.32 569.056 1457.24 559.838 1442.82 549.264C1428.43 538.482 1419.83 524.106 1418.67 508.874C1418.67 486.602 1440.73 466.681 1467.92 457.584C1495.77 449.52 1525.99 447.191 1555.44 450.84C1585.28 453.577 1614.6 458.839 1642.86 466.525C1650.56 469.132 1658.88 470.545 1667.33 470.681C1678.32 469.222 1688.62 465.656 1697.23 460.329C1761.23 428.959 1865.48 431.076 1899.78 490.837C1904.8 499.62 1907.83 509.031 1913.27 517.658C1933.14 549.891 1989.08 540.166 2025.26 555.224C2036.62 560.617 2046.25 567.818 2053.48 576.316C2060.71 584.814 2065.35 594.401 2067.09 604.397C2074.3 636.238 2062.49 672.549 2054.65 703.997C2046.8 735.446 2036.87 764.699 2025.47 794.5C2016.17 819.126 2005.92 843.517 1995.04 867.75C1992.74 872.769 1987.72 894.493 1981.03 897.63Z" fill="#F7F2EC"/>
<path d="M2019.3 824.067C1987.41 758.256 1935.04 699.105 1866.53 651.531C1865.82 650.384 1864.55 649.485 1862.98 649.021C1843.24 635.143 1822.54 622.054 1800.97 609.808C1792.82 567.46 1800.04 524.247 1821.88 484.719C1822.62 483.544 1822.7 482.198 1822.11 480.978C1821.52 479.757 1820.31 478.761 1818.74 478.21C1817.18 477.659 1815.38 477.597 1813.75 478.038C1812.13 478.479 1810.8 479.388 1810.06 480.563C1788.41 518.672 1780.09 560.299 1785.91 601.495C1698.26 554.087 1601.03 517.546 1497.93 493.268C1496.25 492.952 1494.48 493.134 1492.98 493.778C1491.48 494.421 1490.37 495.475 1489.88 496.719C1489.64 497.342 1489.57 497.994 1489.68 498.637C1489.78 499.28 1490.06 499.902 1490.48 500.464C1490.91 501.027 1491.49 501.519 1492.17 501.913C1492.86 502.307 1493.64 502.594 1494.48 502.757C1497.2 503.306 1682.7 542.833 1836.21 643.923C1742.1 631.611 1629.89 665.647 1624.77 667.451C1623.33 667.857 1622.13 668.633 1621.38 669.642C1620.64 670.65 1620.39 671.825 1620.69 672.956C1620.99 674.088 1621.82 675.102 1623.03 675.817C1624.24 676.533 1625.74 676.903 1627.28 676.862C1628.11 676.975 1628.96 676.975 1629.79 676.862C1631.04 676.391 1762.9 636.395 1856.07 658.118C1923.74 704.656 1975.58 762.658 2007.28 827.283C2007.72 828.247 2008.55 829.084 2009.66 829.675C2010.76 830.266 2012.09 830.581 2013.45 830.576H2015.64C2016.47 830.344 2017.22 829.988 2017.86 829.53C2018.49 829.072 2019 828.522 2019.34 827.912C2019.68 827.303 2019.86 826.648 2019.85 825.987C2019.84 825.326 2019.66 824.672 2019.3 824.067Z" fill="#FCFBF9"/>
<ellipse cx="1379.5" cy="954" rx="23.5" ry="24" fill="#C4C4C4"/>
<rect x="1348" y="923" width="77" height="63" fill="#FCFBF9"/>
</g>
<defs>
<clipPath id="clip0_476_6803">
<rect width="1920" height="1024" fill="white"/>
</clipPath>
</defs>
</svg>
