<svg width="947" height="188" viewBox="0 0 947 188" fill="none" xmlns="http://www.w3.org/2000/svg">
<path d="M651.598 187.876H379.313C375.939 183.107 373.335 177.786 371.607 172.128C369.243 163.409 371.441 151.834 380.117 147.86C385.672 145.376 391.677 147.438 397.445 147.587C398.327 147.769 399.24 147.684 400.077 147.341C400.915 146.998 401.642 146.411 402.173 145.649C402.797 144.405 402.949 142.958 402.598 141.6C401.866 138.495 399.029 136.508 396.665 134.819C396.572 134.762 396.493 134.682 396.433 134.587C396.374 134.492 396.336 134.385 396.322 134.272C396.308 134.159 396.319 134.045 396.354 133.937C396.389 133.83 396.447 133.732 396.523 133.652C398.961 131.518 402.015 130.314 405.188 130.238C408.36 130.161 411.464 131.215 413.993 133.23C416.972 129.901 415.671 124.884 413.733 121.257C411.794 117.63 408.272 114.426 405.884 110.75C403.791 107.934 402.839 104.363 403.237 100.814C404.048 97.1965 406.102 94.0208 409.005 91.897C413.733 87.9973 421.723 83.576 427.231 88.2209C433.212 93.1887 429.383 102.777 433.307 108.962C433.79 109.88 434.467 110.669 435.287 111.268C436.107 111.867 437.047 112.259 438.035 112.414C438.922 112.357 439.781 112.059 440.526 111.55C441.272 111.04 441.88 110.337 442.29 109.508C443.685 107.446 444.819 104.938 447.183 104.043C446.545 97.7095 444.985 91.6238 444.394 85.1656C443.567 76 445.529 64.1268 454.654 60.3264C456.419 59.5264 458.325 59.1262 460.248 59.1519C462.17 59.1776 464.066 59.6286 465.812 60.4754C467.581 61.5039 469.052 63.0172 470.068 64.8543C471.083 66.6914 471.606 68.7835 471.58 70.9079C471.793 76.3477 470.043 81.6633 470.658 87.1031C471.036 90.4067 472.573 93.909 476.355 93.139C478.913 92.344 481.281 90.9897 483.305 89.1648C486.095 87.128 490.894 84.8924 493.825 87.898C495.551 89.6616 495.314 92.4684 496.804 94.3562C497.636 95.189 498.627 95.8275 499.71 96.2299C500.794 96.6323 501.946 96.7894 503.092 96.6911C507.654 96.6911 512.052 95.5733 516.638 95.9956C520.985 96.3098 525.214 97.6241 529.025 99.8456C532.667 102.026 535.575 105.342 537.346 109.334C538.883 112.812 541.554 120.909 546.519 117.332C548.461 115.541 550.024 113.341 551.105 110.874C552.405 108.614 553.681 106.353 555.1 104.168C557.56 99.9968 560.941 96.5117 564.958 94.0084C569.04 91.758 573.746 91.0898 578.25 92.1208C582.754 93.1518 586.769 95.8164 589.591 99.6469C592.353 103.572 593.731 108.384 593.491 113.259C593.184 118.897 589.543 123.666 589.331 129.255C589.157 130.595 589.333 131.96 589.841 133.203C590.349 134.446 591.17 135.519 592.215 136.31C595.004 138.048 598.479 136.483 601.34 135.788C604.2 135.092 609.259 135.44 610.559 139.141C610.797 139.953 610.833 140.816 610.663 141.646C610.494 142.477 610.124 143.248 609.59 143.886C608.975 144.755 608.242 145.525 607.699 146.37C607.155 147.214 607.108 148.232 608.266 149.027C611.623 151.511 616.209 150.567 620.086 150.965C642.568 153.25 650.558 181.244 651.598 187.876Z" fill="#F7F2EC"/>
<path opacity="0.2" d="M651.598 187.876H379.313C375.939 183.107 373.335 177.786 371.607 172.128C369.243 163.409 371.441 151.834 380.117 147.86C385.672 145.376 391.677 147.438 397.445 147.587C398.327 147.769 399.24 147.684 400.077 147.341C400.915 146.998 401.642 146.411 402.173 145.649C402.797 144.405 402.949 142.958 402.598 141.6C401.866 138.495 399.029 136.508 396.665 134.819C396.572 134.762 396.493 134.682 396.433 134.587C396.374 134.492 396.336 134.385 396.322 134.272C396.308 134.159 396.319 134.045 396.354 133.937C396.389 133.83 396.447 133.732 396.523 133.652C398.961 131.518 402.015 130.314 405.188 130.238C408.36 130.161 411.464 131.215 413.993 133.23C416.972 129.901 415.671 124.884 413.733 121.257C411.794 117.63 408.272 114.426 405.884 110.75C403.791 107.934 402.839 104.363 403.237 100.814C404.048 97.1965 406.102 94.0208 409.005 91.897C413.733 87.9973 421.723 83.576 427.231 88.2209C433.212 93.1887 429.383 102.777 433.307 108.962C433.79 109.88 434.467 110.669 435.287 111.268C436.107 111.867 437.047 112.259 438.035 112.414C438.922 112.357 439.781 112.059 440.526 111.55C441.272 111.04 441.88 110.337 442.29 109.508C443.685 107.446 444.819 104.938 447.183 104.043C446.545 97.7095 444.985 91.6238 444.394 85.1656C443.567 76 445.529 64.1268 454.654 60.3264C456.419 59.5264 458.325 59.1262 460.248 59.1519C462.17 59.1776 464.066 59.6286 465.812 60.4754C467.581 61.5039 469.052 63.0172 470.068 64.8543C471.083 66.6914 471.606 68.7835 471.58 70.9079C471.793 76.3477 470.043 81.6633 470.658 87.1031C471.036 90.4067 472.573 93.909 476.355 93.139C478.913 92.344 481.281 90.9897 483.305 89.1648C486.095 87.128 490.894 84.8924 493.825 87.898C495.551 89.6616 495.314 92.4684 496.804 94.3562C497.636 95.189 498.627 95.8275 499.71 96.2299C500.794 96.6323 501.946 96.7894 503.092 96.6911C507.654 96.6911 512.052 95.5733 516.638 95.9956C520.985 96.3098 525.214 97.6241 529.025 99.8456C532.667 102.026 535.575 105.342 537.346 109.334C538.883 112.812 541.554 120.909 546.519 117.332C548.461 115.541 550.024 113.341 551.105 110.874C552.405 108.614 553.681 106.353 555.1 104.168C557.56 99.9968 560.941 96.5117 564.958 94.0084C569.04 91.758 573.746 91.0898 578.25 92.1208C582.754 93.1518 586.769 95.8164 589.591 99.6469C592.353 103.572 593.731 108.384 593.491 113.259C593.184 118.897 589.543 123.666 589.331 129.255C589.157 130.595 589.333 131.96 589.841 133.203C590.349 134.446 591.17 135.519 592.215 136.31C595.004 138.048 598.479 136.483 601.34 135.788C604.2 135.092 609.259 135.44 610.559 139.141C610.797 139.953 610.833 140.816 610.663 141.646C610.494 142.477 610.124 143.248 609.59 143.886C608.975 144.755 608.242 145.525 607.699 146.37C607.155 147.214 607.108 148.232 608.266 149.027C611.623 151.511 616.209 150.567 620.086 150.965C642.568 153.25 650.558 181.244 651.598 187.876Z" fill="#C2B5A4"/>
<g opacity="0.2">
<path opacity="0.2" d="M459.098 141.203C455.788 157.001 452.479 172.525 456.379 187.901H453.259C452.1 184.846 450.895 181.79 449.855 178.71C438.673 173.221 426.617 177.642 414.797 176.226C405.135 175.142 396.223 170.252 389.856 162.54C389.773 162.435 389.729 162.301 389.735 162.165C389.74 162.028 389.794 161.898 389.886 161.801C389.979 161.705 390.102 161.648 390.232 161.642C390.362 161.636 390.49 161.682 390.589 161.77C395.518 166.061 401.117 169.423 407.137 171.706C405.884 170.166 404.773 168.551 403.331 167.086C401.346 164.974 399.123 163.161 396.996 161.223C396.979 161.197 396.971 161.166 396.972 161.135C396.973 161.104 396.983 161.073 397.001 161.049C397.02 161.024 397.045 161.006 397.074 160.997C397.103 160.988 397.133 160.989 397.161 161C399.558 162.612 401.799 164.467 403.851 166.539C405.782 168.278 407.534 170.226 409.076 172.351C412.987 173.533 417.038 174.126 421.108 174.115C430.399 174.115 440.777 171.904 449.193 176.872C448.484 175.009 447.751 173.171 446.971 171.333C443.675 163.671 439.835 156.281 435.482 149.226C430.975 142.355 427.022 135.102 423.662 127.541C420.789 120.114 418.896 112.308 418.035 104.342C418.035 103.919 418.579 103.721 418.65 104.168C421.014 118.152 427.491 130.224 434.512 142.048C432.361 135.192 430.588 128.237 427.87 121.555C427.657 121.083 428.319 120.661 428.555 121.133C432.337 129.156 436.404 138.098 437.538 147.065C438.035 147.86 438.508 148.655 438.98 149.549C444.028 157.911 448.302 166.761 451.746 175.978C451.672 166.134 452.824 156.322 455.174 146.792C457.597 136.649 459.085 126.285 459.618 115.842C459.618 114.923 459.618 114.004 459.618 113.085C454.136 101.144 451.856 87.8594 453.022 74.6588C453.051 74.5061 453.129 74.3685 453.243 74.2695C453.357 74.1706 453.501 74.1166 453.649 74.1166C453.797 74.1166 453.94 74.1706 454.055 74.2695C454.169 74.3685 454.247 74.5061 454.275 74.6588C454.163 81.8128 454.669 88.9627 455.788 96.0205C456.704 100.732 457.977 105.358 459.594 109.856C459.277 101.543 458.559 93.253 457.443 85.0167C457.443 84.3212 458.412 84.2218 458.578 84.8428C463.217 103.291 463.395 122.664 459.098 141.203Z" fill="black"/>
<path opacity="0.2" d="M519.616 119.891C517.539 124.23 515.218 128.435 512.666 132.485C512.034 135.878 511.108 139.204 509.9 142.42C508.223 146.814 505.768 150.835 502.666 154.269C498.931 158.442 495.173 162.043 494.085 167.607C497.289 173.842 499.13 180.75 499.475 187.826H497.111C495.196 175.009 489.002 164.552 483.423 152.878C478.53 142.644 474.44 129.305 479.31 118.103C479.594 117.482 480.492 117.954 480.35 118.575C477.017 133.478 482.951 145.898 489.523 158.566C490.539 160.553 491.603 162.565 492.619 164.627C493.241 162.061 494.405 159.675 496.024 157.647C499.357 153.225 503.281 149.624 505.834 144.556C511.413 133.379 510.562 121.282 512.099 109.185C512.099 108.515 513.021 108.813 513.092 109.334C513.931 115.837 513.931 122.43 513.092 128.932C514.673 125.522 516.499 122.242 518.552 119.121C518.601 119.048 518.662 118.985 518.733 118.936C518.804 118.888 518.884 118.855 518.967 118.839C519.051 118.822 519.136 118.824 519.219 118.842C519.302 118.861 519.381 118.897 519.451 118.947C519.521 118.998 519.58 119.062 519.626 119.137C519.673 119.212 519.704 119.295 519.72 119.383C519.735 119.471 519.734 119.561 519.716 119.648C519.698 119.735 519.664 119.818 519.616 119.891Z" fill="black"/>
<path opacity="0.2" d="M577.818 112.017C576.742 118.294 574.245 124.206 570.537 129.255C567.653 133.23 563.279 135.714 560.561 139.564C558.197 144.78 555.502 149.797 552.807 154.79C550.112 159.783 544.698 167.21 547.204 173.643C547.346 173.966 547.086 174.165 546.826 174.19C549.865 178.047 551.536 182.893 551.554 187.901H550.23C548.764 169.371 523.682 164.477 523.446 145.351C523.446 144.457 524.77 144.258 524.935 145.128C526.779 155.51 534.51 161.348 541.483 168.104C542.951 169.51 544.333 171.011 545.62 172.6C543.895 168.75 545.148 164.527 546.897 160.702C549.663 154.641 553.091 148.903 556.046 142.967C559.268 136.816 561.958 130.373 564.083 123.716C565.902 116.904 566.778 109.852 566.684 102.777C566.684 102.678 566.721 102.583 566.787 102.513C566.854 102.443 566.944 102.404 567.038 102.404C567.132 102.404 567.222 102.443 567.289 102.513C567.355 102.583 567.393 102.678 567.393 102.777C569.757 113.085 566.565 124.909 562.665 134.621C564.107 133.18 565.667 131.839 566.967 130.323C571.695 124.958 574.059 118.351 576.423 111.744C576.44 111.648 576.475 111.556 576.526 111.474C576.577 111.392 576.643 111.321 576.719 111.266C576.796 111.21 576.883 111.171 576.974 111.151C577.065 111.131 577.159 111.13 577.251 111.148C577.342 111.165 577.429 111.202 577.508 111.256C577.586 111.309 577.653 111.378 577.706 111.459C577.758 111.54 577.795 111.63 577.815 111.726C577.834 111.822 577.835 111.921 577.818 112.017Z" fill="black"/>
<path opacity="0.2" d="M628.36 167.682C622.379 168.576 616.54 170.041 610.583 170.414C604.404 170.746 598.208 170.405 592.096 169.396C584.555 168.178 576.967 166.34 569.497 167.16C571.761 166.107 573.963 164.913 576.092 163.583C583.531 158.852 589.331 151.739 592.64 143.29C592.947 142.445 591.836 142.147 591.387 142.743C588.275 147.644 584.72 152.219 580.773 156.405C575.908 160.509 570.541 163.909 564.816 166.514C560.521 168.514 556.72 171.523 553.705 175.307C552.925 176.375 549.19 181.84 551.483 183.007C551.54 183.045 551.605 183.065 551.672 183.065C551.739 183.065 551.805 183.045 551.861 183.007L552.003 182.834C552.032 182.813 552.056 182.786 552.073 182.753C552.089 182.721 552.098 182.684 552.098 182.647C552.098 182.61 552.089 182.574 552.073 182.542C552.056 182.509 552.032 182.481 552.003 182.461C553.146 180.12 554.5 177.899 556.045 175.829C557.734 174.081 559.624 172.562 561.672 171.308C562.688 170.662 563.752 170.091 564.839 169.52C575.028 167.458 585.453 171.358 595.571 172.649C606.186 173.991 618.786 173.867 628.809 169.47C628.921 169.439 629.026 169.385 629.118 169.312C629.21 169.238 629.287 169.146 629.345 169.041C629.403 168.936 629.441 168.82 629.457 168.7C629.472 168.58 629.465 168.457 629.436 168.34C629.406 168.222 629.355 168.112 629.285 168.016C629.215 167.919 629.127 167.838 629.028 167.777C628.928 167.716 628.817 167.676 628.703 167.659C628.588 167.643 628.472 167.651 628.36 167.682Z" fill="black"/>
<path opacity="0.2" d="M495.763 182.213C492.761 177.617 487.868 175.034 483.471 172.153C477.427 168.597 472.847 162.821 470.611 155.933C470.398 155.312 469.334 155.337 469.429 156.107C471.131 170.687 485.48 174.86 494.889 182.933C495.338 183.33 496.165 182.908 495.763 182.213Z" fill="black"/>
<path opacity="0.2" d="M433.472 172.972C431.345 167.408 426.215 163.484 422.078 159.659C419.662 157.551 417.466 155.177 415.53 152.579C413.167 148.738 411.351 144.554 410.14 140.16C410.112 140.058 410.046 139.971 409.957 139.92C409.869 139.869 409.764 139.857 409.667 139.887C409.57 139.916 409.488 139.985 409.439 140.078C409.39 140.172 409.379 140.281 409.407 140.383C410.613 147.305 413.71 153.709 418.319 158.814C423.047 163.782 428.343 168.005 432.858 173.295C433.094 173.643 433.614 173.37 433.472 172.972Z" fill="black"/>
</g>
<g opacity="0.1">
<path opacity="0.1" d="M619.282 162.167C619.108 162.511 618.837 162.791 618.508 162.969C618.178 163.147 617.804 163.215 617.436 163.164C617.068 163.112 616.725 162.944 616.45 162.682C616.176 162.419 615.985 162.075 615.902 161.695C615.89 161.555 615.89 161.414 615.902 161.273C615.823 160.74 615.93 160.195 616.204 159.738C616.478 159.282 616.899 158.945 617.391 158.789C618.999 158.367 620.157 160.553 619.282 162.167Z" fill="black"/>
<path opacity="0.1" d="M450.989 120.487V120.338C451.035 120.136 451.031 119.925 450.977 119.725C450.923 119.525 450.822 119.343 450.682 119.196C450.617 119.119 450.536 119.059 450.446 119.022C450.338 118.924 450.21 118.854 450.072 118.818C449.934 118.782 449.79 118.781 449.652 118.814C449.513 118.848 449.384 118.916 449.276 119.013C449.167 119.109 449.082 119.232 449.027 119.369C448.531 120.462 449.736 121.853 450.635 120.984C450.741 120.886 450.829 120.768 450.895 120.636V120.512L450.989 120.487Z" fill="black"/>
<path opacity="0.1" d="M558.362 111.669V111.52C558.263 111.334 558.119 111.179 557.944 111.07C557.77 110.961 557.572 110.902 557.369 110.899H557.085C556.943 110.911 556.804 110.958 556.682 111.036C556.561 111.115 556.458 111.224 556.384 111.352C556.31 111.481 556.267 111.627 556.257 111.777C556.247 111.927 556.272 112.078 556.329 112.216C556.707 113.358 558.527 113.482 558.551 112.216C558.575 112.076 558.575 111.933 558.551 111.793C558.551 111.793 558.362 111.694 558.362 111.669Z" fill="black"/>
<path opacity="0.1" d="M451.509 113.557C451.339 113.478 451.147 113.47 450.971 113.534C450.795 113.599 450.65 113.731 450.564 113.905C450.505 114.056 450.505 114.225 450.564 114.377C450.568 114.549 450.629 114.715 450.736 114.845C450.843 114.976 450.99 115.063 451.152 115.092C451.314 115.122 451.48 115.091 451.623 115.006C451.766 114.921 451.876 114.786 451.935 114.625C451.996 114.423 451.987 114.204 451.909 114.009C451.831 113.813 451.689 113.653 451.509 113.557Z" fill="black"/>
<path opacity="0.1" d="M489.428 91.9965C489.346 91.9547 489.257 91.9306 489.166 91.9255C489.074 91.9204 488.983 91.9344 488.897 91.9668C488.812 91.9992 488.733 92.0492 488.665 92.1141C488.598 92.1789 488.544 92.2572 488.506 92.3443C488.477 92.415 488.463 92.491 488.463 92.5678C488.463 92.6446 488.477 92.7207 488.506 92.7914C488.472 92.9791 488.509 93.1735 488.611 93.3319C488.713 93.4903 488.871 93.5997 489.05 93.6359C489.228 93.6721 489.413 93.6323 489.564 93.5251C489.715 93.418 489.819 93.2523 489.853 93.0646C489.932 92.8636 489.931 92.6384 489.851 92.4381C489.771 92.2379 489.619 92.079 489.428 91.9965Z" fill="black"/>
<path opacity="0.1" d="M561.861 105.161C561.775 105.192 561.696 105.24 561.628 105.303C561.561 105.366 561.505 105.442 561.466 105.528C561.426 105.613 561.403 105.706 561.398 105.801C561.393 105.896 561.405 105.991 561.435 106.08C561.444 106.161 561.473 106.237 561.519 106.302C561.564 106.368 561.625 106.419 561.695 106.453C561.799 106.611 561.958 106.719 562.137 106.754C562.317 106.789 562.502 106.748 562.653 106.639C562.803 106.531 562.906 106.363 562.939 106.175C562.973 105.986 562.933 105.791 562.83 105.633C562.756 105.44 562.614 105.283 562.434 105.196C562.254 105.108 562.049 105.096 561.861 105.161Z" fill="black"/>
</g>
<path d="M300.19 187.876H9.15889C5.54707 182.78 2.76692 177.089 0.93219 171.035C-1.55 161.72 0.74307 149.35 10.0099 145.103C15.9672 142.37 22.3736 144.631 28.52 144.805C29.4445 144.977 30.3963 144.875 31.2689 144.511C32.1415 144.147 32.9004 143.534 33.4608 142.743C34.1332 141.417 34.3021 139.873 33.9336 138.421C33.1298 135.092 30.1039 132.981 27.5744 131.168C27.4764 131.105 27.3932 131.02 27.3311 130.919C27.269 130.818 27.2296 130.703 27.2159 130.583C27.2023 130.464 27.2147 130.342 27.2522 130.228C27.2897 130.114 27.3514 130.011 27.4326 129.926C30.0441 127.617 33.3266 126.312 36.7387 126.226C40.1509 126.14 43.489 127.279 46.2027 129.454C49.3704 125.902 47.9993 120.537 45.919 116.662C43.8387 112.787 40.1036 109.359 37.5268 105.434C35.3073 102.43 34.2973 98.631 34.7137 94.8529C35.5901 91.0004 37.776 87.6172 40.8601 85.3395C45.8481 81.1665 54.453 76.4471 60.3394 81.4149C66.7458 86.8299 62.7034 96.9642 66.8404 103.571C67.3464 104.544 68.0563 105.382 68.9164 106.023C69.7765 106.665 70.7643 107.092 71.8047 107.272C72.7547 107.209 73.6732 106.89 74.4721 106.346C75.271 105.803 75.9236 105.052 76.3673 104.168C77.8566 101.932 79.0622 99.1998 81.6153 98.3304C80.9061 91.5493 79.2513 84.9172 78.6367 78.1361C77.7384 68.3495 79.8187 55.6566 89.582 51.4836C91.4558 50.6522 93.4729 50.2363 95.5068 50.262C97.5407 50.2876 99.5476 50.7543 101.402 51.6327C103.291 52.7397 104.86 54.3631 105.942 56.331C107.024 58.2989 107.579 60.5378 107.548 62.8103C107.808 68.5978 105.917 74.3109 106.579 80.1978C106.981 83.7498 108.636 87.4757 112.678 86.656C115.408 85.8015 117.937 84.3545 120.101 82.4085C123.08 80.2226 128.21 77.838 131.354 81.0423C133.198 82.9301 132.938 86.0102 134.545 87.9725C135.429 88.8684 136.486 89.554 137.645 89.9826C138.803 90.4112 140.036 90.5728 141.259 90.4564C146.129 90.4564 150.715 89.2889 155.727 89.736C160.375 90.0644 164.897 91.4727 168.965 93.8593C172.859 96.1842 175.966 99.7267 177.854 103.994C179.508 107.72 182.345 116.413 187.664 112.538C189.735 110.59 191.401 108.214 192.558 105.559C193.929 103.075 195.3 100.715 196.813 98.3801C199.443 93.9302 203.051 90.2079 207.333 87.5254C211.703 85.0821 216.755 84.3404 221.595 85.4312C226.435 86.522 230.753 89.3752 233.786 93.4868C236.745 97.6816 238.225 102.827 237.97 108.043C237.663 114.078 233.762 119.146 233.502 125.132C233.361 126.549 233.573 127.981 234.116 129.287C234.658 130.593 235.514 131.729 236.599 132.584C239.577 134.447 243.289 132.758 246.362 132.012C249.435 131.267 254.825 131.64 256.22 135.589C256.449 136.443 256.474 137.344 256.293 138.21C256.111 139.077 255.729 139.883 255.18 140.557C254.518 141.501 253.714 142.321 253.147 143.314C252.367 144.73 252.509 145.326 253.738 146.196C257.355 148.68 262.248 147.835 266.362 148.232C290.545 150.865 299.103 180.772 300.19 187.876Z" fill="#F7F2EC"/>
<g opacity="0.2">
<path opacity="0.2" d="M94.4516 137.854C90.9056 154.744 87.3596 171.337 91.5439 187.781H88.2107C86.9578 184.527 85.8467 181.248 84.5701 177.969C72.6083 172.107 59.7246 176.826 47.0772 175.187C36.748 174.028 27.2201 168.8 20.4113 160.557C20.3601 160.503 20.3195 160.439 20.2917 160.369C20.264 160.298 20.2498 160.223 20.2498 160.147C20.2498 160.071 20.264 159.995 20.2917 159.925C20.3195 159.855 20.3601 159.791 20.4113 159.737C20.4625 159.683 20.5234 159.641 20.5903 159.611C20.6572 159.582 20.7289 159.567 20.8014 159.567C20.8738 159.567 20.9456 159.582 21.0125 159.611C21.0794 159.641 21.1402 159.683 21.1914 159.737C26.4456 164.318 32.4112 167.914 38.8268 170.368C37.4794 168.704 36.2028 166.99 34.7371 165.4C32.6095 163.14 30.2692 161.203 27.9761 159.116C27.8343 159.116 27.9761 158.793 28.1652 158.893C30.7062 160.626 33.0813 162.614 35.2572 164.829C37.3311 166.682 39.2095 168.764 40.8599 171.039C45.039 172.307 49.3703 172.934 53.72 172.902C63.6488 172.902 74.7359 170.567 83.7191 175.858C82.9626 173.871 82.1825 171.883 81.3551 169.946C77.8334 161.761 73.7322 153.864 69.086 146.324C64.2691 138.992 60.0464 131.248 56.4622 123.174C53.3933 115.218 51.3655 106.863 50.4341 98.3346C50.4341 97.9123 51.025 97.6887 51.096 98.1607C53.6491 113.064 60.5519 126.005 68.0695 138.649C65.7055 131.346 63.8615 123.894 60.9775 116.765C60.7647 116.244 61.4503 115.796 61.7103 116.318C65.7528 124.888 70.1025 134.451 71.3318 144.039C71.8282 144.883 72.3483 145.728 72.8684 146.523C78.2541 155.471 82.8212 164.936 86.5086 174.79C86.4136 164.269 87.6296 153.781 90.1255 143.592C92.692 132.812 94.2751 121.8 94.8535 110.705C94.8535 109.711 94.8535 108.742 94.8535 107.749C88.9967 94.9888 86.5456 80.798 87.7615 66.6894C87.7615 65.7952 89.109 65.7455 89.109 66.6894C88.9898 74.3348 89.5358 81.9757 90.7402 89.5167C91.7043 94.5933 93.0642 99.5779 94.8062 104.42C94.4525 95.5489 93.6635 86.7026 92.4422 77.9167C92.4422 77.1467 93.4824 77.0474 93.6715 77.718C98.6751 97.3849 98.9432 118.051 94.4516 137.854Z" fill="black"/>
<path opacity="0.2" d="M159.13 115.196C156.915 119.841 154.429 124.338 151.684 128.659C151.029 132.319 150.039 135.905 148.729 139.365C146.954 144.072 144.329 148.374 140.999 152.033C137.003 156.479 133.008 160.329 131.85 166.266C135.263 172.943 137.224 180.332 137.594 187.901H135.23C133.174 174.214 126.555 163.062 120.597 150.642C115.349 139.688 111 125.455 116.2 113.582C116.508 112.911 117.453 113.408 117.311 114.079C113.742 129.901 120.101 143.19 127.122 156.827C128.209 158.938 129.321 161.099 130.408 163.31C131.083 160.574 132.327 158.029 134.048 155.858C137.618 151.139 141.826 147.313 144.545 141.874C150.502 129.926 149.556 117.034 151.235 104.068C151.235 103.373 152.228 103.671 152.299 104.217C153.185 111.174 153.185 118.225 152.299 125.182C153.989 121.529 155.941 118.016 158.138 114.675C158.229 114.6 158.339 114.553 158.455 114.541C158.57 114.529 158.687 114.551 158.791 114.606C158.895 114.661 158.982 114.745 159.042 114.85C159.102 114.954 159.133 115.074 159.13 115.196Z" fill="black"/>
<path opacity="0.2" d="M221.351 106.801C220.19 113.504 217.515 119.816 213.55 125.206C210.524 129.404 205.796 132.087 202.841 136.235C200.311 141.799 197.451 147.164 194.567 152.505C191.683 157.845 185.867 165.843 188.562 172.649C188.704 172.997 188.562 173.221 188.16 173.245C191.422 177.363 193.219 182.544 193.243 187.901H191.777C190.193 168.029 163.409 162.863 163.149 142.395C163.149 141.476 164.568 141.228 164.733 142.172C166.719 153.275 174.969 159.559 182.392 166.738C183.974 168.238 185.459 169.848 186.836 171.556C184.969 167.433 186.316 162.912 188.184 158.814C191.139 152.356 194.803 146.22 197.971 139.862C201.408 133.288 204.28 126.405 206.552 119.295C208.503 112.023 209.442 104.494 209.342 96.9395C209.342 96.4924 210.004 96.3681 210.098 96.8152C212.604 107.869 209.223 120.487 205.086 130.87C206.623 129.33 208.301 127.889 209.696 126.275C214.637 120.537 217.166 113.482 219.885 106.403C219.935 106.199 220.061 106.024 220.233 105.917C220.406 105.81 220.613 105.779 220.807 105.832C221.001 105.885 221.168 106.016 221.27 106.198C221.372 106.38 221.401 106.596 221.351 106.801Z" fill="black"/>
<path opacity="0.2" d="M275.368 166.291C268.985 167.259 262.815 168.775 256.456 169.197C249.851 169.562 243.227 169.204 236.693 168.129C228.632 166.837 220.523 164.85 212.533 165.645C214.967 164.52 217.336 163.243 219.625 161.82C227.61 156.77 233.841 149.16 237.402 140.11C237.733 139.216 236.527 138.893 236.078 139.514C232.74 144.76 228.932 149.659 224.707 154.144C219.516 158.537 213.782 162.172 207.663 164.949C203.098 167.1 199.057 170.31 195.843 174.338C195.016 175.481 191.115 181.318 193.479 182.56C193.537 182.607 193.607 182.632 193.68 182.632C193.752 182.632 193.823 182.607 193.881 182.56L194.023 182.386C194.057 182.368 194.087 182.339 194.107 182.304C194.127 182.269 194.138 182.229 194.138 182.188C194.138 182.147 194.127 182.106 194.107 182.071C194.087 182.036 194.057 182.008 194.023 181.989C193.503 181.989 198.278 174.959 198.349 174.885C200.147 173.017 202.165 171.397 204.353 170.066C205.464 169.371 206.717 168.75 207.734 168.154C218.632 165.943 229.766 170.116 240.593 171.482C251.941 172.923 265.415 172.774 276.053 168.104C276.282 168.008 276.466 167.821 276.563 167.584C276.661 167.346 276.664 167.078 276.573 166.837C276.482 166.597 276.304 166.404 276.078 166.301C275.852 166.199 275.597 166.195 275.368 166.291Z" fill="black"/>
<path opacity="0.2" d="M133.647 181.815C130.432 176.847 125.183 174.14 120.479 171.06C114.016 167.243 109.124 161.05 106.744 153.672C106.532 153.002 105.397 153.051 105.491 153.846C107.312 169.445 122.63 173.916 132.677 182.535C133.174 182.908 134.048 182.461 133.647 181.815Z" fill="black"/>
<path opacity="0.2" d="M67.0527 171.979C64.6887 166.042 59.2988 161.844 54.8545 157.721C52.2423 155.512 49.8646 153.014 47.7625 150.269C45.2304 146.187 43.2867 141.734 41.9943 137.055C41.95 136.964 41.8775 136.892 41.7889 136.85C41.7002 136.809 41.6007 136.801 41.5068 136.827C41.413 136.853 41.3304 136.912 41.2729 136.994C41.2154 137.076 41.1863 137.177 41.1906 137.278C42.4802 144.661 45.7626 151.498 50.6466 156.976C55.7764 162.316 61.3555 166.912 66.2016 172.476C66.6508 172.674 67.2182 172.376 67.0527 171.979Z" fill="black"/>
</g>
<g opacity="0.1">
<path opacity="0.1" d="M80.8355 112.812C80.6473 113.175 80.3581 113.47 80.0065 113.657C79.6548 113.843 79.2574 113.913 78.8672 113.856C78.4769 113.8 78.1124 113.619 77.8221 113.34C77.5318 113.06 77.3295 112.694 77.2422 112.29C77.2197 112.142 77.2197 111.991 77.2422 111.843C77.1318 111.454 77.1318 111.04 77.2422 110.651C77.3455 110.29 77.5377 109.965 77.7992 109.707C78.0607 109.45 78.3824 109.27 78.7315 109.185C80.67 108.738 81.7811 111.098 80.8355 112.812Z" fill="black"/>
<path opacity="0.1" d="M85.7761 115.842V115.668C85.8278 115.451 85.8267 115.223 85.773 115.006C85.7193 114.789 85.6147 114.59 85.4688 114.426L85.2088 114.228C85.0917 114.126 84.9537 114.055 84.8057 114.02C84.6578 113.985 84.504 113.986 84.3568 114.025C84.2097 114.064 84.0732 114.138 83.9584 114.242C83.8435 114.347 83.7536 114.478 83.6958 114.625C83.1521 115.793 84.4523 117.332 85.3979 116.364C85.5056 116.248 85.5935 116.113 85.6579 115.966L85.7761 115.842Z" fill="black"/>
<path opacity="0.1" d="M200.548 106.428V106.254C200.437 106.064 200.285 105.905 200.104 105.788C199.923 105.672 199.719 105.601 199.508 105.584C199.406 105.561 199.302 105.561 199.2 105.584C199.047 105.59 198.897 105.636 198.764 105.717C198.631 105.799 198.519 105.913 198.437 106.05C198.356 106.187 198.307 106.343 198.296 106.504C198.285 106.665 198.311 106.826 198.373 106.975C198.799 108.192 200.737 108.341 200.737 106.975C200.76 106.826 200.76 106.676 200.737 106.527C200.737 106.527 200.548 106.453 200.548 106.428Z" fill="black"/>
<path opacity="0.1" d="M86.3195 108.39C86.1404 108.305 85.9365 108.295 85.7511 108.365C85.5657 108.435 85.4134 108.577 85.3266 108.763C85.2931 108.837 85.2756 108.917 85.2756 108.999C85.2756 109.081 85.2931 109.161 85.3266 109.235C85.308 109.334 85.3082 109.437 85.3272 109.536C85.3462 109.636 85.3837 109.73 85.4375 109.814C85.4913 109.898 85.5603 109.971 85.6407 110.027C85.721 110.083 85.8111 110.122 85.9058 110.142C86.0005 110.161 86.0979 110.161 86.1925 110.141C86.2871 110.121 86.3771 110.082 86.4572 110.025C86.5373 109.969 86.606 109.896 86.6595 109.812C86.7129 109.727 86.75 109.632 86.7687 109.533C86.8482 109.318 86.8459 109.08 86.7623 108.867C86.6786 108.654 86.52 108.483 86.3195 108.39Z" fill="black"/>
<path opacity="0.1" d="M126.863 85.3892C126.684 85.3034 126.48 85.2942 126.294 85.3638C126.109 85.4334 125.957 85.5762 125.87 85.7618C125.836 85.8355 125.819 85.9161 125.819 85.9977C125.819 86.0794 125.836 86.1601 125.87 86.2337C125.84 86.4325 125.886 86.6356 125.997 86.7995C126.108 86.9634 126.275 87.0751 126.464 87.1108C126.652 87.1465 126.846 87.1034 127.005 86.9905C127.163 86.8777 127.274 86.7041 127.312 86.507C127.39 86.2959 127.387 86.0609 127.304 85.8521C127.22 85.6433 127.061 85.4772 126.863 85.3892Z" fill="black"/>
<path opacity="0.1" d="M204.284 99.4482C204.104 99.5258 203.957 99.6692 203.87 99.8519C203.783 100.035 203.762 100.244 203.811 100.442C203.857 100.605 203.958 100.746 204.094 100.839C204.219 100.967 204.381 101.046 204.555 101.063C204.728 101.08 204.902 101.033 205.046 100.931C205.191 100.829 205.297 100.677 205.348 100.502C205.398 100.327 205.39 100.139 205.324 99.9698C205.24 99.7652 205.088 99.5995 204.897 99.5036C204.706 99.4076 204.488 99.388 204.284 99.4482Z" fill="black"/>
</g>
<path d="M550.632 187.876H947.783C952.73 180.932 956.533 173.165 959.036 164.9C962.392 152.182 959.272 135.316 946.648 129.479C938.516 125.753 929.769 128.858 921.354 129.081C920.093 129.316 918.796 129.177 917.606 128.682C916.416 128.186 915.381 127.353 914.616 126.275C913.71 124.456 913.49 122.344 914.002 120.363C915.065 115.842 919.226 112.911 922.677 110.427C922.809 110.34 922.92 110.224 923.003 110.086C923.085 109.948 923.138 109.792 923.156 109.63C923.174 109.468 923.158 109.304 923.107 109.15C923.057 108.995 922.975 108.855 922.867 108.738C919.297 105.584 914.812 103.801 910.15 103.684C905.487 103.566 900.926 105.121 897.217 108.092C892.915 103.124 894.853 95.9211 897.619 90.7048C900.669 85.0166 905.562 80.7691 909.084 75.379C912.112 71.2814 913.495 66.102 912.938 60.9474C911.738 55.6749 908.745 51.0455 904.522 47.9317C897.714 42.2435 885.988 35.7853 877.927 42.5913C869.204 50.043 874.783 63.8039 869.062 72.8205C868.363 74.1345 867.389 75.2645 866.214 76.1251C865.039 76.9857 863.692 77.5544 862.277 77.7884C860.988 77.7106 859.738 77.286 858.65 76.5553C857.561 75.8246 856.669 74.8123 856.06 73.6154C854.003 70.585 852.372 66.9337 848.968 65.6421C849.914 56.4019 852.183 47.3604 853.034 38.0954C854.24 24.7319 851.403 7.39404 838.07 1.70586C835.495 0.543855 832.717 -0.0367135 829.915 0.00179791C827.113 0.0403094 824.351 0.697108 821.806 1.92948C819.22 3.42598 817.07 5.63375 815.588 8.31613C814.105 10.9985 813.345 14.0543 813.39 17.1559C813.059 25.0796 815.612 32.8543 814.714 40.778C814.146 45.6216 811.901 50.7136 806.392 49.5959C802.666 48.4144 799.214 46.4355 796.251 43.7835C792.185 40.8276 785.187 37.5489 780.909 41.9206C778.403 44.4045 778.734 48.6024 776.559 51.3595C775.347 52.578 773.903 53.5116 772.321 54.0984C770.74 54.6851 769.058 54.9115 767.387 54.7625C760.744 54.7625 754.314 53.1479 747.624 53.744C741.284 54.2145 735.119 56.1391 729.563 59.3825C724.245 62.5593 719.999 67.3941 717.412 73.218C715.19 78.1858 711.289 90.1087 704.055 84.8925C701.006 82.7066 699.327 78.6081 697.365 75.3542C695.403 72.1003 693.63 68.747 691.573 65.5675C687.99 59.4599 683.06 54.3481 677.2 50.664C671.238 47.3881 664.37 46.4191 657.797 47.9267C651.224 49.4342 645.364 53.3223 641.244 58.9106C637.213 64.6429 635.192 71.6631 635.523 78.782C635.972 87.0286 641.291 93.9588 641.622 102.106C641.788 105.882 640.747 110.377 637.414 112.414C633.348 114.898 628.289 112.663 624.081 111.644C619.873 110.626 612.521 111.147 610.63 116.612C610.303 117.802 610.264 119.059 610.516 120.269C610.768 121.479 611.303 122.604 612.072 123.542C612.947 124.809 614.034 126.026 614.814 127.293C615.902 129.206 615.689 130.025 614.011 131.193C609.07 134.695 602.403 133.428 596.777 134C563.799 137.328 552.121 178.189 550.632 187.876Z" fill="#F7F2EC"/>
<g opacity="0.2">
<path opacity="0.2" d="M831.474 119.767C836.202 142.818 841.12 165.471 835.422 187.901H839.985C841.663 183.455 843.271 178.959 844.949 174.512C861.261 166.489 878.873 172.948 896.106 170.712C909.581 168.973 923.93 162.093 932.488 150.841C932.629 150.696 932.709 150.498 932.712 150.291C932.714 150.083 932.638 149.883 932.5 149.735C932.362 149.587 932.173 149.502 931.976 149.5C931.779 149.498 931.589 149.578 931.448 149.723C924.278 155.967 916.137 160.866 907.382 164.204C909.203 161.944 910.952 159.584 912.938 157.448C915.845 154.343 919.06 151.735 922.181 148.878C922.37 148.729 922.181 148.431 921.945 148.555C918.447 150.914 915.177 153.626 912.181 156.653C909.364 159.191 906.805 162.03 904.546 165.123C898.844 166.842 892.935 167.678 887.005 167.607C873.435 167.607 858.282 164.403 846.013 171.656C847.053 168.948 848.117 166.241 849.252 163.583C854.067 152.397 859.67 141.603 866.012 131.292C872.61 121.26 878.398 110.667 883.317 99.6222C887.496 88.7872 890.255 77.4063 891.52 65.7911C891.52 65.195 890.74 64.9218 890.645 65.5427C887.147 85.9606 877.714 103.572 867.478 120.81C870.622 110.874 873.199 100.665 877.194 91.0029C877.478 90.3074 876.532 89.6865 876.178 90.4068C870.646 102.081 864.736 115.246 863.057 128.237L860.953 131.69C853.607 143.906 847.37 156.821 842.325 170.265C843.011 155.908 840.103 140.83 837.337 127.666C834.193 112.762 831.143 98.0821 830.718 82.7812C830.718 81.4398 830.718 80.0985 830.718 78.7572C838.704 61.3324 842.03 41.9535 840.339 22.6951C840.339 22.4382 840.242 22.1918 840.069 22.0101C839.897 21.8285 839.662 21.7263 839.417 21.7263C839.173 21.7263 838.938 21.8285 838.766 22.0101C838.593 22.1918 838.496 22.4382 838.496 22.6951C838.662 33.1347 837.926 43.5685 836.297 53.8683C834.95 60.7419 833.093 67.494 830.742 74.0626C831.204 61.9507 832.253 49.8714 833.886 37.8718C834.004 36.8534 832.467 36.7044 832.231 37.6235C824.926 64.7479 825.73 92.4436 831.474 119.767Z" fill="black"/>
<path opacity="0.2" d="M743.179 88.668C746.204 95.0088 749.599 101.147 753.344 107.049C754.231 112.051 755.577 116.95 757.363 121.679C759.788 128.129 763.367 134.032 767.906 139.067C773.367 145.128 778.828 150.369 780.412 158.491C776.109 167.855 772.611 177.791 772.563 188H775.826C778.615 169.321 787.646 154.045 795.801 137.005C802.893 122.102 808.898 102.628 801.806 86.4324C801.404 85.4885 800.08 86.184 800.293 87.1031C805.021 108.713 796.487 126.846 786.889 145.475C785.423 148.332 783.887 151.288 782.398 154.318C781.498 150.565 779.801 147.074 777.433 144.109C772.563 137.651 766.819 132.435 763.131 125.033C754.975 108.713 756.275 91.0526 753.982 73.4167C753.864 72.448 752.611 72.8702 752.517 73.6403C751.299 83.1273 751.299 92.7431 752.517 102.23C750.202 97.2523 747.539 92.4618 744.55 87.8979C744.424 87.779 744.265 87.7037 744.097 87.6824C743.928 87.6611 743.758 87.6948 743.608 87.7789C743.458 87.8629 743.337 87.9933 743.26 88.1523C743.183 88.3114 743.155 88.4914 743.179 88.668Z" fill="black"/>
<path opacity="0.2" d="M658.265 77.1923C659.834 86.3486 663.484 94.9717 668.903 102.33C673.04 108.067 679.47 111.719 683.512 117.382C686.964 124.983 690.888 132.286 694.812 139.588C698.996 147.338 706.632 157.796 702.991 167.085C702.956 167.177 702.943 167.277 702.954 167.376C702.964 167.474 702.998 167.569 703.052 167.65C703.106 167.732 703.178 167.798 703.263 167.842C703.347 167.887 703.441 167.908 703.535 167.905C699.099 173.53 696.652 180.595 696.609 187.901H698.547C700.698 160.876 737.293 153.722 737.6 125.803C737.6 124.536 735.686 124.213 735.449 125.505C732.754 140.657 721.478 149.152 711.336 159.013C709.197 161.071 707.183 163.269 705.308 165.595C707.838 159.957 705.994 153.796 703.464 148.208C699.422 139.39 694.434 130.994 690.084 122.325C685.364 113.353 681.409 103.961 678.264 94.2568C675.597 84.3196 674.315 74.0285 674.458 63.7046C674.458 63.1085 673.56 62.9346 673.418 63.5556C670.014 78.6082 674.624 95.8465 680.274 110.005C678.146 107.918 675.876 105.956 673.985 103.77C667.224 95.9211 663.773 86.3828 660.085 76.6458C659.968 76.461 659.799 76.32 659.601 76.2433C659.403 76.1665 659.187 76.1579 658.984 76.2188C658.782 76.2797 658.602 76.4068 658.473 76.5819C658.344 76.7569 658.271 76.9707 658.265 77.1923Z" fill="black"/>
<path opacity="0.2" d="M584.531 158.392C593.231 159.708 601.647 161.869 610.535 162.366C619.55 162.868 628.589 162.385 637.508 160.925C648.525 159.137 659.588 156.429 670.604 157.647C667.295 156.107 664.075 154.365 660.959 152.43C650.723 145.823 640.865 134.819 636.681 122.822C636.256 121.605 637.887 121.133 638.501 122.002C643.56 128.957 647.721 136.037 654.009 141.874C660.959 148.431 669.044 152.257 677.271 156.628C683.535 159.559 689.087 163.941 693.511 169.445C694.623 171.035 700.083 178.959 696.75 180.673C696.668 180.737 696.569 180.772 696.466 180.772C696.364 180.772 696.265 180.737 696.183 180.673L695.994 180.424C695.96 180.385 695.935 180.338 695.922 180.287C695.909 180.236 695.909 180.182 695.921 180.13C695.932 180.079 695.956 180.031 695.989 179.991C696.022 179.952 696.065 179.921 696.112 179.903C696.845 179.778 690.32 170.315 690.202 170.19C687.747 167.654 684.999 165.451 682.023 163.633C680.51 162.689 678.973 161.844 677.295 161.025C662.449 158.019 647.225 163.707 632.379 165.57C616.918 167.533 598.526 167.334 583.893 160.95C583.57 160.861 583.294 160.641 583.126 160.338C582.957 160.036 582.91 159.675 582.995 159.336C583.079 158.996 583.289 158.706 583.577 158.529C583.865 158.352 584.209 158.303 584.531 158.392Z" fill="black"/>
<path opacity="0.2" d="M778.048 179.604C782.421 172.898 789.584 169.122 795.991 164.925C805.092 158.938 811.215 152.058 814.737 141.253C815.045 140.334 816.581 140.408 816.463 141.501C813.981 162.763 793.059 168.824 779.348 180.648C778.592 181.219 777.386 180.424 778.048 179.604Z" fill="black"/>
<path opacity="0.2" d="M868.849 166.166C871.969 158.044 879.44 152.331 885.397 146.717C888.887 143.633 892.057 140.17 894.853 136.384C898.313 130.816 900.966 124.739 902.725 118.351C902.776 118.212 902.874 118.098 903.001 118.032C903.127 117.965 903.273 117.95 903.409 117.991C903.545 118.031 903.662 118.124 903.737 118.25C903.811 118.377 903.838 118.528 903.812 118.674C901.448 128.883 897.997 138.073 890.811 145.55C883.624 153.026 876.177 158.988 869.535 166.713C869.393 167.11 868.636 166.688 868.849 166.166Z" fill="black"/>
</g>
<g opacity="0.1">
<path opacity="0.1" d="M850.032 85.4141C850.288 85.9142 850.684 86.3199 851.166 86.5768C851.648 86.8336 852.194 86.9293 852.729 86.8509C853.264 86.7724 853.764 86.5237 854.161 86.1381C854.558 85.7525 854.833 85.2484 854.949 84.6937C854.96 84.4952 854.96 84.2961 854.949 84.0976C855.045 83.554 854.988 82.9927 854.784 82.4831C854.653 81.9856 854.398 81.5341 854.044 81.1758C853.691 80.8175 853.252 80.5656 852.774 80.4462C850.434 79.8501 848.755 83.0792 850.032 85.4141Z" fill="black"/>
<path opacity="0.1" d="M843.294 89.5623C843.281 89.4801 843.281 89.3961 843.294 89.3139C843.226 89.0134 843.23 88.7 843.304 88.4012C843.378 88.1024 843.521 87.8273 843.72 87.6C843.824 87.4976 843.944 87.4137 844.074 87.3516C844.231 87.2093 844.417 87.1082 844.618 87.0569C844.819 87.0056 845.029 87.0054 845.23 87.0565C845.432 87.1075 845.618 87.2082 845.775 87.3503C845.931 87.4923 846.054 87.6716 846.131 87.8732C846.864 89.4877 845.114 91.599 843.767 90.3571C843.628 90.1912 843.508 90.0076 843.412 89.8106C843.366 89.7936 843.327 89.7582 843.305 89.7118C843.283 89.6654 843.279 89.6117 843.294 89.5623Z" fill="black"/>
<path opacity="0.1" d="M686.656 76.6955C686.647 76.6213 686.647 76.5462 686.656 76.4719C686.803 76.21 687.009 75.9909 687.257 75.8347C687.505 75.6784 687.786 75.5901 688.075 75.5778H688.5C688.707 75.5966 688.907 75.6661 689.083 75.781C689.26 75.8958 689.408 76.0527 689.516 76.2388C689.624 76.425 689.689 76.6353 689.706 76.8527C689.722 77.0701 689.69 77.2885 689.611 77.4904C689.068 79.1546 686.396 79.3781 686.373 77.4904C686.327 77.2778 686.327 77.0571 686.373 76.8445L686.656 76.6955Z" fill="black"/>
<path opacity="0.1" d="M842.561 79.4527C842.807 79.3379 843.086 79.3253 843.34 79.4175C843.594 79.5097 843.806 79.6997 843.932 79.9494C843.979 80.0545 844.003 80.1689 844.003 80.2848C844.003 80.4006 843.979 80.5151 843.932 80.6201C843.928 80.8672 843.843 81.105 843.69 81.2932C843.538 81.4814 843.328 81.6083 843.097 81.6523C842.866 81.6962 842.627 81.6544 842.421 81.5342C842.216 81.4139 842.057 81.2226 841.97 80.9927C841.865 80.7051 841.867 80.3862 841.977 80.1003C842.087 79.8145 842.296 79.5831 842.561 79.4527Z" fill="black"/>
<path opacity="0.1" d="M787.22 47.9813C787.463 47.8678 787.738 47.856 787.988 47.9484C788.239 48.0407 788.446 48.2303 788.568 48.4781C788.614 48.5832 788.639 48.6976 788.639 48.8135C788.639 48.9293 788.614 49.0437 788.568 49.1488C788.564 49.3958 788.478 49.6337 788.326 49.8219C788.173 50.0101 787.964 50.137 787.732 50.1809C787.501 50.2249 787.262 50.1831 787.057 50.0629C786.851 49.9426 786.692 49.7512 786.606 49.5213C786.502 49.2307 786.508 48.9094 786.622 48.6232C786.736 48.3369 786.95 48.1073 787.22 47.9813Z" fill="black"/>
<path opacity="0.1" d="M681.55 67.1572C681.798 67.2628 681.999 67.4604 682.117 67.7124C682.235 67.9643 682.26 68.2531 682.188 68.5234C682.162 68.6391 682.112 68.7476 682.043 68.8418C681.974 68.9359 681.886 69.0137 681.786 69.0699C681.62 69.2531 681.397 69.368 681.157 69.3941C680.917 69.4203 680.676 69.356 680.477 69.2127C680.278 69.0693 680.134 68.8564 680.071 68.6118C680.007 68.3672 680.029 68.1069 680.132 67.8776C680.25 67.602 680.457 67.3789 680.717 67.2472C680.976 67.1156 681.271 67.0837 681.55 67.1572Z" fill="black"/>
</g>
</svg>
