<svg width="391" height="787" viewBox="0 0 391 787" fill="none" xmlns="http://www.w3.org/2000/svg">
<path d="M386.56 364.62C381.729 306.469 368.303 249.356 346.72 195.143C311.193 107.541 243.198 19.5478 164.851 3.07845C86.5037 -13.3909 53.4081 39.1543 69.8775 90.9152C84.1509 135.461 142.343 172.478 186.575 211.377C230.807 250.276 313.311 344.7 336.211 435.125L380.443 439.987L386.56 364.62Z" fill="#F7F2EC"/>
<g opacity="0.15">
<path opacity="0.15" d="M386.56 364.62C381.729 306.469 368.303 249.356 346.72 195.143C311.193 107.541 243.198 19.5478 164.851 3.07845C86.5035 -13.3909 53.4079 39.1543 69.8772 90.9152C84.1507 135.461 142.342 172.478 186.575 211.377C230.807 250.276 313.31 344.7 336.211 435.125L380.443 439.987L386.56 364.62Z" fill="black"/>
</g>
<path d="M356.21 405.245C354.947 405.246 353.733 404.755 352.826 403.877C351.918 402.999 351.388 401.802 351.347 400.539C343.113 172.164 119.913 44.4873 117.482 43.0756C116.418 42.4007 115.652 41.3447 115.341 40.1237C115.029 38.9027 115.196 37.6091 115.807 36.5071C116.419 35.4052 117.428 34.5782 118.628 34.1956C119.829 33.813 121.13 33.9036 122.266 34.4487C124.619 35.782 352.759 166.204 361.151 399.991C361.193 401.288 360.723 402.55 359.843 403.504C358.962 404.458 357.742 405.027 356.445 405.088L356.21 405.245Z" fill="white"/>
<path d="M421.773 766.63C421.773 766.63 376.129 795.491 304.762 783.178C281.684 780.108 260.18 769.781 243.355 753.69C224.925 734.711 222.023 715.575 216.847 690.165C215.421 679.544 211.788 669.339 206.181 660.207C190.496 639.189 160.38 639.581 134.97 634.091C98.8947 626.248 65.7207 600.368 55.2901 564.998C44.8595 529.628 61.7994 486.572 95.993 472.613L54.0353 445.713C40.9918 438.056 28.9299 428.838 18.1163 418.264C7.32232 407.482 0.873695 393.106 0 377.875C0 355.602 16.5478 335.682 36.9385 326.584C57.8256 318.52 80.4901 316.191 102.581 319.84C124.957 322.577 146.952 327.839 168.145 335.525C173.919 338.132 180.161 339.546 186.496 339.681C194.74 338.222 202.467 334.656 208.926 329.329C256.922 297.959 335.113 300.076 360.836 359.837C364.601 368.62 366.875 378.031 370.953 386.658C385.854 418.891 427.812 409.166 454.947 424.224C463.463 429.617 470.688 436.818 476.11 445.316C481.531 453.814 485.016 463.401 486.317 473.397C491.729 505.238 482.866 541.549 476.985 572.998C471.103 604.446 463.652 633.699 455.104 663.501C448.124 688.126 440.438 712.517 432.282 736.75C430.557 741.77 426.792 763.493 421.773 766.63Z" fill="#F7F2EC"/>
<path d="M450.477 693.067C426.558 627.256 387.277 568.105 335.898 520.531C335.363 519.383 334.409 518.485 333.231 518.021C318.428 504.143 302.904 491.054 286.725 478.808C280.611 436.46 286.03 393.247 302.41 353.719C302.961 352.544 303.023 351.198 302.582 349.977C302.14 348.757 301.232 347.761 300.057 347.21C298.882 346.659 297.536 346.597 296.315 347.038C295.094 347.479 294.099 348.387 293.548 349.563C277.305 387.672 271.069 429.299 275.431 470.495C209.696 423.087 136.773 386.546 59.4473 362.268C58.1899 361.952 56.859 362.134 55.7333 362.778C54.6077 363.421 53.7746 364.475 53.4085 365.719C53.2309 366.342 53.1795 366.994 53.2575 367.637C53.3356 368.28 53.5413 368.902 53.8628 369.464C54.1843 370.027 54.615 370.519 55.1295 370.913C55.6441 371.307 56.2322 371.594 56.8593 371.757C58.8983 372.306 198.025 411.833 313.154 512.923C242.571 500.611 158.42 534.647 154.578 536.451C153.498 536.857 152.597 537.633 152.037 538.642C151.477 539.65 151.294 540.825 151.52 541.956C151.746 543.087 152.367 544.102 153.272 544.817C154.177 545.533 155.307 545.903 156.46 545.862C157.082 545.975 157.72 545.975 158.342 545.862C159.283 545.391 258.178 505.394 328.055 527.118C378.805 573.656 417.688 631.658 441.458 696.282C441.787 697.247 442.411 698.084 443.241 698.675C444.071 699.266 445.066 699.581 446.086 699.576H447.733C448.352 699.344 448.917 698.988 449.394 698.53C449.871 698.072 450.249 697.522 450.506 696.912C450.763 696.303 450.893 695.648 450.888 694.987C450.883 694.326 450.743 693.672 450.477 693.067Z" fill="white"/>
</svg>
