<svg width="1440" height="1024" viewBox="0 0 1440 1024" fill="none" xmlns="http://www.w3.org/2000/svg">
<g clip-path="url(#clip0_219_6570)">
<rect width="1440" height="1024" fill="#FCFBF9"/>
<path d="M1401.56 526.62C1396.73 468.469 1383.3 411.356 1361.72 357.143C1326.19 269.541 1258.2 181.548 1179.85 165.078C1101.5 148.609 1068.41 201.154 1084.88 252.915C1099.15 297.461 1157.34 334.478 1201.57 373.377C1245.81 412.276 1328.31 506.7 1351.21 597.125L1395.44 601.987L1401.56 526.62Z" fill="#F7F2EC"/>
<g opacity="0.15">
<path opacity="0.15" d="M1401.56 526.62C1396.73 468.469 1383.3 411.356 1361.72 357.143C1326.19 269.541 1258.2 181.548 1179.85 165.078C1101.5 148.609 1068.41 201.154 1084.88 252.915C1099.15 297.461 1157.34 334.478 1201.57 373.377C1245.81 412.276 1328.31 506.7 1351.21 597.125L1395.44 601.987L1401.56 526.62Z" fill="black"/>
</g>
<path d="M1371.21 567.245C1369.95 567.246 1368.73 566.755 1367.83 565.877C1366.92 564.999 1366.39 563.802 1366.35 562.54C1358.11 334.164 1134.91 206.487 1132.48 205.076C1131.42 204.401 1130.65 203.345 1130.34 202.124C1130.03 200.903 1130.2 199.609 1130.81 198.507C1131.42 197.405 1132.43 196.578 1133.63 196.196C1134.83 195.813 1136.13 195.904 1137.27 196.449C1139.62 197.782 1367.76 328.204 1376.15 561.991C1376.19 563.288 1375.72 564.55 1374.84 565.504C1373.96 566.458 1372.74 567.027 1371.44 567.088L1371.21 567.245Z" fill="white"/>
<path d="M1436.77 928.63C1436.77 928.63 1391.13 957.491 1319.76 945.178C1296.68 942.108 1275.18 931.781 1258.35 915.69C1239.92 896.711 1237.02 877.575 1231.85 852.165C1230.42 841.544 1226.79 831.339 1221.18 822.207C1205.5 801.189 1175.38 801.581 1149.97 796.091C1113.89 788.248 1080.72 762.368 1070.29 726.998C1059.86 691.628 1076.8 648.572 1110.99 634.613L1069.04 607.713C1055.99 600.056 1043.93 590.838 1033.12 580.264C1022.32 569.482 1015.87 555.106 1015 539.874C1015 517.602 1031.55 497.681 1051.94 488.584C1072.83 480.52 1095.49 478.191 1117.58 481.84C1139.96 484.577 1161.95 489.839 1183.14 497.525C1188.92 500.132 1195.16 501.545 1201.5 501.681C1209.74 500.222 1217.47 496.656 1223.93 491.329C1271.92 459.959 1350.11 462.076 1375.84 521.837C1379.6 530.62 1381.88 540.031 1385.95 548.658C1400.85 580.891 1442.81 571.166 1469.95 586.224C1478.46 591.617 1485.69 598.818 1491.11 607.316C1496.53 615.814 1500.02 625.401 1501.32 635.397C1506.73 667.238 1497.87 703.549 1491.98 734.997C1486.1 766.446 1478.65 795.699 1470.1 825.5C1463.12 850.126 1455.44 874.517 1447.28 898.75C1445.56 903.769 1441.79 925.493 1436.77 928.63Z" fill="#F7F2EC"/>
<path d="M1465.48 855.067C1441.56 789.256 1402.28 730.105 1350.9 682.531C1350.36 681.384 1349.41 680.485 1348.23 680.021C1333.43 666.143 1317.9 653.054 1301.72 640.808C1295.61 598.46 1301.03 555.247 1317.41 515.719C1317.96 514.544 1318.02 513.198 1317.58 511.978C1317.14 510.757 1316.23 509.761 1315.06 509.21C1313.88 508.659 1312.54 508.597 1311.32 509.038C1310.09 509.479 1309.1 510.388 1308.55 511.563C1292.3 549.672 1286.07 591.299 1290.43 632.495C1224.7 585.087 1151.77 548.546 1074.45 524.268C1073.19 523.952 1071.86 524.134 1070.73 524.778C1069.61 525.421 1068.77 526.475 1068.41 527.719C1068.23 528.342 1068.18 528.994 1068.26 529.637C1068.34 530.28 1068.54 530.902 1068.86 531.464C1069.18 532.027 1069.61 532.519 1070.13 532.913C1070.64 533.307 1071.23 533.594 1071.86 533.757C1073.9 534.306 1213.03 573.833 1328.15 674.923C1257.57 662.611 1173.42 696.647 1169.58 698.451C1168.5 698.857 1167.6 699.633 1167.04 700.642C1166.48 701.65 1166.29 702.825 1166.52 703.956C1166.75 705.088 1167.37 706.102 1168.27 706.817C1169.18 707.533 1170.31 707.903 1171.46 707.862C1172.08 707.975 1172.72 707.975 1173.34 707.862C1174.28 707.391 1273.18 667.395 1343.06 689.118C1393.81 735.656 1432.69 793.658 1456.46 858.283C1456.79 859.247 1457.41 860.084 1458.24 860.675C1459.07 861.266 1460.07 861.581 1461.09 861.576H1462.73C1463.35 861.344 1463.92 860.988 1464.39 860.53C1464.87 860.072 1465.25 859.522 1465.51 858.912C1465.76 858.303 1465.89 857.648 1465.89 856.987C1465.88 856.326 1465.74 855.672 1465.48 855.067Z" fill="white"/>
</g>
<defs>
<clipPath id="clip0_219_6570">
<rect width="1440" height="1024" fill="white"/>
</clipPath>
</defs>
</svg>
