<svg width="821" height="823" viewBox="0 0 821 823" fill="none" xmlns="http://www.w3.org/2000/svg">
<path d="M410.5 725.54C586.529 725.54 729.229 700.654 729.229 669.955C729.229 639.256 586.529 614.37 410.5 614.37C234.471 614.37 91.7715 639.256 91.7715 669.955C91.7715 700.654 234.471 725.54 410.5 725.54Z" fill="#F7F2EC"/>
<path d="M729.048 619.373C724.352 621.184 587.754 623.686 582.418 620.608C581.826 620.279 581.991 614.238 579.971 598.601C579.872 597.86 576.769 594.947 571.892 590.865C553.584 575.507 510.662 543.18 510.662 543.18L578.822 483.809L644.879 548.892L662.055 565.813C662.055 565.813 717.883 596.033 723.4 600.016C728.917 604 733.695 617.563 729.048 619.373Z" fill="#AD6359"/>
<path d="M729.048 619.373C724.335 621.2 587.754 623.669 582.417 620.624C581.826 620.279 581.99 614.238 579.971 598.601C579.889 597.86 576.769 594.963 571.892 590.848C565.538 585.515 562.533 583.079 553.075 575.705L639.739 543.773L644.928 548.892L662.104 565.812C662.104 565.812 717.932 596 723.432 600C728.933 604 733.711 617.563 729.048 619.373Z" fill="#EBEBEB"/>
<path d="M738.408 621.266C733.662 622.912 588.132 624.558 582.894 621.266C581.662 620.509 580.529 612.032 579.61 600.428C579.511 598.963 564.832 587.161 562.746 584.972L651.874 554.883L663.138 565.5C663.138 565.5 728.818 596.115 734.138 600.28C739.458 604.444 743.153 619.604 738.408 621.266Z" fill="#EFAA7C"/>
<path d="M736.388 615.818C713.531 615.522 612.105 616.493 589.478 617.941C589.297 617.941 589.297 618.089 589.478 618.089C612.138 618.88 713.547 617.151 736.404 616.196C736.88 616.18 736.88 615.834 736.388 615.818Z" fill="#263238"/>
<path d="M670.478 566.471C661.463 564.825 650.478 566.471 643.68 572.907C643.418 573.154 643.779 573.532 644.075 573.434C652.636 570.546 661.482 568.592 670.462 567.607C670.596 567.586 670.718 567.518 670.807 567.415C670.896 567.313 670.946 567.182 670.948 567.046C670.95 566.91 670.904 566.777 670.818 566.672C670.732 566.567 670.611 566.496 670.478 566.471V566.471Z" fill="#263238"/>
<path d="M677.013 570.306C667.999 568.66 657.014 570.306 650.216 576.758C649.953 577.005 650.314 577.367 650.61 577.285C659.171 574.399 668.018 572.446 676.997 571.458C677.149 571.46 677.296 571.402 677.405 571.295C677.515 571.189 677.577 571.043 677.58 570.89C677.582 570.738 677.523 570.59 677.417 570.481C677.311 570.371 677.166 570.308 677.013 570.306V570.306Z" fill="#263238"/>
<path d="M683.548 574.158C674.534 572.512 663.549 574.158 656.751 580.594C656.488 580.857 656.849 581.219 657.145 581.12C665.709 578.242 674.554 576.289 683.532 575.293C683.666 575.273 683.788 575.205 683.877 575.102C683.966 574.999 684.016 574.869 684.018 574.733C684.02 574.597 683.974 574.464 683.888 574.359C683.802 574.254 683.682 574.182 683.548 574.158V574.158Z" fill="#263238"/>
<path d="M690.083 578.009C681.069 576.363 670.084 578.009 663.286 584.445C663.023 584.692 663.384 585.071 663.68 584.972C672.242 582.088 681.089 580.134 690.067 579.145C690.201 579.124 690.324 579.056 690.413 578.954C690.502 578.851 690.552 578.72 690.554 578.584C690.555 578.448 690.509 578.316 690.423 578.211C690.337 578.105 690.217 578.034 690.083 578.009V578.009Z" fill="#263238"/>
<path d="M686.849 545.419C683.253 540.579 676.701 542.851 672.974 546.061C666.694 551.685 661.999 558.866 659.361 566.882C659.352 566.918 659.35 566.956 659.357 566.993C659.363 567.03 659.378 567.065 659.401 567.095C659.423 567.125 659.451 567.15 659.484 567.167C659.518 567.184 659.554 567.194 659.591 567.195C659.591 567.886 660.248 568.611 661.003 568.314C668.409 565.467 676.668 563.376 682.957 558.307C686.651 555.377 690.247 549.994 686.849 545.419ZM671.348 561.698C667.736 563.179 664.09 564.479 660.527 566.109C663.204 562.06 665.683 557.879 668.737 554.126C670.181 552.276 671.756 550.532 673.45 548.908C676.093 546.439 686.586 541.106 685.157 551.031C684.353 556.496 675.634 559.92 671.348 561.698Z" fill="#263238"/>
<path d="M636.472 564.792C643.927 567.87 652.449 567.607 660.347 568.281C660.523 568.283 660.698 568.243 660.855 568.163C661.013 568.083 661.149 567.966 661.252 567.823C661.355 567.679 661.422 567.513 661.447 567.337C661.473 567.162 661.456 566.984 661.398 566.817C661.435 566.808 661.469 566.79 661.498 566.764C661.526 566.739 661.548 566.707 661.561 566.671C661.574 566.635 661.578 566.597 661.572 566.559C661.567 566.521 661.552 566.485 661.529 566.454C656.776 559.484 650.274 553.891 642.679 550.241C638.213 548.2 631.283 547.838 629.182 553.533C627.244 558.833 632.17 562.932 636.472 564.792ZM632.351 558.406C628.18 549.303 639.773 551.476 643.007 553.105C645.074 554.207 647.065 555.444 648.968 556.809C652.862 559.691 656.606 562.773 660.183 566.043C656.324 565.467 652.465 565.236 648.59 564.808C643.976 564.298 634.633 563.426 632.351 558.406Z" fill="#263238"/>
<path d="M645.815 545.254L561.564 589.021C561.564 589.021 473.783 509.355 465.737 508.779C457.937 508.203 339.615 588.511 280.191 588.758C218.616 589.021 215.496 524.35 215.496 524.35L305.297 503.676C370.041 471.678 437.478 414.232 481.599 419.582C529.512 425.409 645.815 545.254 645.815 545.254Z" fill="#BA835F"/>
<path d="M625.241 534.094C611.021 541.155 615.011 538.933 600.857 546.126C593.928 549.649 559.085 567.277 553.239 571.639C553.108 571.738 553.239 571.968 553.387 571.919C560.349 569.582 594.798 551.212 601.662 547.558C615.668 540.102 611.514 542.094 625.504 534.489C625.529 534.472 625.552 534.45 625.569 534.424C625.586 534.398 625.598 534.369 625.604 534.338C625.611 534.308 625.611 534.276 625.605 534.246C625.599 534.215 625.587 534.186 625.569 534.16C625.552 534.134 625.53 534.112 625.504 534.094C625.478 534.077 625.449 534.065 625.419 534.059C625.388 534.053 625.357 534.053 625.326 534.059C625.296 534.065 625.267 534.077 625.241 534.094V534.094Z" fill="#37474F"/>
<path d="M546.638 568.841C530.218 554.274 476.196 506.869 473.996 505.108C472.3 503.482 470.415 502.067 468.381 500.894C467.542 500.561 466.638 500.425 465.739 500.497C464.839 500.568 463.968 500.845 463.192 501.306C460.696 502.474 458.266 503.758 455.77 504.976L441.173 512.12C422.29 521.354 403.522 530.835 384.507 539.756C366.215 548.348 353.145 556.43 334.049 563.047C315.052 569.76 295.404 574.455 275.429 577.055C272.966 577.351 270.503 577.614 268.04 577.845C268.011 577.855 267.986 577.874 267.968 577.899C267.95 577.924 267.941 577.954 267.941 577.985C267.941 578.015 267.95 578.045 267.968 578.071C267.986 578.096 268.011 578.115 268.04 578.125C287.64 576.959 307.018 573.343 325.724 567.36C344.656 561.533 357.496 553.961 375.476 545.666C394.096 537.073 412.47 527.889 430.828 518.737C440.516 513.898 450.204 509.026 459.924 504.252C462.125 503.166 465.261 500.828 467.789 501.981C468.843 502.577 469.819 503.302 470.696 504.137L473.98 506.836C478.15 510.309 544.307 567.426 546.474 569.072C546.573 569.203 546.786 568.973 546.638 568.841Z" fill="#37474F"/>
<path d="M215.299 524.35C215.299 524.35 205.25 582.684 234.346 605.728C263.443 628.772 476.87 625.908 509.25 615.423C541.63 604.938 542.648 552.546 507.247 540.415C473.586 528.893 330.354 523.263 326.824 521.848C325.937 521.486 339.516 513.322 339.467 512.828L306.873 502.853L215.299 524.35Z" fill="#BA835F"/>
<path d="M259.436 522.868C259.436 522.622 259.009 522.704 259.009 522.868C259.02 529.655 256.636 536.226 252.277 541.419C247.351 547.163 240.011 550.373 233.394 553.731C232.754 554.06 233.23 555.064 233.887 554.867C237.961 553.614 241.886 551.92 245.594 549.813C248.993 547.989 251.987 545.491 254.395 542.472C256.54 539.731 258.095 536.573 258.963 533.199C259.83 529.825 259.992 526.308 259.436 522.868V522.868Z" fill="#37474F"/>
<path d="M324.476 515.642C322.998 513.749 321.389 511.939 319.845 510.095C316.2 505.75 312.522 501.388 308.712 497.191C308.351 496.779 307.629 497.355 307.974 497.783C310.535 501.158 313.261 504.367 315.954 507.659C317.317 509.305 318.696 511.034 320.091 512.712C321.538 514.226 322.831 515.88 323.95 517.65C324.952 519.527 323.638 521.124 321.717 521.338C320 521.377 318.332 520.759 317.054 519.609C314.156 517.05 311.511 514.217 309.156 511.149C307.612 509.421 306.085 507.692 304.525 505.98C302.965 504.269 301.094 502.425 299.435 500.614C299.337 500.499 299.123 500.614 299.222 500.795C300.667 502.771 301.997 504.861 303.442 506.836C304.887 508.812 306.364 510.803 307.859 512.762C309.353 514.721 310.732 516.416 312.243 518.194C313.491 519.764 314.995 521.111 316.693 522.177C319.468 523.823 324.262 524.169 325.74 520.531C325.988 519.678 326.001 518.773 325.778 517.912C325.556 517.052 325.106 516.268 324.476 515.642Z" fill="#37474F"/>
<path d="M504.833 615.604C493.684 615.818 482.535 616.476 471.386 616.707C460.236 616.937 449.268 617.003 438.201 616.904C415.979 616.696 393.785 615.829 371.618 614.304C349.221 612.756 325.067 610.518 302.818 607.423C292.178 605.958 281.472 604.724 270.864 602.485C261.405 600.687 252.658 596.209 245.66 589.581C231.243 575.573 225.644 555.015 223.345 535.263C223.033 532.629 222.787 529.979 222.573 527.329C222.573 527.148 222.278 527.148 222.294 527.329C223.591 547.509 226.727 568.479 239.387 584.774C244.742 591.833 251.854 597.357 260.011 600.79C269.978 604.79 281.028 605.728 291.554 607.16C313.885 610.189 338.137 612.542 360.6 614.287C383.062 616.032 405.87 617.135 428.546 617.48C451.222 617.826 473.898 617.48 496.557 616.378C499.316 616.246 502.075 616.081 504.767 615.834C504.792 615.831 504.816 615.82 504.835 615.803C504.853 615.786 504.867 615.765 504.874 615.74C504.881 615.716 504.881 615.69 504.874 615.666C504.866 615.642 504.852 615.62 504.833 615.604V615.604Z" fill="#37474F"/>
<path d="M434.539 529.716C427.511 528.695 420.516 527.675 413.456 526.95C406.395 526.226 399.203 525.568 392.11 524.959C377.988 523.757 363.834 522.687 349.68 522.012C341.635 521.634 333.605 521.601 325.559 521.7C325.507 521.7 325.457 521.72 325.42 521.758C325.383 521.795 325.362 521.845 325.362 521.897C325.362 521.95 325.383 522 325.42 522.037C325.457 522.074 325.507 522.095 325.559 522.095C339.713 523.379 353.884 524.267 368.054 525.222C382.225 526.177 396.33 527.411 410.434 528.761C418.447 529.518 426.46 530.111 434.473 530.769C435.015 530.818 435.13 529.814 434.539 529.716Z" fill="#37474F"/>
<path d="M341.126 512.071C335.476 514.507 330.044 517.42 324.886 520.778C319.633 523.939 314.607 527.464 309.845 531.329C309.714 531.444 309.845 531.609 310.026 531.543C315.527 528.991 320.83 525.798 326.085 522.72C331.411 519.748 336.549 516.45 341.47 512.844C341.815 512.564 341.536 511.906 341.126 512.071Z" fill="#37474F"/>
<path d="M300.683 408.06C313.638 446.115 354.869 487.858 366.774 492.286C373.851 494.886 386.675 498.096 397.446 490.557C420.976 474.097 447.839 442.395 456.016 429.195C459.957 422.841 420.516 395.435 414.605 400.817C400.763 413.442 376.626 445.111 374.458 444.7C366.478 443.202 335.904 415.467 315.116 395.32C295.839 376.704 295.56 392.884 300.683 408.06Z" fill="#FFD8BE"/>
<path d="M419.597 413.146C420.451 407.27 426.575 374.975 429.219 367.651C434.145 354.203 442.125 341.315 448.053 342.154C452.798 342.763 452.24 351.306 452.24 351.306C452.24 351.306 458.282 343.849 463.734 346.45C469.185 349.051 464.489 358.153 464.489 358.153C464.489 358.153 471.238 350.944 476.508 353.923C481.779 356.902 475.507 365.28 475.507 365.28C475.507 365.28 481.369 358.4 484.669 362.68C488.659 367.832 476.459 379.271 473.175 387.37C472.699 388.588 468.249 408.554 463.11 420.899C461.402 424.734 458.668 428.021 455.212 430.396L419.597 413.146Z" fill="#FFD8BE"/>
<path d="M476.18 365.28C467.182 373.724 464.686 378.975 461.648 390.727C461.648 390.958 461.238 390.925 461.271 390.727C463.225 378.942 465.392 371.914 475.786 364.885C476.328 364.49 476.64 364.885 476.18 365.28Z" fill="#263238"/>
<path d="M465.113 357.857C457.346 368.095 455.08 373.971 451.977 386.349C451.977 386.53 451.632 386.481 451.665 386.349C453.701 373.938 455.442 366.811 464.555 357.594C464.949 357.182 465.474 357.38 465.113 357.857Z" fill="#263238"/>
<path d="M452.141 351.734C445.573 362.383 443.012 368.786 441.862 381.23C441.862 381.291 441.838 381.35 441.795 381.393C441.752 381.436 441.693 381.46 441.632 381.46C441.571 381.46 441.513 381.436 441.47 381.393C441.427 381.35 441.403 381.291 441.403 381.23C441.403 368.424 444.522 360.408 451.796 351.602C452.289 350.977 452.552 351.075 452.141 351.734Z" fill="#263238"/>
<path d="M413.406 413.146C413.406 413.146 408.645 398.431 407.971 391.501C407.298 384.571 414.26 357.84 420.106 359.026C427.659 360.54 426.674 376.769 425.147 384.67C425.147 384.67 442.618 388.176 444.424 399.978C446.23 411.78 413.406 413.146 413.406 413.146Z" fill="#FFD8BE"/>
<path d="M425.951 378.876C425.951 380.819 425.738 382.728 425.59 384.654L425.261 384.16C427.946 384.855 430.537 385.872 432.979 387.189C435.431 388.495 437.727 390.074 439.826 391.896C441.953 393.698 443.821 395.786 445.376 398.102C446.921 400.393 448.122 402.9 448.939 405.541C447.653 403.156 446.147 400.897 444.44 398.793C442.751 396.716 440.859 394.813 438.792 393.114C434.659 389.701 430.008 386.972 425.015 385.032L424.621 384.884V384.539C425.081 382.646 425.475 380.753 425.951 378.876Z" fill="#263238"/>
<path d="M398.349 413.268L456.016 456.344C456.016 456.344 411.025 498.317 397.364 499.963C383.703 501.609 361.092 498.152 353.572 494.827C346.052 491.503 314.558 446.534 299.829 411.211C285.101 375.887 304.361 378.752 317.497 392.71C330.633 406.668 373.145 441.645 375.131 441.069C377.118 440.493 398.349 413.268 398.349 413.268Z" fill="#477B72"/>
<path d="M440.138 465.818C419.876 446.51 395.706 429.343 391.699 426.051C391.502 425.886 391.272 426.215 391.486 426.363C395.574 429.392 421.042 452.057 439.908 466.18C440.056 466.394 440.335 466.065 440.138 465.818Z" fill="#263238"/>
<path opacity="0.1" d="M345.132 487.216C332.554 472.056 311.143 439.005 299.764 411.714C289.616 387.403 295.609 381.181 304.591 384.226L304.903 385.016L345.132 487.216Z" fill="black"/>
<path d="M338.646 519.033L212.705 526.358C212.869 523.774 231.604 448.634 245.758 421.014C263.935 385.658 272.95 382.991 278.352 381.181C285.248 378.876 297.399 380.374 300.256 381.806C303.54 383.452 313.54 401.937 316.972 415.417C323.884 442.576 340.354 517.42 338.646 519.033Z" fill="#477B72"/>
<path d="M302.604 403.616C295.445 405.262 283.097 394.398 278.204 385.51C277.859 384.901 278.779 378.465 279.518 370.58C279.945 365.807 280.306 360.474 280.289 355.585C280.289 354.581 310.913 362.927 310.913 362.927C309.188 369.045 308.218 375.352 308.023 381.707C308.037 382.382 308.114 383.055 308.253 383.716C308.253 383.814 308.253 383.913 308.253 384.045C308.926 387.863 309.533 401.937 302.604 403.616Z" fill="#FFD8BE"/>
<path d="M282.161 355.701C283.623 363.931 288.828 383.93 305.149 384.242C306.198 384.264 307.248 384.198 308.286 384.045C308.296 383.935 308.296 383.825 308.286 383.716C308.162 383.058 308.091 382.392 308.072 381.724C308.267 375.358 309.237 369.04 310.962 362.91C310.962 362.91 288.811 356.902 282.161 355.701Z" fill="#FFD8BE"/>
<path d="M278.845 316.822C274.444 327.307 276.94 359.141 283.902 366.893C294 378.152 312.128 380.983 322.062 368.457C331.684 356.31 327.694 314.863 319.763 307.654C308.089 297.021 285.347 301.333 278.845 316.822Z" fill="#FFD8BE"/>
<path d="M307.415 339.076C307.415 339.076 307.268 339.208 307.268 339.29C307.58 341.413 307.58 343.915 305.724 344.837C305.724 344.837 305.724 344.969 305.724 344.952C308.072 344.327 308.056 341.018 307.415 339.076Z" fill="#263238"/>
<path d="M305.264 337.035C301.8 337.15 302.309 344.08 305.51 343.965C308.712 343.849 308.154 336.92 305.264 337.035Z" fill="#263238"/>
<path d="M319.402 338.237C319.402 338.154 319.582 338.335 319.582 338.418C319.665 340.574 320.124 343.01 322.111 343.586C322.111 343.586 322.111 343.718 322.111 343.701C319.73 343.553 319.139 340.294 319.402 338.237Z" fill="#263238"/>
<path d="M321.159 335.866C324.574 335.34 325.346 342.253 322.177 342.73C319.008 343.207 318.285 336.294 321.159 335.866Z" fill="#263238"/>
<path d="M302.457 332.854C303.353 332.532 304.23 332.158 305.084 331.735C306.052 331.468 306.906 330.89 307.514 330.089C307.659 329.798 307.704 329.468 307.642 329.149C307.58 328.83 307.413 328.541 307.169 328.328C306.623 327.979 305.995 327.783 305.348 327.76C304.701 327.737 304.06 327.887 303.491 328.196C302.243 328.649 301.203 329.545 300.568 330.714C300.475 330.989 300.457 331.283 300.514 331.567C300.571 331.852 300.702 332.116 300.894 332.333C301.085 332.55 301.331 332.713 301.605 332.804C301.88 332.896 302.173 332.913 302.457 332.854Z" fill="#263238"/>
<path d="M324.131 332.163C323.185 332.114 322.242 332.015 321.307 331.867C320.297 331.9 319.304 331.599 318.482 331.011C318.258 330.777 318.119 330.475 318.086 330.153C318.053 329.831 318.129 329.507 318.302 329.233C318.716 328.735 319.256 328.359 319.866 328.145C320.476 327.93 321.133 327.885 321.766 328.015C323.094 328.061 324.354 328.608 325.297 329.546C325.47 329.78 325.577 330.056 325.609 330.346C325.64 330.636 325.594 330.929 325.476 331.195C325.357 331.461 325.17 331.691 324.934 331.861C324.697 332.031 324.42 332.135 324.131 332.163V332.163Z" fill="#263238"/>
<path d="M307.054 352.656C307.659 353.467 308.425 354.143 309.304 354.642C310.183 355.14 311.156 355.451 312.161 355.552C313.032 355.684 313.917 355.684 314.788 355.552C314.955 355.537 315.12 355.504 315.281 355.454L315.74 355.355C315.853 355.326 315.953 355.26 316.024 355.167C316.096 355.075 316.134 354.962 316.134 354.845V354.845C316.15 354.769 316.15 354.69 316.134 354.614V354.614V354.433C316.134 352.787 315.724 350.285 315.724 350.285C316.348 350.532 319.517 351.701 319.402 350.845C318.678 343.409 317.192 336.068 314.969 328.937C314.95 328.895 314.918 328.861 314.878 328.84C314.837 328.819 314.791 328.813 314.746 328.823C314.702 328.832 314.662 328.857 314.633 328.893C314.605 328.929 314.59 328.973 314.591 329.019C315.215 335.883 317.054 342.598 317.875 349.495C316.746 349.068 315.563 348.802 314.361 348.705C314.131 348.787 315.1 353.528 315.084 354.269C315.087 354.296 315.087 354.324 315.084 354.351C313.743 354.586 312.369 354.548 311.043 354.24C309.717 353.932 308.467 353.359 307.366 352.557C307.054 352.343 306.939 352.491 307.054 352.656Z" fill="#263238"/>
<path d="M313.031 355.536C312.115 356.578 310.944 357.361 309.632 357.807C308.911 358.038 308.136 358.038 307.415 357.807C305.855 357.281 305.921 355.816 306.299 354.515C306.508 353.858 306.795 353.228 307.153 352.639C308.75 354.214 310.812 355.23 313.031 355.536Z" fill="#263238"/>
<path d="M309.632 357.725C308.911 357.956 308.136 357.956 307.415 357.725C305.855 357.198 305.921 355.734 306.299 354.433C307.144 354.524 307.933 354.898 308.539 355.496C309.144 356.094 309.529 356.88 309.632 357.725V357.725Z" fill="#FF9BBC"/>
<path opacity="0.2" d="M276.759 340.195C278.68 339.603 282.473 332.278 284.099 329.348C285.724 326.418 284.936 312.032 284.673 308.79C281.452 311.266 278.993 314.604 277.58 318.419C275.856 322.962 275.856 331.504 276.759 340.195Z" fill="#263238"/>
<path d="M297.465 292.988C291.57 293.745 286.496 297.597 284.772 301.86C283.81 304.279 283.694 306.954 284.444 309.448C284.444 309.547 284.673 309.448 284.657 309.448C284.303 307.207 284.555 304.911 285.387 302.801C286.219 300.691 287.6 298.842 289.386 297.449C291.324 295.84 293.609 294.705 296.059 294.133C298.51 293.562 301.06 293.57 303.507 294.157C305.891 294.683 308.009 296.043 309.484 297.992C309.615 298.189 310.042 297.992 309.927 297.794C307.941 294.321 302.801 292.346 297.465 292.988Z" fill="#263238"/>
<path d="M332.456 304.51C331.266 302.149 329.213 300.339 326.725 299.457C323.014 297.811 319.123 298.42 315.231 299.177C315.133 299.177 315.231 299.358 315.231 299.342C318.461 298.459 321.872 298.493 325.083 299.44C327.719 300.386 329.951 302.211 331.405 304.609C332.098 305.664 332.571 306.85 332.794 308.094C333.016 309.338 332.985 310.614 332.701 311.845C332.417 313.076 331.886 314.237 331.141 315.257C330.396 316.276 329.453 317.134 328.367 317.777C326.988 318.698 325.442 319.336 323.816 319.656C322.189 319.975 320.517 319.968 318.893 319.637C318.762 319.637 318.696 319.801 318.893 319.834C321.783 320.533 324.827 320.172 327.474 318.817C330.121 317.461 332.197 315.2 333.326 312.444C333.724 311.131 333.852 309.751 333.703 308.387C333.553 307.024 333.129 305.705 332.456 304.51V304.51Z" fill="#263238"/>
<path d="M276.25 324.509C276.25 324.509 269.551 314.485 273.623 307.884C275.938 304.131 284.805 303.687 284.805 303.687C286.808 299.935 290.216 297.135 294.279 295.901C301.488 293.449 316.315 298.864 316.315 298.864C316.315 298.864 322.374 297.515 326.791 300.099C332.833 303.654 334.213 313.662 325.444 319.094C319.303 322.912 309.928 318.057 309.928 318.057C309.09 318.254 300.962 324.361 293.639 317.283C293.639 317.283 288.713 322.567 283.688 319.735C283.083 321.197 282.046 322.438 280.716 323.291C279.386 324.145 277.828 324.569 276.25 324.509V324.509Z" fill="#263238"/>
<path d="M282.9 342.977C282.9 342.977 276.661 332.262 271.882 334.418C267.104 336.574 271.193 351.684 276.414 354.17C277.062 354.53 277.775 354.755 278.512 354.832C279.249 354.908 279.993 354.834 280.701 354.614C281.408 354.394 282.064 354.033 282.628 353.552C283.192 353.071 283.653 352.48 283.984 351.816L282.9 342.977Z" fill="#AD6359"/>
<path d="M273.163 338.714C273.081 338.714 273.048 338.829 273.163 338.862C276.825 340.706 278.516 344.376 279.616 348.129C279.428 347.731 279.155 347.379 278.817 347.096C278.479 346.814 278.085 346.609 277.66 346.495C277.235 346.38 276.791 346.36 276.358 346.435C275.924 346.509 275.512 346.677 275.15 346.927C275.052 346.927 275.15 347.158 275.249 347.141C275.927 346.972 276.642 347.025 277.289 347.291C277.936 347.558 278.481 348.024 278.845 348.623C279.468 349.611 279.98 350.666 280.372 351.767C280.519 352.129 281.143 351.997 281.061 351.586C281.472 346.681 278.286 339.636 273.163 338.714Z" fill="#263238"/>
<path d="M299.747 293.844C295.243 292.813 290.613 292.447 286.003 292.758C280.864 293.202 270.322 294.404 263.919 303.078C258.598 310.189 261.341 320.904 261.702 323.11C262.063 325.315 265.856 338.269 271.291 340.426C276.726 342.582 272.408 320.098 278.335 311.061C284.263 302.025 299.747 293.844 299.747 293.844Z" fill="#EFAA7C"/>
<path opacity="0.1" d="M299.764 293.844C299.764 293.844 284.263 302.074 278.335 311.061C272.408 320.048 276.693 342.582 271.291 340.442C268.894 339.488 267.433 337.628 265.823 334.303C265.413 327.554 265.823 316.839 269.813 308.641C273.508 300.955 281.554 295.737 290.716 292.659C293.76 292.796 296.787 293.193 299.764 293.844V293.844Z" fill="black"/>
<path d="M275.429 353.446C274.592 347.388 277.219 330.122 281.62 319.587C286.02 309.053 303.524 299.72 306.249 299.309C312.653 298.321 315.215 299.77 316.101 298.996C316.988 298.222 309.435 294.832 307.432 294.157C305.428 293.482 300.076 291.967 297.333 292.626C294.591 293.284 277.991 298.634 273.36 307.209C268.73 315.785 264.362 338.006 267.071 342.878C267.728 344.047 269.567 344.524 270.47 346.17C271.653 348.343 272.72 350.927 273.754 352.409C274.526 353.577 275.511 353.972 275.429 353.446Z" fill="#EFAA7C"/>
<path d="M282.194 315.176C280.55 314.598 278.957 313.882 277.432 313.036C275.878 312.201 274.423 311.19 273.097 310.024C273.097 309.925 272.868 310.024 272.95 310.156C274.123 311.545 275.508 312.74 277.055 313.695C278.617 314.614 280.338 315.229 282.128 315.505C282.325 315.538 282.424 315.242 282.194 315.176Z" fill="#263238"/>
<path d="M274.099 347.487C273.821 347.112 273.519 346.754 273.196 346.417C272.851 345.999 272.559 345.541 272.326 345.051C271.994 344.09 271.559 343.169 271.029 342.302C270.484 341.687 269.873 341.135 269.206 340.656C268.426 340.142 267.847 339.375 267.564 338.483C267.564 338.352 267.334 338.385 267.367 338.483C267.745 340.294 269.239 341.331 270.355 342.664C270.923 343.601 271.417 344.581 271.833 345.594C272.278 346.525 273.017 347.283 273.935 347.75C274.017 347.8 274.214 347.635 274.099 347.487Z" fill="#263238"/>
<path d="M274.772 340.607C274.066 340.047 273.327 339.57 272.67 338.961C272.046 338.344 271.46 337.69 270.914 337.002C270.388 336.327 269.895 335.603 269.37 334.928C268.845 334.253 268.04 333.364 267.465 332.525C267.465 332.41 267.235 332.525 267.301 332.657C267.909 333.529 268.352 334.5 268.943 335.389C269.443 336.159 269.991 336.895 270.585 337.595C271.149 338.262 271.77 338.878 272.441 339.438C273.114 340.007 273.888 340.442 274.723 340.722L274.772 340.607Z" fill="#263238"/>
<path d="M275.692 334.303C274.215 333.515 272.86 332.517 271.669 331.34C270.519 330.188 269.436 328.953 268.385 327.719C268.303 327.719 268.155 327.719 268.221 327.834C269.048 329.315 270.057 330.687 271.226 331.916C272.405 333.186 273.929 334.085 275.61 334.5C275.708 334.533 275.856 334.368 275.692 334.303Z" fill="#263238"/>
<path d="M276.858 328.212C276.142 327.926 275.489 327.501 274.937 326.961C274.28 326.402 273.639 325.853 273.015 325.315C272.408 324.756 271.784 324.196 271.193 323.669C270.546 323.133 270.02 322.466 269.649 321.711C269.649 321.612 269.436 321.711 269.469 321.711C269.707 322.515 270.11 323.26 270.651 323.9C271.234 324.622 271.877 325.293 272.572 325.908C273.241 326.496 273.942 327.046 274.674 327.554C275.299 328.072 276.066 328.388 276.874 328.459C276.894 328.444 276.909 328.425 276.919 328.403C276.929 328.38 276.934 328.356 276.932 328.331C276.931 328.307 276.923 328.283 276.91 328.262C276.897 328.242 276.879 328.224 276.858 328.212V328.212Z" fill="#263238"/>
<path d="M277.038 320.772C276.381 320.345 275.708 319.917 275.084 319.439C274.46 318.962 273.836 318.468 273.245 317.958C272.654 317.448 271.964 316.888 271.373 316.312C271.291 316.312 271.143 316.312 271.225 316.443C271.691 317.133 272.212 317.783 272.785 318.386C273.364 318.978 273.984 319.528 274.641 320.032C275.278 320.53 275.948 320.986 276.644 321.398C277.316 321.851 278.068 322.17 278.861 322.336C278.976 322.336 279.074 322.188 278.976 322.106C278.377 321.596 277.728 321.149 277.038 320.772Z" fill="#263238"/>
<path d="M286.036 310.798C285.281 310.189 284.559 309.596 283.77 309.152C282.954 308.614 282.11 308.12 281.242 307.67C279.559 306.779 277.786 306.067 275.955 305.547C275.856 305.547 275.757 305.662 275.856 305.728C279.14 307.539 282.605 309.201 285.922 311.045C285.954 311.06 285.992 311.062 286.025 311.049C286.059 311.037 286.087 311.012 286.102 310.979C286.117 310.946 286.119 310.909 286.107 310.875C286.094 310.841 286.069 310.813 286.036 310.798Z" fill="#263238"/>
<path d="M288.532 304.921C287.784 304.332 286.968 303.834 286.102 303.44C284.274 302.646 282.363 302.061 280.404 301.695C280.273 301.695 280.207 301.827 280.404 301.876C282.161 302.568 283.935 303.243 285.659 304.033C286.515 304.417 287.349 304.851 288.155 305.333C288.959 305.81 289.632 306.469 290.421 306.979L290.536 306.88C290 306.104 289.32 305.439 288.532 304.921V304.921Z" fill="#263238"/>
<path d="M292.998 301.514C292.289 300.936 291.524 300.429 290.716 300C289.181 299.172 287.514 298.615 285.79 298.354C285.675 298.354 285.642 298.502 285.79 298.535C287.431 299.095 289.019 299.8 290.535 300.642C291.291 301.053 292.03 301.514 292.769 301.959C293.507 302.403 294.197 303.029 294.969 303.391C294.969 303.391 295.084 303.391 295.051 303.292C294.425 302.635 293.738 302.04 292.998 301.514V301.514Z" fill="#263238"/>
<path d="M295.938 297.778C295.199 297.399 294.444 297.07 293.688 296.741C292.96 296.377 292.178 296.132 291.373 296.017C291.258 296.017 291.242 296.165 291.373 296.214C292.802 296.922 294.214 297.663 295.626 298.403C296.876 299.174 298.043 300.073 299.107 301.086C299.107 301.086 299.238 301.086 299.205 301.086C298.48 299.674 297.339 298.519 295.938 297.778Z" fill="#263238"/>
<path d="M300.191 295.852C298.81 295.019 297.283 294.46 295.691 294.206C295.576 294.206 295.544 294.387 295.691 294.404C297.178 294.839 298.59 295.5 299.879 296.362C301.185 297.198 302.396 298.175 303.491 299.276C303.491 299.276 303.655 299.276 303.606 299.276C302.748 297.884 301.579 296.712 300.191 295.852Z" fill="#263238"/>
<path d="M306.611 297.268C306.403 296.985 306.173 296.721 305.921 296.477C305.419 295.975 304.869 295.523 304.279 295.128C303.03 294.374 301.71 293.746 300.338 293.251C300.223 293.251 300.158 293.399 300.338 293.449C301.659 293.954 302.911 294.623 304.066 295.441C304.645 295.837 305.194 296.277 305.708 296.757C305.954 296.988 306.184 297.235 306.414 297.482C306.607 297.755 306.833 298.004 307.087 298.222C307.087 298.222 307.267 298.222 307.235 298.124C307.092 297.795 306.879 297.503 306.611 297.268V297.268Z" fill="#263238"/>
<path d="M310.338 296.823C309.901 296.428 309.44 296.059 308.959 295.72C308.481 295.377 307.981 295.064 307.464 294.782C306.939 294.502 306.381 294.239 305.822 293.943C305.812 293.932 305.799 293.924 305.785 293.919C305.771 293.915 305.756 293.913 305.741 293.915C305.726 293.917 305.712 293.922 305.699 293.93C305.687 293.938 305.676 293.949 305.669 293.962C305.661 293.975 305.656 293.989 305.655 294.004C305.654 294.019 305.656 294.034 305.661 294.048C305.667 294.062 305.675 294.075 305.686 294.085C305.697 294.095 305.71 294.103 305.724 294.107C306.26 294.392 306.771 294.722 307.251 295.095L308.647 296.099L310.026 297.119C310.468 297.494 310.928 297.846 311.405 298.173C311.421 298.185 311.441 298.191 311.46 298.189C311.48 298.188 311.499 298.179 311.513 298.165C311.527 298.151 311.535 298.133 311.536 298.113C311.538 298.093 311.532 298.074 311.52 298.058C311.171 297.605 310.775 297.191 310.338 296.823Z" fill="#263238"/>
<path d="M265.774 390.53C223.181 434.972 161.064 547.558 153.379 563.706C148.174 574.668 205.316 603.555 207.746 595.589C210.849 585.383 260.635 459.399 273.853 411.846C281.143 385.641 274.575 381.345 265.774 390.53Z" fill="#AD6359"/>
<path d="M210.439 588.05C208.436 593.515 201.654 616.69 196.909 619.587C192.163 622.484 167.254 621.859 154.709 621.859C142.164 621.859 139.685 618.353 139.931 614.007C140.178 609.662 166.482 608.855 166.482 608.855C166.482 608.855 131.245 618.896 122.411 620.542C113.577 622.188 93.1671 627.356 90.2115 619.999C88.8815 616.707 94.4643 613.415 94.4643 613.415C94.4643 613.415 85.9095 615.917 84.6123 611.654C83.0688 606.798 89.8667 604.131 89.8667 604.131C89.8667 604.131 84.5302 605.201 84.3988 601.251C84.1197 592.412 117.584 588.083 117.584 588.083C117.584 588.083 91.9685 600.592 91.1475 593.383C89.9981 583.392 142.509 572.446 147.977 568.1C151.546 565.072 154.515 561.398 156.729 557.27L210.439 588.05Z" fill="#FFD8BE"/>
<path d="M140.079 616.213C139.989 615.597 140.05 614.968 140.256 614.38C140.462 613.792 140.807 613.263 141.261 612.839C142.168 612.009 143.206 611.336 144.332 610.847C146.653 609.85 149.06 609.067 151.524 608.51C156.45 607.259 161.54 606.37 166.581 605.053C161.356 604.975 156.142 605.562 151.064 606.798C148.481 607.398 145.994 608.357 143.675 609.645C142.475 610.307 141.429 611.216 140.605 612.312C140.192 612.863 139.927 613.511 139.835 614.194C139.743 614.877 139.827 615.572 140.079 616.213V616.213Z" fill="#263238"/>
<path d="M94.4644 613.398C98.0932 612.51 101.656 611.489 105.219 610.452C108.783 609.415 112.329 608.329 115.86 607.259L126.467 603.967C129.997 602.848 133.528 601.745 137.091 600.675C133.389 601.086 129.719 601.746 126.106 602.65C122.477 603.473 118.897 604.526 115.351 605.596C111.804 606.666 108.274 607.884 104.793 609.201C101.311 610.518 97.8469 611.818 94.4644 613.398Z" fill="#263238"/>
<path d="M128.601 591.836C125.189 592.06 121.798 592.533 118.454 593.251C115.126 593.922 111.837 594.774 108.602 595.803C105.335 596.823 102.128 598.026 98.9962 599.407C95.8258 600.748 92.7532 602.31 89.801 604.082C93.085 602.963 96.1884 601.712 99.4067 600.642C102.625 599.572 105.811 598.453 109.045 597.465C112.28 596.478 115.515 595.49 118.766 594.519C122.017 593.548 125.301 592.741 128.601 591.836Z" fill="#263238"/>
<path d="M123.429 583.425C117.918 583.846 112.486 584.992 107.272 586.832C102.049 588.574 97.0792 591.004 92.4939 594.058C97.699 592.198 102.756 590.239 107.929 588.511C113.101 586.783 118.224 585.12 123.429 583.425Z" fill="#263238"/>
<path d="M273.327 423.737C263.213 467.323 214.905 586.51 214.905 586.51L171.49 565.54L149.603 554.939C149.603 554.939 224.149 438.189 254.691 400.001C257.055 397.055 259.19 394.537 261.16 392.446C279.977 372.2 281.127 390.142 273.327 423.737Z" fill="#477B72"/>
<path d="M218.517 573.927C192.968 559.113 163.888 547.344 158.962 544.941C158.732 544.826 158.568 545.205 158.814 545.32C163.74 547.427 195.562 564.446 218.353 574.355C218.616 574.454 218.764 574.075 218.517 573.927Z" fill="#263238"/>
<path d="M239.847 523.132L248.369 499.232C251.21 491.282 254.083 483.331 256.842 475.348C259.6 467.365 262.424 459.382 265.052 451.383C267.679 443.383 270.355 435.334 272.539 427.153C270.897 435.383 268.451 443.613 265.971 451.662C263.492 459.711 260.733 467.76 257.958 475.76C255.183 483.759 252.228 491.677 249.206 499.561C246.185 507.445 243.131 515.33 239.847 523.132Z" fill="#263238"/>
<path d="M273.705 432.305C273.229 433.955 272.568 435.546 271.735 437.046C271.318 437.798 270.863 438.529 270.372 439.235C269.893 439.948 269.343 440.61 268.73 441.21C269.452 439.564 270.224 438.149 271.029 436.651C271.831 435.149 272.724 433.697 273.705 432.305V432.305Z" fill="#263238"/>
<path d="M260.782 676.506C260.782 676.506 195.677 723.318 195.644 723.368C184.758 734.89 175.004 744.766 169.487 749.374V749.457C168.289 750.704 166.815 751.651 165.185 752.222C165.143 752.238 165.096 752.238 165.054 752.222C159.454 751.284 65.3022 666.778 63.0198 662.712C60.7374 658.647 72.0672 651.783 78.3397 652.145C84.6121 652.507 135.087 668.72 135.087 668.72L200.767 622.468L260.782 676.506Z" fill="#FCDECA"/>
<path d="M63.0035 662.663C65.3023 666.712 159.455 751.251 165.054 752.173H165.202C166.791 751.584 168.228 750.645 169.405 749.424L169.504 749.341C175.004 744.716 184.741 734.824 195.644 723.351L206.958 715.121L147.386 660.046L135.104 668.704C135.104 668.704 84.6286 652.474 78.3233 652.096C72.0181 651.717 60.7539 658.614 63.0035 662.663Z" fill="#DBDBDB"/>
<path opacity="0.1" d="M151.951 733.655C153.083 732.595 154.34 731.677 155.694 730.923C158.391 729.383 161.412 728.503 164.512 728.355C167.644 728.246 170.751 728.937 173.543 730.363C176.28 731.857 178.674 733.909 180.571 736.388C180.686 736.519 180.456 736.684 180.357 736.552C178.381 734.299 175.904 732.543 173.125 731.428C170.347 730.313 167.346 729.869 164.364 730.133C161.539 730.368 158.804 731.246 156.368 732.7C155.188 733.416 154.087 734.254 153.084 735.202C152.579 735.673 152.102 736.173 151.655 736.7C151.212 737.227 150.933 737.721 150.194 737.82C150.021 737.83 149.851 737.774 149.717 737.664C149.583 737.555 149.496 737.399 149.471 737.227C149.209 735.96 151.064 734.429 151.951 733.655Z" fill="black"/>
<path opacity="0.1" d="M82.9209 654.203C85.578 655.452 87.7857 657.492 89.2426 660.046C90.8816 662.616 92.1943 665.38 93.1505 668.276C94.1193 671.129 94.7262 674.093 94.9567 677.099C95.0387 678.568 95.0387 680.041 94.9567 681.51C94.9894 683.006 94.7956 684.499 94.382 685.938C94.3676 685.994 94.3347 686.044 94.2886 686.08C94.2425 686.116 94.1858 686.136 94.1275 686.136C94.0692 686.136 94.0125 686.116 93.9664 686.08C93.9203 686.044 93.8875 685.994 93.873 685.938C93.6924 684.654 93.873 683.271 93.873 681.987C93.873 680.703 93.6924 679.041 93.4953 677.592C93.118 674.758 92.4803 671.964 91.5906 669.247C90.022 663.758 86.7918 658.892 82.3462 655.322C82.2728 655.284 82.2077 655.232 82.1544 655.169C82.1011 655.106 82.0607 655.033 82.0356 654.954C82.0104 654.876 82.001 654.793 82.0078 654.71C82.0146 654.628 82.0375 654.548 82.0752 654.474C82.113 654.401 82.1648 654.335 82.2277 654.282C82.2906 654.229 82.3634 654.188 82.4419 654.163C82.5205 654.138 82.6032 654.128 82.6853 654.135C82.7675 654.142 82.8475 654.165 82.9209 654.203V654.203Z" fill="black"/>
<path opacity="0.1" d="M139.718 672.226C153.412 684.934 167.041 697.739 180.883 710.298C184.807 713.87 188.682 717.475 192.672 720.964C192.804 721.08 192.672 721.261 192.475 721.162C177.734 709.626 163.62 697.308 150.194 684.259C146.417 680.522 142.772 676.654 139.159 672.737C139.122 672.66 139.111 672.573 139.127 672.49C139.143 672.406 139.186 672.33 139.249 672.273C139.311 672.215 139.391 672.18 139.476 672.172C139.56 672.163 139.645 672.182 139.718 672.226V672.226Z" fill="black"/>
<path opacity="0.1" d="M192.705 717.656C192.765 717.55 192.849 717.459 192.951 717.393C193.072 717.317 193.198 717.251 193.329 717.195L194.019 716.833C194.528 716.586 195.02 716.356 195.529 716.142C196.531 715.714 197.549 715.352 198.567 714.99C198.715 714.99 198.813 715.187 198.665 715.236C197.697 715.697 196.744 716.175 195.792 716.685L194.396 717.393L193.657 717.788C193.436 717.934 193.182 718.024 192.918 718.051C192.871 718.054 192.824 718.044 192.783 718.021C192.741 717.998 192.708 717.964 192.685 717.922C192.663 717.881 192.652 717.833 192.656 717.786C192.66 717.739 192.677 717.694 192.705 717.656V717.656Z" fill="black"/>
<path opacity="0.1" d="M186.318 711.582C186.388 711.479 186.477 711.389 186.58 711.319C186.697 711.247 186.818 711.181 186.942 711.121L187.648 710.759C188.14 710.512 188.633 710.282 189.142 710.068C190.144 709.656 191.162 709.278 192.18 708.932C192.328 708.932 192.426 709.113 192.295 709.179C191.309 709.624 190.357 710.101 189.405 710.611L188.009 711.335L187.287 711.714C187.063 711.859 186.811 711.955 186.548 711.994C186.501 711.991 186.455 711.977 186.416 711.952C186.376 711.927 186.343 711.892 186.32 711.851C186.297 711.81 186.285 711.764 186.285 711.717C186.284 711.67 186.296 711.624 186.318 711.582V711.582Z" fill="black"/>
<path opacity="0.1" d="M179.93 705.558C179.996 705.446 180.085 705.35 180.193 705.278L180.554 705.081L181.26 704.735C181.753 704.472 182.262 704.241 182.771 704.027C183.773 703.616 184.774 703.237 185.809 702.891C185.94 702.891 186.039 703.072 185.907 703.138C184.938 703.583 183.97 704.076 183.034 704.57L181.638 705.295L180.899 705.673C180.677 705.821 180.424 705.917 180.16 705.953C179.98 705.953 179.815 705.706 179.93 705.558Z" fill="black"/>
<path opacity="0.1" d="M173.543 699.55C173.608 699.438 173.698 699.342 173.806 699.27L174.183 699.073L174.873 698.727C175.366 698.48 175.875 698.233 176.384 698.019C177.385 697.608 178.403 697.229 179.421 696.883C179.454 696.87 179.491 696.871 179.523 696.885C179.555 696.899 179.581 696.925 179.594 696.958C179.607 696.99 179.606 697.027 179.593 697.059C179.579 697.092 179.553 697.117 179.52 697.13C178.551 697.575 177.599 698.069 176.646 698.562L175.251 699.287L174.512 699.665C174.292 699.817 174.038 699.913 173.773 699.945C173.727 699.945 173.681 699.934 173.641 699.911C173.6 699.888 173.567 699.855 173.544 699.814C173.52 699.774 173.508 699.729 173.508 699.682C173.508 699.636 173.52 699.59 173.543 699.55V699.55Z" fill="black"/>
<path opacity="0.1" d="M167.172 693.476C167.246 693.371 167.335 693.277 167.435 693.196L167.796 693.015L168.502 692.653C168.995 692.406 169.487 692.159 169.996 691.945C170.998 691.534 172.016 691.155 173.034 690.81C173.067 690.797 173.103 690.797 173.135 690.811C173.168 690.825 173.193 690.851 173.206 690.884C173.219 690.917 173.219 690.953 173.205 690.986C173.191 691.018 173.165 691.044 173.132 691.057C172.164 691.501 171.211 691.995 170.259 692.489C169.799 692.736 169.339 692.982 168.863 693.213L168.141 693.608C167.916 693.749 167.664 693.838 167.402 693.871C167.355 693.872 167.31 693.86 167.27 693.837C167.229 693.814 167.196 693.781 167.173 693.741C167.149 693.701 167.137 693.655 167.137 693.609C167.137 693.562 167.149 693.517 167.172 693.476Z" fill="black"/>
<path opacity="0.1" d="M160.784 687.435C160.855 687.332 160.944 687.243 161.047 687.172C161.164 687.1 161.285 687.034 161.408 686.975L162.115 686.612C162.607 686.366 163.116 686.135 163.625 685.921C164.627 685.493 165.628 685.131 166.663 684.769C166.794 684.769 166.893 684.95 166.761 685.016C165.793 685.477 164.824 685.954 163.888 686.464L162.492 687.172L161.753 687.567C161.53 687.71 161.277 687.8 161.014 687.83C160.968 687.831 160.922 687.819 160.882 687.796C160.842 687.773 160.808 687.74 160.785 687.7C160.762 687.66 160.749 687.614 160.749 687.568C160.749 687.521 160.761 687.476 160.784 687.435Z" fill="black"/>
<path opacity="0.1" d="M154.348 681.444C154.418 681.341 154.507 681.251 154.611 681.181C154.731 681.105 154.858 681.039 154.988 680.983L155.678 680.621C156.171 680.374 156.68 680.144 157.189 679.93C158.19 679.502 159.208 679.14 160.226 678.794C160.259 678.781 160.295 678.781 160.328 678.795C160.36 678.809 160.386 678.835 160.399 678.868C160.412 678.901 160.411 678.937 160.397 678.97C160.384 679.002 160.357 679.028 160.325 679.041C159.356 679.485 158.404 679.963 157.451 680.473L156.056 681.181L155.317 681.576C155.095 681.722 154.842 681.812 154.578 681.839C154.532 681.839 154.486 681.828 154.446 681.805C154.405 681.782 154.372 681.748 154.349 681.708C154.325 681.668 154.313 681.623 154.313 681.576C154.313 681.53 154.325 681.484 154.348 681.444Z" fill="black"/>
<path opacity="0.1" d="M148.026 675.37C148.091 675.258 148.181 675.163 148.289 675.09L148.65 674.893L149.34 674.531C149.849 674.284 150.341 674.053 150.85 673.839C151.852 673.428 152.87 673.049 153.888 672.704C153.921 672.691 153.957 672.691 153.99 672.705C154.022 672.719 154.047 672.745 154.061 672.778C154.074 672.811 154.073 672.847 154.059 672.88C154.045 672.912 154.019 672.938 153.987 672.951C153.018 673.395 152.065 673.889 151.113 674.383L149.717 675.107L148.995 675.486C148.772 675.631 148.52 675.726 148.256 675.765C148.059 675.765 147.911 675.518 148.026 675.37Z" fill="black"/>
<path opacity="0.1" d="M141.639 669.329C141.704 669.217 141.794 669.122 141.902 669.05L142.263 668.852L142.969 668.506C143.462 668.26 143.954 668.013 144.48 667.799C145.481 667.387 146.483 667.009 147.517 666.663C147.649 666.663 147.747 666.844 147.616 666.91C146.631 667.354 145.678 667.848 144.726 668.342L143.347 669.066L142.608 669.445C142.386 669.592 142.133 669.688 141.869 669.724C141.672 669.724 141.524 669.478 141.639 669.329Z" fill="black"/>
<path d="M567.229 526.21C565.866 526.95 545.292 557.484 536.261 562.01C533.568 563.343 375.607 532.152 338.564 539.674C284.87 550.587 170.242 638.072 170.242 638.072L225.496 709.08C225.496 709.08 325.526 632.525 361.65 624.427C379.712 620.361 498.248 640.887 554.618 637.693C624.354 633.726 645.027 568.249 645.027 568.249C645.027 568.249 576.424 533.633 567.229 526.21Z" fill="#455A64"/>
<path d="M188.518 629.315C196.991 639.981 194.708 636.805 203.05 647.553C207.138 652.82 233.968 687.435 236.908 693.015C236.908 693.131 236.793 693.279 236.694 693.18C232.113 688.851 205.89 653.775 201.966 648.524C193.756 637.611 196.285 640.656 188.272 629.644C188.228 629.612 188.199 629.563 188.192 629.509C188.184 629.455 188.198 629.4 188.231 629.356C188.263 629.313 188.312 629.284 188.366 629.276C188.42 629.268 188.474 629.282 188.518 629.315Z" fill="#263238"/>
<path d="M240.454 680.209C269.863 659.75 299.566 639.636 330.978 622.204C334.919 620.048 338.925 618.007 343.014 616.114C344.032 615.653 345.05 615.176 346.101 614.765C347.152 614.353 348.186 613.892 349.27 613.53C351.381 612.707 353.588 612.154 355.838 611.884C360.326 611.498 364.832 611.366 369.335 611.489C373.818 611.489 378.3 611.719 382.783 611.933C400.681 612.839 418.546 614.205 436.394 615.802L489.989 620.542C507.821 622.073 525.67 623.587 543.535 624.427C548.001 624.624 552.484 624.772 556.95 624.756C561.395 624.876 565.841 624.54 570.217 623.752C578.883 621.619 587.153 618.113 594.716 613.365C602.386 608.756 609.717 603.602 616.653 597.942C623.634 592.324 630.315 586.341 636.669 580.018C630.396 586.434 623.792 592.517 616.883 598.239C610.006 604.009 602.73 609.284 595.11 614.024C587.504 618.892 579.157 622.484 570.398 624.657C565.964 625.483 561.458 625.852 556.95 625.76C552.451 625.76 547.968 625.661 543.502 625.48C525.588 624.739 507.723 623.307 489.874 621.859L436.345 617.365C418.496 615.933 400.648 614.304 382.783 613.365C378.317 613.135 373.85 612.937 369.401 612.855C364.948 612.717 360.491 612.827 356.051 613.184C353.871 613.413 351.73 613.922 349.68 614.699C348.646 615.044 347.611 615.456 346.577 615.884C345.542 616.312 344.524 616.74 343.523 617.201C339.451 619.044 335.46 621.052 331.536 623.176C315.789 631.685 300.552 641.15 285.445 650.746C270.339 660.342 255.298 670.169 240.454 680.209Z" fill="#263238"/>
<path d="M61.0495 660.902C63.3976 665.05 159.57 751.712 165.317 752.699C167.5 753.078 180.899 739.778 196.646 723.236L134.808 667.19C134.808 667.19 83.1837 650.516 76.7634 650.17C70.3432 649.824 58.7014 656.754 61.0495 660.902Z" fill="#E6A377"/>
<path opacity="0.1" d="M196.646 723.236C180.899 739.778 167.5 753.078 165.317 752.699C164.266 752.518 160.21 749.407 154.249 744.617L102.51 657.067C118.093 661.791 134.808 667.19 134.808 667.19L196.646 723.236Z" fill="black"/>
<path d="M65.8933 658.285C82.3133 672.424 147.484 730.972 162.771 746.198C162.903 746.313 162.771 746.412 162.771 746.296C145.974 732.651 81.3281 673.56 65.6799 658.548C65.3186 658.235 65.5485 657.988 65.8933 658.285Z" fill="#263238"/>
<path d="M86.0571 652.228C87.895 653.794 89.3874 655.727 90.439 657.903C91.4907 660.08 92.0786 662.452 92.1653 664.869C92.361 669.211 90.879 673.462 88.0275 676.736C88.0275 676.835 87.7648 676.736 87.8305 676.555C90.1598 672.865 91.2289 668.516 90.8764 664.163C90.524 659.81 88.7691 655.69 85.8765 652.425C85.7615 652.31 85.9257 652.112 86.0571 652.228Z" fill="#263238"/>
<path d="M127.124 663.157C133.692 668.885 139.077 677.971 138.355 686.81C138.355 687.156 137.83 687.106 137.731 686.81C134.737 678.737 130.883 671.011 126.237 663.766C126.198 663.65 126.198 663.525 126.236 663.409C126.275 663.294 126.35 663.194 126.45 663.125C126.551 663.056 126.671 663.022 126.792 663.027C126.914 663.033 127.03 663.079 127.124 663.157V663.157Z" fill="#263238"/>
<path d="M120.391 660.622C126.959 666.35 132.362 675.436 131.623 684.275C131.623 684.621 131.114 684.571 130.999 684.275C128.005 676.202 124.152 668.476 119.505 661.231C119.445 661.114 119.43 660.978 119.462 660.85C119.494 660.722 119.572 660.61 119.681 660.536C119.79 660.461 119.922 660.429 120.052 660.445C120.183 660.46 120.304 660.524 120.391 660.622V660.622Z" fill="#263238"/>
<path d="M113.659 658.071C120.227 663.799 125.629 672.885 124.89 681.724C124.89 682.069 124.381 682.02 124.283 681.724C121.282 673.654 117.429 665.928 112.789 658.68C112.74 658.565 112.731 658.437 112.766 658.316C112.8 658.196 112.874 658.091 112.977 658.02C113.079 657.948 113.203 657.914 113.327 657.924C113.451 657.933 113.569 657.985 113.659 658.071V658.071Z" fill="#263238"/>
<path d="M106.943 655.536C113.511 661.264 118.897 670.35 118.175 679.189C118.175 679.535 117.649 679.485 117.551 679.189C114.552 671.118 110.699 663.392 106.057 656.145C105.997 656.027 105.982 655.892 106.014 655.764C106.046 655.636 106.124 655.524 106.233 655.45C106.342 655.375 106.474 655.343 106.604 655.358C106.735 655.374 106.856 655.437 106.943 655.536V655.536Z" fill="#263238"/>
<path d="M172.41 727.137C179.635 733.721 169.504 744.947 162.262 738.396C155.021 731.845 165.136 720.586 172.41 727.137Z" fill="white"/>
<path d="M127.633 649.561C127.074 657.198 129.849 664.819 131.573 672.144C131.629 672.302 131.721 672.444 131.84 672.561C131.96 672.677 132.105 672.764 132.264 672.815C132.423 672.866 132.592 672.88 132.757 672.855C132.922 672.83 133.079 672.767 133.215 672.671C133.237 672.698 133.264 672.72 133.296 672.736C133.327 672.751 133.361 672.759 133.396 672.759C133.431 672.759 133.465 672.751 133.496 672.736C133.528 672.72 133.555 672.698 133.577 672.671C138.416 666.305 141.507 658.78 142.542 650.845C143.051 646.203 141.327 639.85 135.629 639.619C130.227 639.405 127.961 645.1 127.633 649.561ZM132.148 643.932C139.094 637.479 140.571 648.59 140.062 651.997C139.661 654.193 139.113 656.36 138.42 658.482C137 662.849 135.356 667.14 133.494 671.338C132.87 667.683 131.852 664.128 131.163 660.507C130.293 656.178 128.306 647.503 132.148 643.932Z" fill="#263238"/>
<path d="M160.193 689.18C163.477 684.506 159.487 679.304 155.497 676.852C148.581 672.856 140.739 670.75 132.756 670.745C132.575 670.745 132.509 670.893 132.526 671.041C132.36 671.085 132.207 671.17 132.081 671.286C131.955 671.403 131.86 671.549 131.803 671.712C131.746 671.874 131.73 672.048 131.756 672.218C131.782 672.388 131.849 672.549 131.951 672.687C136.696 678.514 141.064 685.345 147.452 689.542C151.195 691.962 157.09 693.608 160.193 689.18ZM140.966 680.012C138.552 677.214 136.302 674.3 133.79 671.568C138.231 672.636 142.615 673.927 146.926 675.436C149.038 676.199 151.096 677.107 153.084 678.152C156.088 679.798 163.987 687.732 154.726 689.361C149.504 690.234 143.823 683.37 140.966 680.012Z" fill="#263238"/>
<path d="M283.097 725.261L205.348 745.013C191.03 751.695 178.354 757.308 171.523 759.596C171.505 759.604 171.486 759.608 171.466 759.608C171.446 759.608 171.426 759.604 171.408 759.596C168.83 760.452 167.106 760.847 166.482 760.6C166.482 760.6 166.384 760.6 166.351 760.6C161.425 757.687 104.76 644.475 104.103 639.85C103.446 635.224 116.516 633.019 122.165 635.652C127.813 638.286 168.912 671.864 168.912 671.864L246.891 652.919L283.097 725.261Z" fill="#FCDECA"/>
<path d="M104.119 639.8C104.776 644.409 161.491 757.637 166.351 760.551C166.351 760.551 166.351 760.551 166.499 760.551C168.196 760.598 169.881 760.254 171.425 759.547C171.443 759.554 171.462 759.558 171.482 759.558C171.502 759.558 171.521 759.554 171.54 759.547C178.37 757.275 191.047 751.646 205.365 744.963L218.878 741.523L183.608 668.276L169.011 671.831C169.011 671.831 127.961 638.22 122.23 635.619C116.5 633.019 103.446 635.175 104.119 639.8Z" fill="#DBDBDB"/>
<path opacity="0.1" d="M157.977 737.688C159.41 737.097 160.91 736.682 162.443 736.453C165.507 735.975 168.641 736.229 171.589 737.194C174.563 738.199 177.231 739.95 179.339 742.28C181.371 744.642 182.882 747.407 183.773 750.395C183.773 750.56 183.559 750.625 183.51 750.395C182.459 747.591 180.764 745.074 178.561 743.049C176.359 741.024 173.712 739.549 170.834 738.741C168.107 737.953 165.237 737.801 162.443 738.297C161.084 738.547 159.752 738.933 158.469 739.449C157.83 739.718 157.205 740.02 156.598 740.354C155.99 740.684 155.563 741.062 154.841 740.881C154.756 740.86 154.677 740.822 154.607 740.77C154.537 740.718 154.479 740.653 154.434 740.578C154.39 740.503 154.361 740.419 154.349 740.333C154.337 740.247 154.342 740.159 154.364 740.074C154.594 738.873 156.926 738.116 157.977 737.688Z" fill="black"/>
<path opacity="0.1" d="M125.728 639.504C127.772 641.597 129.124 644.269 129.603 647.158C130.825 653.134 130.589 659.317 128.913 665.181C128.492 666.591 127.993 667.975 127.419 669.329C126.913 670.721 126.205 672.03 125.317 673.214C125.28 673.258 125.23 673.289 125.173 673.301C125.117 673.314 125.058 673.307 125.006 673.283C124.954 673.259 124.911 673.218 124.884 673.167C124.857 673.115 124.848 673.057 124.858 673C125.237 671.733 125.681 670.486 126.188 669.264C126.662 667.876 127.062 666.464 127.386 665.033C128.037 662.245 128.428 659.401 128.552 656.54C129 650.866 127.686 645.191 124.792 640.294C124.687 640.17 124.637 640.009 124.65 639.847C124.664 639.685 124.742 639.535 124.866 639.43C124.99 639.325 125.151 639.274 125.312 639.288C125.474 639.302 125.623 639.379 125.728 639.504V639.504Z" fill="black"/>
<path opacity="0.1" d="M172.492 676.506C180.833 693.246 189.043 710.051 197.549 726.725C199.963 731.449 202.327 736.19 204.807 740.881C204.807 741.029 204.642 741.128 204.56 740.98C194.841 724.971 185.988 708.448 178.042 691.485C175.842 686.645 173.789 681.74 171.786 676.819C171.767 676.73 171.779 676.637 171.82 676.556C171.861 676.475 171.929 676.411 172.012 676.374C172.095 676.337 172.188 676.33 172.275 676.354C172.363 676.378 172.439 676.432 172.492 676.506V676.506Z" fill="black"/>
<path opacity="0.1" d="M206.022 737.77C206.12 737.686 206.239 737.629 206.367 737.606C206.503 737.596 206.64 737.596 206.777 737.606L207.549 737.507C208.107 737.507 208.649 737.408 209.191 737.392C210.275 737.392 211.358 737.392 212.475 737.392C212.51 737.392 212.543 737.405 212.568 737.43C212.592 737.455 212.606 737.488 212.606 737.523C212.606 737.558 212.592 737.592 212.568 737.616C212.543 737.641 212.51 737.655 212.475 737.655C211.408 737.737 210.34 737.852 209.273 737.984L207.631 738.149L206.81 738.247C206.551 738.312 206.281 738.312 206.022 738.247C205.976 738.226 205.938 738.193 205.911 738.15C205.884 738.108 205.87 738.059 205.87 738.009C205.87 737.959 205.884 737.91 205.911 737.867C205.938 737.825 205.976 737.791 206.022 737.77V737.77Z" fill="black"/>
<path opacity="0.1" d="M202.179 729.853C202.286 729.782 202.402 729.726 202.524 729.688H202.935H203.706C204.265 729.688 204.823 729.589 205.348 729.573C206.432 729.573 207.516 729.573 208.632 729.573C208.78 729.573 208.797 729.836 208.632 729.836C207.565 729.919 206.498 730.034 205.348 730.166L203.805 730.347L202.967 730.445C202.714 730.512 202.449 730.512 202.196 730.445C202.117 730.448 202.041 730.419 201.984 730.365C201.927 730.31 201.894 730.236 201.892 730.157C201.89 730.079 201.919 730.003 201.973 729.945C202.027 729.888 202.101 729.855 202.179 729.853V729.853Z" fill="black"/>
<path opacity="0.1" d="M198.337 721.936C198.443 721.864 198.56 721.809 198.682 721.771H199.092L199.881 721.689C200.422 721.689 200.981 721.59 201.523 721.573C202.606 721.573 203.674 721.573 204.807 721.573C204.954 721.573 204.971 721.82 204.807 721.837C203.723 721.837 202.672 722.018 201.523 722.15L199.881 722.331L199.06 722.429C198.8 722.487 198.531 722.487 198.271 722.429C198.229 722.4 198.196 722.36 198.175 722.312C198.154 722.265 198.147 722.213 198.154 722.162C198.16 722.111 198.181 722.063 198.213 722.023C198.246 721.983 198.289 721.953 198.337 721.936V721.936Z" fill="black"/>
<path opacity="0.1" d="M194.511 714.035C194.602 713.948 194.716 713.891 194.84 713.87H195.25L196.038 713.771C196.596 713.771 197.138 713.673 197.68 713.656C198.764 713.656 199.848 713.656 200.964 713.656C201.112 713.656 201.128 713.92 200.964 713.92C199.897 714.002 198.83 714.117 197.762 714.249L196.12 714.413L195.299 714.529C195.04 714.586 194.771 714.586 194.511 714.529C194.461 714.51 194.418 714.476 194.387 714.432C194.356 714.388 194.34 714.335 194.34 714.282C194.34 714.228 194.356 714.175 194.387 714.131C194.418 714.087 194.461 714.053 194.511 714.035V714.035Z" fill="black"/>
<path opacity="0.1" d="M190.669 706.134C190.776 706.063 190.892 706.007 191.014 705.969H191.424L192.196 705.887C192.754 705.887 193.296 705.788 193.838 705.772C194.922 705.772 196.006 705.772 197.122 705.772C197.151 705.782 197.176 705.801 197.194 705.826C197.212 705.851 197.221 705.881 197.221 705.912C197.221 705.943 197.212 705.973 197.194 705.998C197.176 706.023 197.151 706.042 197.122 706.052C196.055 706.052 194.988 706.233 193.838 706.364L192.196 706.545L191.375 706.644C191.116 706.702 190.847 706.702 190.587 706.644C190.54 706.615 190.503 706.573 190.48 706.523C190.457 706.472 190.449 706.416 190.458 706.362C190.467 706.307 190.492 706.256 190.529 706.216C190.567 706.175 190.615 706.147 190.669 706.134V706.134Z" fill="black"/>
<path opacity="0.1" d="M186.827 698.217C186.925 698.133 187.044 698.076 187.171 698.052H187.582L188.37 697.97C188.912 697.97 189.47 697.871 190.012 697.855C191.079 697.855 192.163 697.855 193.296 697.855C193.331 697.855 193.364 697.868 193.389 697.893C193.414 697.918 193.427 697.951 193.427 697.986C193.427 698.021 193.414 698.055 193.389 698.079C193.364 698.104 193.331 698.118 193.296 698.118C192.229 698.118 191.162 698.299 190.111 698.431L188.469 698.612L187.648 698.71C187.389 698.775 187.118 698.775 186.859 698.71C186.728 698.595 186.662 698.315 186.827 698.217Z" fill="black"/>
<path opacity="0.1" d="M183.001 690.299C183.095 690.219 183.208 690.162 183.329 690.135C183.466 690.127 183.603 690.127 183.74 690.135L184.528 690.053C185.07 690.053 185.628 689.937 186.17 689.921C187.253 689.921 188.321 689.921 189.454 689.921C189.602 689.921 189.618 690.184 189.454 690.184C188.386 690.184 187.319 690.382 186.17 690.513L184.528 690.695L183.707 690.793C183.448 690.857 183.177 690.857 182.919 690.793C182.886 690.788 182.855 690.776 182.827 690.759C182.8 690.741 182.776 690.719 182.756 690.692C182.737 690.665 182.724 690.635 182.716 690.603C182.709 690.571 182.708 690.538 182.713 690.505C182.719 690.473 182.73 690.442 182.748 690.414C182.765 690.386 182.788 690.362 182.815 690.343C182.841 690.324 182.871 690.31 182.903 690.303C182.935 690.295 182.968 690.294 183.001 690.299V690.299Z" fill="black"/>
<path opacity="0.1" d="M179.159 682.382C179.259 682.311 179.37 682.256 179.487 682.218H179.914L180.686 682.135C181.244 682.135 181.786 682.037 182.328 682.02C183.411 682.02 184.495 682.02 185.612 682.02C185.641 682.03 185.666 682.049 185.684 682.074C185.701 682.099 185.711 682.129 185.711 682.16C185.711 682.191 185.701 682.221 185.684 682.246C185.666 682.271 185.641 682.29 185.612 682.3C184.544 682.3 183.477 682.481 182.328 682.613L180.686 682.794L179.865 682.893C179.605 682.95 179.336 682.95 179.076 682.893C179.03 682.863 178.992 682.821 178.969 682.771C178.946 682.72 178.939 682.664 178.948 682.61C178.956 682.555 178.981 682.505 179.019 682.464C179.056 682.423 179.105 682.395 179.159 682.382V682.382Z" fill="black"/>
<path opacity="0.1" d="M175.316 674.481C175.415 674.397 175.534 674.34 175.661 674.317C175.798 674.309 175.935 674.309 176.072 674.317L176.843 674.218C177.402 674.218 177.96 674.119 178.485 674.103C179.569 674.103 180.653 674.103 181.769 674.103C181.804 674.103 181.838 674.117 181.862 674.141C181.887 674.166 181.901 674.2 181.901 674.235C181.901 674.269 181.887 674.303 181.862 674.328C181.838 674.352 181.804 674.366 181.769 674.366C180.702 674.449 179.635 674.564 178.485 674.695L176.942 674.86L176.104 674.959C175.851 675.024 175.586 675.024 175.333 674.959C175.287 674.939 175.247 674.907 175.219 674.865C175.19 674.824 175.174 674.775 175.173 674.725C175.171 674.675 175.183 674.626 175.209 674.582C175.234 674.539 175.272 674.504 175.316 674.481V674.481Z" fill="black"/>
<path d="M102.953 638.846C103.627 643.57 161.556 759.464 166.548 762.477C168.436 763.645 185.76 756.172 206.449 746.543L169.323 671.716C169.323 671.716 127.354 637.282 121.508 634.566C115.663 631.85 102.28 634.105 102.953 638.846Z" fill="#E6A377"/>
<path d="M108.372 638.187C118.602 657.363 157.878 735.762 166.482 755.514C166.482 755.679 166.482 755.728 166.367 755.514C155.859 736.717 117.206 658.038 108.093 638.319C107.896 637.924 108.191 637.776 108.372 638.187Z" fill="#263238"/>
<path d="M129.39 639.932C130.528 642.061 131.212 644.405 131.398 646.813C131.585 649.222 131.27 651.643 130.473 653.923C129.061 658.044 126.121 661.462 122.263 663.47C122.148 663.47 122.033 663.305 122.148 663.223C125.655 660.636 128.231 656.979 129.489 652.8C130.748 648.622 130.62 644.147 129.127 640.047C129.119 640.03 129.115 640.011 129.115 639.992C129.115 639.973 129.118 639.955 129.125 639.937C129.132 639.92 129.142 639.904 129.155 639.89C129.168 639.876 129.184 639.865 129.201 639.858C129.218 639.85 129.237 639.846 129.255 639.846C129.274 639.845 129.293 639.849 129.311 639.856C129.328 639.863 129.344 639.873 129.358 639.886C129.371 639.899 129.382 639.915 129.39 639.932V639.932Z" fill="#263238"/>
<path d="M163.625 665.149C167.615 672.868 169.389 683.255 165.464 691.271C165.316 691.583 164.873 691.369 164.873 691.073C165.014 682.488 164.238 673.913 162.558 665.494C162.512 665.352 162.525 665.198 162.592 665.065C162.66 664.933 162.778 664.832 162.919 664.787C163.061 664.741 163.215 664.753 163.347 664.821C163.479 664.889 163.579 665.007 163.625 665.149V665.149Z" fill="#263238"/>
<path d="M158.289 660.309C162.295 668.046 164.052 678.415 160.128 686.448C159.98 686.761 159.537 686.448 159.537 686.25C159.694 677.662 158.934 669.081 157.271 660.655C157.245 660.526 157.267 660.391 157.332 660.277C157.398 660.162 157.503 660.076 157.628 660.033C157.753 659.991 157.889 659.996 158.01 660.047C158.132 660.097 158.231 660.191 158.289 660.309Z" fill="#263238"/>
<path d="M152.952 655.487C156.959 663.206 158.716 673.593 154.791 681.609C154.644 681.921 154.2 681.707 154.2 681.411C154.357 672.828 153.597 664.253 151.934 655.832C151.908 655.703 151.93 655.568 151.996 655.454C152.062 655.339 152.167 655.253 152.292 655.211C152.416 655.168 152.552 655.173 152.674 655.224C152.795 655.274 152.894 655.368 152.952 655.487V655.487Z" fill="#263238"/>
<path d="M147.616 650.647C151.622 658.384 153.379 668.753 149.455 676.786C149.307 677.099 148.864 676.868 148.864 676.588C149.03 668 148.27 659.418 146.598 650.993C146.572 650.864 146.594 650.729 146.66 650.615C146.725 650.5 146.83 650.414 146.955 650.371C147.08 650.329 147.216 650.334 147.337 650.384C147.459 650.435 147.558 650.529 147.616 650.647V650.647Z" fill="#263238"/>
<path d="M182.426 741.276C186.761 750.016 173.214 756.781 168.88 748.025C164.545 739.268 178.075 732.47 182.426 741.276Z" fill="white"/>
<path d="M169.126 652.672C165.842 659.585 165.628 667.683 164.578 675.14C164.567 675.306 164.596 675.473 164.662 675.625C164.728 675.778 164.829 675.913 164.958 676.019C165.086 676.125 165.237 676.199 165.4 676.235C165.562 676.271 165.73 676.268 165.891 676.226C165.891 676.358 166.088 676.457 166.236 676.358C173.068 672.212 178.692 666.337 182.541 659.322C184.708 655.207 185.415 648.639 180.193 646.351C175.185 644.179 170.998 648.639 169.126 652.672ZM175.382 649.084C184.199 645.627 181.539 656.507 179.815 659.486C178.672 661.393 177.399 663.219 176.006 664.951C173.08 668.496 169.972 671.885 166.696 675.107C167.451 671.486 167.862 667.815 168.469 664.161C169.126 659.816 170.439 650.993 175.316 649.084H175.382Z" fill="#263238"/>
<path d="M184.922 701.492C189.684 698.332 187.878 691.995 185.053 688.324C180.074 682.063 173.539 677.227 166.105 674.3C165.94 674.3 165.825 674.3 165.793 674.498C165.627 674.48 165.459 674.502 165.303 674.563C165.148 674.623 165.009 674.721 164.899 674.847C164.79 674.973 164.712 675.124 164.673 675.287C164.634 675.45 164.635 675.619 164.676 675.782C166.958 682.958 168.535 690.908 172.886 697.18C175.53 700.768 180.423 704.488 184.922 701.492ZM170.374 685.905C169.159 682.415 168.124 678.876 166.778 675.42C170.456 678.168 174.249 680.736 177.664 683.847C179.326 685.323 180.889 686.907 182.344 688.588C184.528 691.238 188.912 701.525 179.717 699.599C174.594 698.546 171.819 690.085 170.374 685.905Z" fill="#263238"/>
<path d="M575.915 532.119C574.568 532.86 545.045 577.417 544.405 580.001C543.699 582.931 550.201 581.878 549.758 586.453C549.758 586.453 375.969 611.341 356.462 616.444C324.163 624.92 324.377 629.447 197.992 661.61L235.627 739.696C235.627 739.696 355.148 705.657 405.656 694.019C448.955 684.028 582.269 665.758 582.269 665.758C662.826 652.178 661.824 573.582 661.824 573.582C661.824 573.582 575.964 532.086 575.915 532.119Z" fill="#455A64"/>
<path d="M217.417 658.4C223.394 670.646 221.851 667.041 227.696 679.354C230.553 685.378 249.288 724.964 250.98 731.054C250.98 731.186 250.799 731.285 250.733 731.17C247.17 725.952 229.125 686.036 226.382 679.963C220.783 667.535 222.524 671.041 217.056 658.565C217.034 658.517 217.032 658.462 217.051 658.412C217.069 658.363 217.106 658.323 217.154 658.301C217.202 658.279 217.257 658.278 217.306 658.296C217.355 658.315 217.395 658.352 217.417 658.4V658.4Z" fill="#263238"/>
<path d="M542.517 575.557C548.232 582.122 553.369 589.171 557.869 596.626C557.911 596.682 557.928 596.753 557.917 596.823C557.906 596.892 557.869 596.955 557.812 596.996C557.755 597.038 557.685 597.055 557.615 597.044C557.546 597.033 557.484 596.995 557.442 596.938C552.122 590.108 546.622 583.31 541.696 576.182C541.613 576.073 541.577 575.936 541.595 575.8C541.614 575.664 541.685 575.541 541.794 575.458C541.903 575.375 542.04 575.339 542.176 575.357C542.311 575.376 542.434 575.448 542.517 575.557V575.557Z" fill="#263238"/>
<path d="M575.472 531.872C575.652 531.658 576.079 531.872 575.915 532.119C570.976 539.494 566.411 547.113 562.237 554.949C560.25 558.57 550.382 579.227 557.196 581.812C558.346 582.256 559.495 581.614 560.644 580.166C561.933 578.203 562.971 576.085 563.731 573.862C565.718 569.483 567.836 565.171 570.168 560.973C574.437 553.099 579.51 545.69 585.307 538.868C585.347 538.827 585.399 538.803 585.456 538.799C585.512 538.795 585.567 538.812 585.612 538.847C585.656 538.881 585.687 538.931 585.697 538.986C585.707 539.042 585.697 539.099 585.668 539.147C578.611 549.329 572.331 560.031 566.884 571.162C564.355 576.561 561.876 585.581 556.26 582.898C550.645 580.215 555.439 565.566 557.065 561.763C561.888 551.045 568.075 540.998 575.472 531.872Z" fill="#263238"/>
<path d="M556.638 582.223C556.309 583.845 555.882 585.444 555.357 587.013C555.036 588.295 554.479 589.507 553.715 590.585C553.567 590.782 553.272 590.585 553.255 590.404C553.292 589.025 553.535 587.66 553.978 586.355C554.339 584.857 554.667 583.326 555.062 581.845C555.112 581.635 555.243 581.454 555.426 581.341C555.609 581.229 555.83 581.194 556.039 581.244C556.248 581.294 556.428 581.425 556.541 581.609C556.653 581.793 556.688 582.014 556.638 582.223V582.223Z" fill="#263238"/>
<path d="M361.519 615.077C374.918 611.67 551.4 586.124 553.748 585.894C553.994 585.894 554.011 586.453 553.748 586.503C545.817 588.247 373.933 613.958 362.094 617.25C353.638 619.637 206.629 659.536 198.14 661.692C197.91 661.692 197.795 661.396 198.025 661.297C212.77 655.882 359.746 615.604 361.519 615.077Z" fill="#263238"/>
<path d="M302.965 706.299C329.697 698.661 356.691 691.945 383.817 685.855C410.943 679.765 438.48 674.333 466.032 669.675C493.585 665.017 521.253 661.215 549.019 658.153C562.155 656.688 581.432 653.857 594.272 649.232C627.457 637.265 643.697 613.826 659.558 585.186C659.673 584.972 659.969 585.186 659.854 585.4C640.511 622.221 626.735 649.051 562.976 658.235C549.314 660.194 535.571 661.527 521.926 663.354C507.881 665.264 493.875 667.36 479.907 669.642C452.207 674.152 424.605 679.255 397.167 685.148C369.729 691.04 342.455 697.674 315.362 704.899C288.269 712.125 255.741 722.429 252.26 723.582C252.063 723.582 251.932 723.351 252.129 723.285C264.838 718.874 276.266 713.92 302.965 706.299Z" fill="#263238"/>
<path d="M575.291 468.303C575.243 468.549 575.287 468.804 575.414 469.019C575.541 469.235 575.743 469.396 575.981 469.472C577.114 469.67 578.477 469.867 580.004 470.081C584.618 460.205 589.314 452.551 587.984 455.596C585.947 460.409 584.593 465.484 583.961 470.674L591.908 471.727C596.834 454.181 602.138 441.293 601.481 445.391C598.854 461.736 599.248 467.102 599.757 472.83C618.952 475.348 644.091 478.344 662.432 480.089C665.502 470.427 668.409 459.909 668.655 460.683C670.609 466.46 670.494 474.575 669.936 480.797C675.749 481.307 680.428 481.603 683.285 481.636C683.285 481.636 685.453 473.406 685.912 470.756C687.119 463.84 687.119 456.767 685.912 449.852C684.648 442.79 681.906 436.437 679.344 429.935V429.787C677.641 425.551 676.429 421.133 675.732 416.619C675.724 416.587 675.724 416.553 675.732 416.52C675.263 413.212 675.081 409.869 675.19 406.529C675.535 394.299 670.166 383.271 659.821 379.189C641.759 357.248 620.643 364.161 613.024 379.189C612.285 380.654 611.546 382.349 610.807 384.209C608.049 391.057 605.307 400.027 602.909 406.941C601.999 409.651 600.93 412.306 599.708 414.891C593.205 427.269 580.874 433.54 575.291 468.303Z" fill="#263238"/>
<path d="M664.041 382.777C667.329 384.836 670.03 387.713 671.88 391.128C673.73 394.543 674.667 398.38 674.599 402.266C674.731 407.5 674.599 412.57 675.929 417.607C677.484 422.561 679.758 427.259 682.678 431.548C686.98 438.511 689.788 445.325 689.706 454.098C689.624 462.872 688.195 473.406 684.583 481.439C684.583 481.439 684.501 481.439 684.583 481.439C687.631 472.216 688.902 462.497 688.326 452.798C687.735 443.037 683.253 436.569 678.754 428.832C675.128 422.689 673.159 415.707 673.039 408.57C672.957 404.142 673.466 399.583 672.218 395.303C670.741 390.217 667.128 386.761 663.516 383.666C662.974 383.205 663.532 382.432 664.041 382.777Z" fill="#263238"/>
<path d="M586.473 427.647C592.089 421.162 597.819 415.697 601.547 407.385C604.946 399.813 607.261 391.699 610.709 384.127C610.703 384.112 610.7 384.096 610.701 384.079C610.703 384.063 610.708 384.047 610.717 384.033C610.726 384.02 610.738 384.008 610.753 384.001C610.767 383.993 610.783 383.989 610.799 383.989C610.816 383.989 610.832 383.993 610.846 384.001C610.861 384.008 610.873 384.02 610.882 384.033C610.891 384.047 610.896 384.063 610.898 384.079C610.899 384.096 610.896 384.112 610.89 384.127C605.389 397.608 603.222 411.484 593.747 422.429C588.608 428.372 583.501 433.869 579.774 441.194C575.944 448.932 573.519 457.293 572.615 465.884C572.615 466.197 572.221 466.147 572.221 465.884C572.348 451.857 577.393 438.321 586.473 427.647V427.647Z" fill="#263238"/>
<path d="M658.573 378.58C659.411 381.674 675.831 386.069 684.845 375.815C693.86 365.56 686.028 350.647 671.824 355.273C662.777 358.137 656.8 371.996 658.573 378.58Z" fill="#263238"/>
<path d="M687.193 360.474C684.785 356.97 681.258 354.393 677.194 353.166C675.311 352.545 673.298 352.433 671.358 352.841C669.418 353.248 667.619 354.161 666.143 355.487C663.138 358.332 660.954 361.937 659.821 365.922C659.177 367.939 658.721 370.011 658.458 372.111C658.111 374.235 658.15 376.404 658.573 378.514C657.688 376.481 657.251 374.28 657.292 372.062C657.274 369.846 657.517 367.636 658.015 365.478C658.929 360.975 661.226 356.871 664.583 353.742C666.34 352.167 668.501 351.117 670.823 350.71C673.144 350.302 675.533 350.554 677.719 351.437C679.825 352.225 681.75 353.431 683.378 354.984C685.007 356.537 686.304 358.405 687.193 360.474V360.474Z" fill="#263238"/>
<path d="M617.687 466.559C573.189 479.035 537.394 486.623 527.755 481.817C516.984 476.435 472.584 439.021 467.609 434.001C462.633 428.981 501.385 403.27 506.902 398.003C508.166 396.801 538.461 432.651 547.508 440.42C551.318 443.712 570.184 444.387 606.193 446.165C633.221 447.498 633.927 462.016 617.687 466.559Z" fill="#FCDECA"/>
<path d="M470.022 435.861C463.874 431.25 458.038 426.235 452.552 420.849C448.414 416.422 431.37 398.678 435.787 393.624C438.775 390.184 446.493 397.048 452.059 401.854C454.982 404.34 460.269 406.562 461.911 404.587C464.637 401.13 458.528 395.83 452.683 392.044C441.386 384.752 427.363 380.144 429.383 371.107C430.155 367.7 435.179 368.638 440.877 370.893C433.389 366.4 426.411 361.099 427.117 357.281C427.511 355.092 429.12 354.17 431.435 354.087C430.622 353.456 430.015 352.596 429.693 351.616C429.371 350.636 429.349 349.582 429.629 348.59C430.779 345.298 434.555 344.656 439.202 345.298C439.043 344.872 438.987 344.414 439.038 343.962C439.09 343.51 439.247 343.076 439.498 342.697C444.095 334.615 475.523 347.207 481.385 354.12C498.511 374.366 509.02 399.978 509.02 399.978C506.426 412.817 470.039 435.877 470.022 435.861Z" fill="#FCDECA"/>
<path d="M467.346 387.617C460.138 379.716 452.453 374.794 439.777 370.465C439.531 370.465 439.596 370.004 439.859 370.07C452.65 373.165 458.824 376.473 467.871 387.221C468.315 387.732 467.773 388.094 467.346 387.617Z" fill="#263238"/>
<path d="M473.29 375.041C459.629 361.643 444.719 359.272 431.386 354.137C431.205 354.055 431.288 353.824 431.485 353.89C444.801 357.857 458.233 358.532 473.733 374.465C474.177 374.926 473.75 375.486 473.29 375.041Z" fill="#263238"/>
<path d="M477.132 362.4C466.197 351.816 453.159 349.347 439.908 345.611C439.843 345.595 439.786 345.555 439.751 345.498C439.715 345.44 439.704 345.372 439.719 345.306C439.735 345.241 439.775 345.184 439.832 345.148C439.889 345.113 439.958 345.102 440.023 345.117C453.898 347.602 467.428 350.433 477.379 362.054C477.953 362.713 477.822 363.009 477.132 362.4Z" fill="#263238"/>
<path d="M570.94 483.694L572.483 438.215C572.483 438.215 604.157 439.976 622.154 446.445C640.15 452.913 634.14 462.756 616.85 469.719C599.56 476.682 570.94 483.694 570.94 483.694Z" fill="#EFC591"/>
<path d="M582.647 441.391C583.009 448.436 583.419 467.579 581.991 480.056C581.991 480.056 581.679 480.138 581.679 480.056C581.235 469.505 581.925 448.453 582.204 441.391C582.204 441.26 582.647 441.26 582.647 441.391Z" fill="#263238"/>
<path opacity="0.1" d="M616.867 469.703C599.576 476.665 570.891 483.694 570.891 483.694L571.679 460.468L632.975 455.168C633.812 460.139 627.392 465.439 616.867 469.703Z" fill="black"/>
<path d="M545.702 551.064C546.162 556.463 655.158 600.444 659.558 600.164C659.558 600.164 666.635 541.863 664.764 493.174C662.76 441.046 634.091 444.667 622.893 448.897C609.609 453.934 577.918 479.299 574.207 485.109C568.05 494.656 572.565 509.618 572.565 509.618L545.702 551.064Z" fill="#EFC591"/>
<path d="M664.911 523.428C664.797 530.275 664.534 537.024 664.189 543.559C663.45 543.476 662.728 543.41 661.989 543.361C656.964 542.999 651.808 543.081 646.439 543.032C641.07 542.982 635.536 542.884 629.74 542.686C626.866 542.587 623.927 542.456 620.955 542.242L618.722 542.011C617.983 541.929 617.211 541.863 616.456 541.732C614.929 541.547 613.416 541.267 611.924 540.892L610.775 540.612C610.386 540.517 610.002 540.402 609.625 540.267C608.867 540.039 608.121 539.77 607.392 539.46C606.637 539.213 605.947 538.802 605.192 538.489C604.437 538.176 603.813 537.715 603.156 537.32C600.595 535.704 598.178 533.87 595.931 531.839C591.498 527.889 587.409 523.691 583.321 519.609C579.232 515.527 575.636 511.824 572.221 508.252C571.285 504.417 569.134 492.911 574.207 485.076C574.276 484.956 574.353 484.841 574.437 484.73C575.127 485.191 575.767 485.669 576.408 486.179C577.751 487.276 579.014 488.47 580.184 489.751C582.341 492.103 584.225 494.693 585.8 497.471C588.512 502.541 590.871 507.793 592.861 513.19C594.711 518.21 597.343 522.905 600.66 527.099C602.281 529.003 604.2 530.632 606.341 531.921C606.9 532.218 607.425 532.497 607.983 532.744L608.772 533.057L609.182 533.205L609.593 533.337C610.159 533.505 610.735 533.642 611.317 533.748C611.612 533.748 611.891 533.864 612.203 533.897L613.09 533.979C614.314 534.069 615.544 534.069 616.768 533.979C618.032 533.847 619.297 533.666 620.561 533.419C623.167 532.884 625.739 532.191 628.262 531.345C633.451 529.699 638.754 527.724 644.386 526.407C650.121 524.968 655.974 524.053 661.874 523.675C662.875 523.543 663.893 523.428 664.911 523.428Z" fill="#E2BD8E"/>
<path d="M662.925 563.887C662.793 565.928 662.646 567.969 662.498 569.927L661.266 568.43C658.161 564.558 654.095 561.573 649.477 559.772C644.683 558.373 639.657 557.953 634.699 558.537C632.154 558.685 629.543 558.932 626.899 559.13C624.256 559.327 621.596 559.525 618.886 559.558C616.177 559.591 613.435 559.558 610.676 559.344C607.918 559.13 605.176 558.817 602.466 558.422C596.943 557.591 591.496 556.314 586.178 554.603C584.864 554.142 583.534 553.714 582.22 553.188C580.907 552.661 579.642 552.151 578.395 551.542C577.147 550.933 575.849 550.422 574.585 549.896C573.321 549.369 572.139 548.645 570.923 547.986C565.208 544.865 559.76 541.276 554.635 537.254L561.777 526.226L564.47 527.773L567.754 529.617L569.396 530.522L571.038 531.395C572.138 531.954 573.255 532.53 574.322 533.139C574.881 533.436 575.439 533.683 575.964 533.946L577.606 534.769C578.739 535.296 579.807 535.905 580.89 536.415C581.974 536.925 583.123 537.403 584.174 537.946C585.225 538.489 586.407 539.016 587.54 539.46L589.182 540.201L590.824 540.908C595.35 542.75 599.99 544.295 604.716 545.534C609.494 546.735 614.371 547.558 619.379 548.381L627.031 549.616C629.625 550.027 632.236 550.439 634.912 550.933C637.589 551.426 640.249 551.97 642.958 552.579C645.69 553.274 648.355 554.211 650.922 555.377L651.874 555.854L652.81 556.364C653.434 556.677 654.041 557.056 654.649 557.434C655.257 557.813 655.782 558.257 656.291 558.636L657.933 559.854C658.967 560.743 660.051 561.599 661.086 562.504C661.989 563.014 662.449 563.442 662.925 563.887Z" fill="#E2BD8E"/>
<path d="M664.501 488.549C664.583 489.718 664.649 490.92 664.714 492.17L662.58 491.973L659.378 491.594C658.311 491.446 657.243 491.265 656.176 491.068C651.758 490.388 647.464 489.056 643.434 487.117C639.504 484.949 635.94 482.171 632.876 478.887C629.855 475.776 627.145 472.468 624.37 469.275C621.675 466.021 618.703 463.009 615.487 460.271C613.649 458.72 611.644 457.378 609.51 456.271L611.152 455.218C613.045 456.321 614.871 457.536 616.62 458.855C620.068 461.473 623.352 464.254 626.554 467.085C629.756 469.917 632.925 472.764 636.061 475.464C639.039 478.189 642.285 480.605 645.749 482.673C646.176 482.887 646.57 483.134 647.03 483.348L648.393 483.94C649.28 484.368 650.265 484.648 651.217 484.994C652.169 485.34 653.155 485.619 654.123 485.949C655.092 486.278 656.094 486.492 657.095 486.788C659.542 487.496 661.989 488.055 664.501 488.549Z" fill="#E2BD8E"/>
<path d="M663.631 480.467C663.811 481.768 663.992 483.117 664.123 484.55C661.463 484.039 658.787 483.529 656.094 482.903C651.774 482.158 647.586 480.783 643.664 478.821C639.905 476.566 636.607 473.617 633.943 470.131C631.218 466.839 628.705 463.283 626.242 459.794C624.009 456.633 621.842 453.44 619.674 450.346C620.807 449.769 621.907 449.292 622.86 448.914L623.829 448.584C625.651 451.761 627.227 455.02 628.869 458.197C630.757 462.012 632.96 465.663 635.454 469.11C637.827 472.511 640.973 475.298 644.633 477.241C645.553 477.676 646.495 478.061 647.457 478.393C648.442 478.706 649.444 478.953 650.445 479.167C652.487 479.566 654.547 479.857 656.619 480.039C658.869 480.171 661.25 480.319 663.631 480.467Z" fill="#E2BD8E"/>
<path d="M592.039 510.737C596.642 513.06 601.066 515.723 605.274 518.704C607.343 520.218 609.33 521.815 611.3 523.461C612.285 524.284 613.287 525.107 614.289 525.848C615.327 526.693 616.463 527.412 617.671 527.987C617.685 528.002 617.693 528.021 617.696 528.04C617.698 528.06 617.695 528.08 617.686 528.098C617.677 528.116 617.663 528.13 617.646 528.14C617.629 528.15 617.609 528.154 617.589 528.152C616.397 527.757 615.234 527.278 614.108 526.72C613.03 526.139 611.993 525.485 611.005 524.761C608.886 523.247 606.85 521.634 604.749 520.103C600.512 517.009 596.276 513.914 591.826 511.132C591.613 510.968 591.826 510.622 592.039 510.737Z" fill="#263238"/>
<path d="M578.575 510.26C582.667 511.407 586.691 512.786 590.627 514.391C592.598 515.214 594.503 516.136 596.391 517.107C597.294 517.568 598.197 518.046 599.084 518.539C599.97 519.033 600.972 519.757 601.957 520.284C602.056 520.284 601.957 520.515 601.875 520.449C600.939 519.988 599.905 519.675 598.936 519.264L596.013 518.013C594.076 517.173 592.105 516.367 590.168 515.511C586.276 513.865 582.385 512.219 578.427 510.573C578.214 510.507 578.362 510.26 578.575 510.26Z" fill="#263238"/>
<path d="M660.527 467.645C690.559 517.7 713.679 593.696 718.867 609.744C722.398 620.641 669.181 643.553 667.276 635.932C664.747 625.76 651.069 523.247 644.551 477.159C640.955 451.745 654.353 457.358 660.527 467.645Z" fill="#FCDECA"/>
<path d="M667.276 635.932C669.148 641.068 675.486 662.943 680.034 665.659C684.583 668.375 707.948 667.799 719.836 667.799C731.724 667.799 734.007 664.507 733.81 660.408C733.613 656.31 708.769 655.47 708.769 655.47C708.769 655.47 741.954 665.017 750.295 666.564C758.637 668.111 777.865 672.984 780.656 666.054C781.904 662.926 776.633 659.75 776.633 659.75C776.633 659.75 784.712 662.12 785.993 658.104C787.454 653.528 781.067 650.993 781.067 650.993C781.067 650.993 786.108 652.013 786.222 648.294C786.485 639.948 754.926 635.866 754.926 635.866C754.926 635.866 779.096 647.652 779.868 640.804C780.952 631.389 731.429 621.052 726.273 616.954C722.919 614.094 720.134 610.626 718.063 606.732L667.276 635.932Z" fill="#FCDECA"/>
<path d="M733.629 662.482C733.714 661.902 733.656 661.309 733.462 660.756C733.267 660.202 732.941 659.705 732.512 659.305C731.66 658.523 730.683 657.889 729.623 657.429C727.434 656.487 725.164 655.749 722.841 655.223C718.178 654.022 713.383 653.199 708.621 651.931C713.548 651.845 718.466 652.399 723.252 653.577C725.69 654.137 728.039 655.035 730.23 656.244C731.358 656.879 732.346 657.735 733.136 658.762C733.532 659.287 733.786 659.905 733.872 660.557C733.959 661.209 733.875 661.872 733.629 662.482V662.482Z" fill="#263238"/>
<path d="M776.666 659.816C773.251 658.993 769.901 658.021 766.535 657.05C763.169 656.079 759.835 655.042 756.486 654.038L746.502 650.894C743.218 649.841 739.836 648.804 736.47 647.8C739.961 648.189 743.422 648.81 746.831 649.66C750.263 650.433 753.629 651.421 756.978 652.441C760.328 653.462 763.661 654.581 766.929 655.832C770.196 657.083 773.382 658.4 776.666 659.816Z" fill="#263238"/>
<path d="M744.45 639.487C747.669 639.701 750.868 640.146 754.023 640.821C757.185 641.453 760.31 642.26 763.382 643.24C766.468 644.189 769.495 645.321 772.446 646.631C775.412 647.895 778.282 649.375 781.034 651.059C777.98 650.005 775.007 648.837 771.986 647.767C768.965 646.697 765.944 645.709 762.89 644.771C759.835 643.833 756.781 642.911 753.727 642.006C750.673 641.101 747.553 640.294 744.45 639.487Z" fill="#263238"/>
<path d="M749.327 631.554C759.747 632.465 769.79 635.905 778.587 641.578C773.661 639.833 768.899 637.99 764.039 636.36C759.179 634.73 754.285 633.15 749.327 631.554Z" fill="#263238"/>
<path d="M689.64 505.322L645.306 515.445C645.306 515.445 638.919 484.303 640.544 465.209C642.17 446.115 653.22 449.424 664.337 464.402C675.453 479.381 689.64 505.322 689.64 505.322Z" fill="#EFC591"/>
<path d="M645.881 506.968C652.646 504.976 671.135 500.17 683.565 498.738C683.647 498.738 683.713 499.018 683.647 499.034C673.499 501.898 652.892 506.079 645.996 507.429C645.864 507.462 645.766 506.968 645.881 506.968Z" fill="#263238"/>
<path d="M637.654 482.113C638.689 484.056 640.807 487.265 640.938 487.628C640.758 486.656 640.478 483.117 640.249 479.677C640.249 479.513 640.462 479.496 640.511 479.677C641.71 483.085 644.764 512.038 645.437 515.511C646.788 515.11 648.158 514.781 649.542 514.523C649.953 514.523 649.657 514.836 649.624 514.869C648.721 515.264 644.698 516.91 644.583 516.515C644.107 515.099 641.546 492.434 641.299 490.969C641.135 490.623 638.295 484.385 637.556 482.262C637.523 482.097 637.621 482.048 637.654 482.113Z" fill="#263238"/>
<path d="M642.547 461.078C641.562 463.053 628.311 474.246 618.837 471.546C615.75 470.641 619.904 453.555 619.904 453.555V452.239L620.183 433.606L644.091 425.244L647.506 424.191C647.506 424.191 647.096 429.277 646.521 435.614C646.521 435.91 646.521 436.206 646.439 436.519C646.357 436.832 646.439 437.227 646.357 437.556C646.357 438.511 646.209 439.466 646.11 440.437C646.012 441.408 645.963 441.885 645.864 442.642C645.766 443.399 645.684 444.157 645.601 444.93C644.951 450.376 643.931 455.771 642.547 461.078V461.078Z" fill="#FCDECA"/>
<path d="M646.537 435.614C643.569 440.154 639.651 443.992 635.055 446.863C630.458 449.734 625.294 451.568 619.921 452.238L620.2 433.606L644.107 425.244L647.523 424.191C647.523 424.191 647.112 429.277 646.537 435.614Z" fill="#263238"/>
<path d="M600.808 396.949C591.498 428.223 609.165 437.425 615.914 439.433C622.039 441.26 643.122 446.675 655.618 416.389C668.113 386.102 656.504 371.947 642.728 367.009C628.952 362.071 610.118 365.61 600.808 396.949Z" fill="#FCDECA"/>
<path d="M607.31 393.921C608.059 393.962 608.81 393.962 609.56 393.921C610.356 394.045 611.17 393.9 611.875 393.509C612.07 393.344 612.206 393.119 612.259 392.869C612.313 392.618 612.282 392.357 612.171 392.127C611.886 391.698 611.493 391.353 611.031 391.127C610.569 390.901 610.056 390.803 609.543 390.843C608.499 390.776 607.466 391.092 606.637 391.732C606.454 391.89 606.32 392.099 606.254 392.333C606.187 392.566 606.189 392.814 606.26 393.046C606.332 393.279 606.469 393.485 606.656 393.64C606.842 393.795 607.069 393.893 607.31 393.921V393.921Z" fill="#263238"/>
<path d="M628.886 399.237C628.163 398.974 627.54 398.628 626.833 398.299C626.07 398.066 625.402 397.593 624.929 396.949C624.821 396.714 624.793 396.45 624.85 396.197C624.906 395.945 625.043 395.717 625.241 395.55C625.681 395.291 626.183 395.155 626.694 395.155C627.205 395.155 627.706 395.291 628.147 395.55C629.131 395.921 629.94 396.65 630.413 397.591C630.504 397.81 630.53 398.051 630.489 398.284C630.447 398.517 630.339 398.734 630.178 398.907C630.017 399.081 629.81 399.204 629.581 399.263C629.351 399.321 629.11 399.312 628.886 399.237V399.237Z" fill="#263238"/>
<path d="M612.154 413.344C612.154 413.344 611.119 416.537 610.84 418.084C610.84 418.232 611.169 418.364 611.694 418.479C612.97 418.96 614.354 419.078 615.693 418.82C617.032 418.561 618.274 417.936 619.28 417.014C619.428 416.882 619.28 416.685 619.1 416.767C616.893 417.752 614.429 418 612.072 417.475C612.072 417.031 614.026 412.076 613.714 412.01C612.497 411.897 611.27 411.953 610.069 412.175C612.039 405.459 614.995 399.122 616.916 392.423C616.916 392.176 616.637 392.044 616.538 392.258C612.893 398.678 610.463 406.348 608.328 413.228C608.115 414.084 611.481 413.492 612.154 413.344Z" fill="#263238"/>
<path d="M622.597 406.365C622.597 406.365 622.728 406.496 622.696 406.578C621.99 408.554 621.513 410.924 623.09 412.158C623.09 412.158 623.09 412.29 623.09 412.274C620.955 411.253 621.612 408.109 622.597 406.365Z" fill="#263238"/>
<path d="M625.027 404.916C628.311 405.706 626.488 412.208 623.385 411.5C620.282 410.792 622.318 404.192 625.027 404.916Z" fill="#263238"/>
<path d="M626.21 405.558C626.669 406.085 627.047 406.891 627.704 407.204C628.361 407.517 629.346 407.006 629.953 406.496C630.035 406.496 630.068 406.496 630.052 406.595C629.723 407.846 628.886 408.982 627.507 408.801C626.127 408.62 625.684 407.286 625.717 405.937C625.733 405.624 626.029 405.344 626.21 405.558Z" fill="#263238"/>
<path d="M609.97 402.99C609.97 402.908 609.79 402.99 609.757 403.138C609.281 405.163 608.394 407.418 606.473 407.599V407.714C608.689 407.994 609.839 404.998 609.97 402.99Z" fill="#263238"/>
<path d="M608.739 400.406C605.569 399.287 603.566 405.723 606.505 406.76C609.445 407.797 611.382 401.344 608.739 400.406Z" fill="#263238"/>
<path d="M607.261 400.422C606.653 400.603 605.947 401.064 605.34 400.916C604.732 400.768 604.322 399.879 604.075 399.073C604.075 399.073 603.977 399.073 603.96 399.073C603.534 400.307 603.55 401.706 604.65 402.365C605.75 403.023 606.785 402.101 607.458 400.966C607.54 400.735 607.54 400.34 607.261 400.422Z" fill="#263238"/>
<path d="M613.336 418.38C613.928 419.5 614.799 420.447 615.865 421.129C616.457 421.487 617.146 421.648 617.835 421.59C619.329 421.458 619.576 420.141 619.477 418.973C619.436 418.347 619.32 417.728 619.132 417.129C617.382 418.153 615.352 418.591 613.336 418.38V418.38Z" fill="#263238"/>
<path d="M615.865 421.129C616.457 421.487 617.147 421.648 617.835 421.59C619.33 421.458 619.576 420.141 619.477 418.973C618.722 418.88 617.957 419.041 617.303 419.432C616.649 419.822 616.143 420.419 615.865 421.129V421.129Z" fill="#FF9BBC"/>
<path d="M654.189 417.113C648.853 416.504 649.772 405.229 649.772 405.229C649.772 405.229 639.099 403.188 638.557 387.123C637.963 391.796 638.751 396.54 640.823 400.768C640.823 400.768 622.384 395.106 617.523 377.724C617.523 377.724 619.165 386.382 621.53 389.822C621.53 389.822 614.075 386.069 611.464 378.909C611.464 378.909 606.407 387.386 603.386 389.411C603.386 389.411 610.528 356.491 640.347 365.972C640.347 365.972 659.197 370.91 663.138 387.37C667.079 403.83 654.189 417.113 654.189 417.113Z" fill="#263238"/>
<path d="M649.936 417.393C649.936 417.393 658.951 408.834 662.974 412.257C666.997 415.681 658.77 429.096 653.04 429.985C652.319 430.137 651.575 430.144 650.851 430.004C650.127 429.864 649.439 429.58 648.827 429.168C648.215 428.757 647.691 428.227 647.286 427.61C646.882 426.992 646.605 426.3 646.472 425.573L649.936 417.393Z" fill="#FCDECA"/>
<path d="M660.511 416.043C660.609 416.043 660.593 416.175 660.511 416.191C656.488 416.932 653.812 419.993 651.693 423.302C651.987 422.974 652.348 422.713 652.752 422.538C653.155 422.362 653.592 422.277 654.031 422.286C654.471 422.295 654.903 422.4 655.299 422.592C655.695 422.785 656.044 423.06 656.324 423.401C656.34 423.42 656.35 423.445 656.351 423.471C656.352 423.497 656.344 423.522 656.329 423.543C656.314 423.564 656.292 423.579 656.267 423.586C656.243 423.593 656.216 423.591 656.192 423.582C655.579 423.236 654.873 423.09 654.173 423.164C653.473 423.238 652.813 423.527 652.284 423.993C651.41 424.772 650.622 425.644 649.936 426.594C649.69 426.89 649.115 426.594 649.329 426.232V426.149C650.232 421.376 655.322 415.467 660.511 416.043Z" fill="#263238"/>
<path d="M652.5 415L651.5 416L651.05 416.45C650.686 416.814 650.383 417.235 650.152 417.695V417.695C650.051 417.898 649.964 418.108 649.892 418.323L649.658 419.026C649.553 419.34 649.5 419.669 649.5 420V420C649.5 420.331 649.553 420.66 649.658 420.974L649.938 421.814C649.979 421.938 650.029 422.059 650.088 422.176L650.342 422.684C650.445 422.889 650.611 423.055 650.816 423.158V423.158C651.225 423.362 651.718 423.282 652.041 422.959L652.5 422.5" stroke="white" stroke-width="0.7"/>
<path d="M658 411.5L654.5 413.5L653 414.5L651.5 415.5L651 414.5V413L652 411L654.5 409L658.5 408H661.5L664 409L665.5 411L666.5 413V416.5L666 419L664.5 419.5H663L663.5 418L664 415V413L661.5 411L658 411.5Z" fill="white" stroke="white"/>
<path d="M652.5 422L653 421.5L653.146 421.354C653.373 421.127 653.68 421 654 421C654.276 421 654.5 421.224 654.5 421.5V422C654.5 422.276 654.276 422.5 654 422.5H653.5H653C652.68 422.5 652.373 422.627 652.146 422.854L652 423L651.802 423.198C651.69 423.31 651.5 423.231 651.5 423.073C651.5 423.026 651.519 422.981 651.552 422.948L652 422.5L652.5 422Z" fill="white" stroke="white" stroke-width="0.5"/>
</svg>
