<?xml version="1.0" standalone="no"?>
<!DOCTYPE svg PUBLIC "-//W3C//DTD SVG 20010904//EN"
 "http://www.w3.org/TR/2001/REC-SVG-20010904/DTD/svg10.dtd">
<svg version="1.0" xmlns="http://www.w3.org/2000/svg"
 width="459.000000pt" height="459.000000pt" viewBox="0 0 459.000000 459.000000"
 preserveAspectRatio="xMidYMid meet">
<metadata>
Created by potrace 1.14, written by Peter Selinger 2001-2017
</metadata>
<g transform="translate(0.000000,459.000000) scale(0.100000,-0.100000)"
fill="#000000" stroke="none">
<path d="M2290 3710 c-59 -17 -138 -68 -201 -131 l-68 -67 -42 14 c-48 17 -95
16 -124 -3 -11 -7 -27 -13 -37 -13 -10 0 -18 -4 -18 -10 0 -5 -7 -10 -15 -10
-14 0 -89 -82 -91 -100 -1 -6 -3 -11 -4 -12 -2 -2 -4 -19 -5 -38 -1 -23 5 -40
17 -51 9 -9 15 -19 11 -23 -3 -3 1 -6 10 -6 21 0 21 -9 1 -38 -8 -12 -12 -22
-8 -22 3 0 2 -6 -3 -12 -5 -7 -8 -22 -8 -34 2 -16 -3 -21 -19 -19 -21 2 -60
-17 -83 -41 -11 -11 -19 -35 -22 -66 -1 -5 -19 -7 -41 -5 -22 2 -40 0 -40 -5
0 -4 -5 -8 -11 -8 -16 0 -69 -47 -62 -54 4 -3 1 -6 -5 -6 -20 0 -14 -65 9 -94
11 -14 25 -24 30 -21 5 4 9 1 9 -4 0 -6 6 -11 14 -11 10 0 13 -14 11 -60 -2
-42 1 -65 11 -74 15 -16 19 -36 6 -36 -5 0 -9 -6 -10 -12 0 -7 -4 -35 -7 -63
-4 -27 -8 -58 -8 -67 -1 -10 -4 -18 -7 -18 -4 0 -3 -24 0 -52 6 -46 6 -159 0
-165 -1 -2 -3 -6 -4 -10 -12 -50 -57 -153 -67 -153 -5 0 -6 -6 -3 -14 3 -7 -1
-20 -8 -27 -7 -8 -19 -26 -27 -41 -11 -21 -62 -53 -74 -46 -3 2 -154 -80 -199
-109 -21 -12 -42 -23 -48 -23 -5 0 -10 -4 -10 -10 0 -5 -7 -10 -15 -10 -8 0
-15 -5 -15 -11 0 -5 -4 -7 -10 -4 -5 3 -10 2 -10 -2 0 -5 -18 -19 -40 -33 -22
-14 -40 -28 -40 -32 0 -5 -7 -8 -15 -8 -8 0 -15 -5 -15 -12 0 -6 -3 -8 -7 -5
-3 4 -12 -2 -20 -13 -8 -11 -18 -20 -23 -20 -5 0 -25 -15 -45 -34 -34 -33 -45
-69 -26 -81 6 -3 20 -26 32 -50 12 -25 27 -45 32 -45 6 0 8 -3 4 -6 -7 -7 24
-44 97 -113 93 -89 106 -100 106 -94 0 4 10 -3 22 -14 30 -27 188 -112 255
-139 30 -11 52 -22 49 -25 -2 -2 8 -4 22 -5 15 -1 48 -3 75 -6 57 -6 80 12
123 100 16 31 31 59 34 62 12 12 132 261 159 329 21 53 44 90 80 128 28 29 51
51 51 49 0 -15 85 84 113 133 44 74 110 238 102 251 -3 6 -1 10 4 10 6 0 10 3
9 8 -4 15 26 122 34 122 4 0 8 -5 8 -11 0 -7 13 -25 30 -40 16 -16 27 -29 23
-29 -17 0 101 -92 152 -117 34 -18 93 -36 110 -34 2 0 26 -9 51 -19 50 -22
140 -106 164 -155 8 -17 18 -32 21 -35 19 -15 129 -264 132 -297 0 -7 4 -13 9
-13 4 0 8 -7 8 -15 0 -8 4 -23 9 -33 26 -46 59 -131 53 -136 -3 -3 0 -6 6 -6
7 0 12 -4 12 -9 0 -20 75 -141 87 -141 8 0 11 -4 8 -10 -3 -5 0 -10 9 -10 8 0
16 -4 18 -10 5 -15 80 -15 108 1 14 7 28 12 33 11 4 -1 7 2 7 8 0 6 3 9 8 8
12 -2 62 14 62 21 0 3 17 15 38 26 20 11 42 24 47 28 17 14 117 77 121 77 15
0 229 213 253 253 12 20 27 37 32 37 5 0 9 9 9 19 0 11 5 23 10 26 11 7 51 79
58 105 11 38 13 130 3 130 -6 0 -11 5 -11 11 0 12 -88 100 -186 186 -51 45
-79 68 -155 126 -44 34 -79 57 -89 57 -5 0 -10 4 -10 8 0 12 -146 93 -170 95
-11 1 -20 5 -20 9 0 4 -16 23 -35 42 -19 20 -35 38 -35 41 0 3 -8 13 -17 23
-10 10 -28 30 -39 44 -12 14 -26 27 -30 29 -10 4 -63 65 -104 119 -14 17 -30
37 -35 44 -6 6 -39 61 -74 121 -35 61 -67 112 -70 115 -4 3 -18 21 -31 40 -13
19 -31 40 -40 47 -8 6 -39 34 -69 62 -30 27 -58 48 -63 45 -4 -3 -8 0 -8 5 0
6 -9 11 -20 11 -11 0 -20 5 -20 10 0 6 -9 10 -20 10 -11 0 -20 7 -20 15 0 8
-3 15 -7 15 -5 0 -9 21 -10 46 0 26 -6 50 -13 54 -7 4 24 25 75 50 113 58 153
93 161 145 3 22 7 42 9 43 8 9 -18 62 -41 83 -30 28 -107 30 -172 4 -37 -15
-43 -15 -56 -2 -8 8 -13 17 -10 20 5 5 -69 37 -96 42 -8 1 -26 -1 -40 -5z"/>
</g>
</svg>
